<svg xmlns="http://www.w3.org/2000/svg" x="0px" y="0px" viewBox="0 0 282 155" style="enable-background:new 0 0 282 155;" xml:space="preserve"><g>	<path d="M48.8,117.6c5.1,1.5,7.5-8.3,2.9-9.4C47.4,107.1,43.7,116.1,48.8,117.6z"></path>	<path d="M75.5,97.4c0.5-1.4,0.5-3.2-0.3-4.5c-0.5-0.9-1.5-1.4-2.5-1.4c-2.3-0.1-3.9,2.5-4.2,4.4  c-0.3,2.4,1.4,4.4,4,4.2C73.9,99.9,75,98.7,75.5,97.4L75.5,97.4z"></path>	<path d="M61.7,134.4c0,2.9,3.4,4.9,6,3.5c2-1.1,3.2-4,1.9-6C67.3,128.5,61.7,130.6,61.7,134.4z"></path>	<path d="M89.1,113.9c-2.1-1-4.5,0.4-5.3,2.3c-0.5,1.1-0.6,2.3-0.6,3.4c0,0.8,0.1,1.7,0.5,2.4c0.7,1.4,2.1,1.8,3.6,1.4  c1.8-0.5,3.2-2.2,3.6-3.9C91.5,117.6,91.1,114.8,89.1,113.9L89.1,113.9z"></path>	<path d="M114.5,141.2c3.3,0.5,5.3-4,5.4-6.6c0.1-1.4-0.6-3.3-2.1-3.6c-0.2-0.1-0.5-0.1-0.7-0.1c-0.7,0-1.3,0.4-1.8,0.7  c-1.9,1.3-2.9,4.1-3.1,6.3c0,0.6,0,1.3,0.3,1.9C112.8,140.6,113.7,141,114.5,141.2L114.5,141.2z"></path>	<path d="M139.4,138.3c-1.5,3.8,0.9,8.5,5.6,7.2c4.7-1.4,6.2-10.3,1.7-11.9C144,132.6,140.9,134.5,139.4,138.3z"></path>	<path d="M117.7,105.6c0.1-0.9,0-1.8-0.4-2.6c-0.5-0.9-1.1-1.5-1.8-1.8c-3.6-1.3-6.7,3.3-6.7,6.2c0,0.7,0.1,1.4,0.5,2.1  c1.1,2.2,4.3,2.1,6,0.7C116.6,109.1,117.5,107.2,117.7,105.6L117.7,105.6z"></path>	<path d="M146.8,98c3.5,1.4,5.9-6.6,2-7.2C144.9,90.3,143.3,96.7,146.8,98z"></path>	<path d="M98.3,86.5c5.2,2.1,8.2-8.4,3.2-9.5C97.2,76,93.1,84.5,98.3,86.5z"></path>	<path d="M172.7,129.8c0.5-0.4,0.9-0.9,1.2-1.4c1.2-2.1,1.6-6.3-1.2-7.6c-1.9-0.8-4.1,0.9-5,2.5  c-0.9,1.7-0.8,3.8,0.4,5.3C169.2,129.9,171.2,130.8,172.7,129.8L172.7,129.8z"></path>	<path d="M201.4,112.8c1.9-1.1,3.1-3.5,3.2-5.7c0.1-1.7-0.6-3.3-1.9-4c-0.7-0.4-1.7-0.5-2.7-0.1  c-1.5,0.5-2.6,1.8-3.3,3.2c-0.7,1.3-1.2,2.8-0.9,4.3C196.3,112.9,199.3,114,201.4,112.8L201.4,112.8z"></path>	<path d="M209.8,118.4c0.6-0.3,1.1-0.7,1.5-1.2c1-1.3,1.3-3,0.9-4.5c-0.2-0.7-0.6-1.5-1.3-1.8c-0.1,0-0.2-0.1-0.3-0.1  c-0.9-0.2-1.7,0.3-2.3,0.9c-0.8,0.8-1.5,1.7-1.8,2.7c-0.2,0.7-0.3,1.5-0.1,2.2C206.7,117.8,208.3,119,209.8,118.4L209.8,118.4z"></path>	<path d="M224.5,139.6c-1.3,1.9-2.3,5.4-0.8,7.4c3.1,4.2,6.9-1.4,7.4-4.4c0.2-1,0.2-2.1-0.2-3.1  c-0.6-1.4-1.5-2.1-2.6-2.1C227,137.3,225.5,138.2,224.5,139.6L224.5,139.6z"></path>	<path d="M255.5,124.6c0.7-0.7,1.2-1.5,1.5-2.4c0.4-1,0.7-2.1,0.6-3.2c-0.1-1.4-0.7-2.2-1.4-2.5c-3-1.3-5.5,3.4-5.7,5.7  c-0.1,0.6,0,1.2,0.2,1.8C251.5,126.2,254.1,125.9,255.5,124.6z"></path>	<path d="M231.9,89.4c-4.4-1.9-7.1,7.5-3,8.8C233,99.6,236.8,91.5,231.9,89.4z"></path>	<path d="M261.1,74.2c-3.4-1.3-7.7,6.7-3.1,8.5C262.6,84.6,266.5,76.2,261.1,74.2z"></path>	<path d="M277.3,108.4c4.1,1.5,7.1-6.1,2.1-7.8C275.9,99.4,273.2,106.9,277.3,108.4z"></path>	<path d="M182.2,69.9c-5.4-1.4-7.8,8.6-3.2,10.2C183.6,81.6,187.7,71.3,182.2,69.9z"></path>	<g>		<path d="M11.5,137c0,0-1.5-11-8.7-8.1c-10,4.1,10,26,10,26s18-23.9,6.9-26.1C13.1,127.5,11.5,137,11.5,137z"></path>		<path d="M252.2,1.3c-6.6-1.3-8.2,8.2-8.2,8.2s-1.5-11-8.7-8.1c-10,4.1,10,26,10,26S263.3,3.4,252.2,1.3z"></path>	</g></g></svg>