<svg xmlns="http://www.w3.org/2000/svg" x="0px" y="0px" viewBox="0 0 50 50" style="enable-background:new 0 0 50 50;" xml:space="preserve"><style type="text/css">	.wdt-custom-cloud-class-1{fill:#76C8CC;}	.wdt-custom-cloud-class-2{fill:#333333;}	.wdt-custom-cloud-class-3{fill:#FFE1D7;}</style><path class="wdt-custom-cloud-class-1" d="M45,18.8c-2-1.1-4.5-1.4-6.8-1.1c-2.3,0.2-4.6,1-6.8,1.8c2.1-1.4,2.6-4.5,1.2-6.6 c-1.5-2-4.5-2.7-6.9-1.6c-2.3,1-3.8,3.6-3.7,6c-0.4-1.7-0.7-3.4-1.6-4.8c-0.9-1.5-2.4-2.7-4.1-2.9c-2-0.2-3.9,1.1-4.8,2.8 c-0.9,1.7-1,3.7-0.5,5.6c0.4,1.9,1.3,3.6,2.2,5.3c-2.4-1.3-5.2-2.6-7.8-1.7C3.5,22.2,2.2,24,2,25.8c-0.2,1.9,0.6,3.8,2,5.2 c1.6,1.6,4,2.4,6.2,2.2c0.5,0,1-0.1,1.4-0.3c-0.4,3.1,1.8,6.5,5,7.3c3.6,1,7.7-1.2,9-4.5c0.7,2,2.9,3.4,5.1,3.6 c2.2,0.2,4.4-0.6,6.3-1.8c2-1.3,3.8-3.2,4-5.6c0.2-2-1-4.2-2.9-4.9c1.9,0.4,3.8,0.6,5.7,0.2c2.2-0.5,4.2-2.3,4.1-4.5 C47.9,21.1,46.6,19.6,45,18.8z"></path><g>	<path class="wdt-custom-cloud-class-2" d="M22,24.2c0,1.2-0.6,2.2-1.2,2.2s-1.2-1-1.2-2.2c0-1.2,0.6-2.2,1.2-2.2S22,23,22,24.2z"></path>	<path class="wdt-custom-cloud-class-2" d="M28.5,24.2c0,1.2-0.6,2.2-1.2,2.2c-0.7,0-1.2-1-1.2-2.2c0-1.2,0.6-2.2,1.2-2.2  C27.9,22,28.5,23,28.5,24.2z"></path>	<path class="wdt-custom-cloud-class-2" d="M16.4,28.5c1.5,1.5,3.4,2.5,5.4,2.8c2,0.3,4.1,0,6-0.9c1-0.5,2-1.2,2.8-2.1  c0.1-0.2-0.1-0.4-0.2-0.2c-1.4,1.5-3.2,2.4-5.1,2.8c-1.9,0.4-4,0.1-5.8-0.7c-1-0.5-2-1.1-2.7-2C16.4,28.1,16.2,28.3,16.4,28.5z"></path></g><g>	<g>		<path class="wdt-custom-cloud-class-3" d="M33,25.7c0,0.2-0.4,0.4-0.9,0.4c-0.5,0-0.9-0.2-0.9-0.4c0-0.2,0.4-0.4,0.9-0.4   C32.6,25.3,33,25.5,33,25.7z"></path>		<path class="wdt-custom-cloud-class-3" d="M35.8,25.7c0,0.2-0.4,0.4-0.9,0.4c-0.5,0-0.9-0.2-0.9-0.4c0-0.2,0.4-0.4,0.9-0.4   C35.4,25.3,35.8,25.5,35.8,25.7z"></path>		<path class="wdt-custom-cloud-class-3" d="M34.3,27.2c0,0.2-0.4,0.4-0.9,0.4s-0.9-0.2-0.9-0.4c0-0.2,0.4-0.4,0.9-0.4S34.3,27,34.3,27.2z"></path>	</g>	<g>		<path class="wdt-custom-cloud-class-3" d="M12.8,26.4c0.5,0,0.9-0.2,0.9-0.4c0-0.2-0.4-0.4-0.9-0.4c-0.5,0-0.9,0.2-0.9,0.4   C12,26.2,12.4,26.4,12.8,26.4z"></path>		<path class="wdt-custom-cloud-class-3" d="M16.5,25.9c0,0.2-0.4,0.4-0.9,0.4c-0.5,0-0.9-0.2-0.9-0.4s0.4-0.4,0.9-0.4   C16.1,25.5,16.5,25.7,16.5,25.9z"></path>		<path class="wdt-custom-cloud-class-3" d="M15,27.5c0,0.2-0.4,0.4-0.9,0.4c-0.5,0-0.9-0.2-0.9-0.4c0-0.2,0.4-0.4,0.9-0.4   C14.6,27,15,27.2,15,27.5z"></path>	</g></g></svg>