<svg xmlns="http://www.w3.org/2000/svg" x="0px" y="0px" viewBox="0 0 274 305" style="enable-background:new 0 0 274 305;" xml:space="preserve" fill="#fff"><g>	<path d="M205.9,32.4c-31.3,18.3-3.9,68-37.8,107.8c-44.8,52.6-130.3,10.1-159.8,55c-19,28.9-1.9,74.5,16.8,109.1H274l0-264.1  C249.3,27.4,223.4,22.2,205.9,32.4L205.9,32.4z"></path>	<path d="M230.1,0.3c8.1,0.8,15.9,3.3,22.9,7.5c3,1.8,0.3,6.4-2.7,4.6C236,3.8,217.4,3,202.4,10.2c-15.5,7.5-25.4,22.8-27.8,39.4  c-0.5,3.4-5.7,1.9-5.2-1.4c2-14.1,9.3-27.6,20.7-36.6C201.3,2.9,215.9-1.2,230.1,0.3z"></path></g></svg>