<svg xmlns="http://www.w3.org/2000/svg" viewBox="0 0 60 40"><defs><style>.car-icon-cls-1{fill:#e94d4e;}.car-icon-cls-2,.car-icon-cls-9{fill:#fffdfa;}.car-icon-cls-2{opacity:0.13;}.car-icon-cls-2,.car-icon-cls-3,.car-icon-cls-7,.car-icon-cls-9{isolation:isolate;}.car-icon-cls-3,.car-icon-cls-6{fill:#4d2a22;}.car-icon-cls-3{opacity:0.37;}.car-icon-cls-4,.car-icon-cls-7{fill:#fff;}.car-icon-cls-5{fill:#a8dbf6;}.car-icon-cls-7{opacity:0.54;}.car-icon-cls-8{fill:#62416d;}.car-icon-cls-9{opacity:0.36;}</style></defs><path class="car-icon-cls-1" d="M47.46,19.44S50.07,5.91,42.74,2.89,22.22-1,18.45,1.3s-4.11,12.15-4.11,12.15S7.11,12.16,5,14.89,1,27.26,2.83,27.92s8.33,2.79,8.33,2.79,42.65,8.38,44.16,5.94S59.43,24.5,58.52,23s-11.06-3.58-11.06-3.58Z"></path><path class="car-icon-cls-2" d="M47.46,19.44S50.07,5.91,42.74,2.89,22.22-1,18.45,1.3s-4.11,12.15-4.11,12.15S7.11,12.16,5,14.89,1,27.26,2.83,27.92s8.33,2.79,8.33,2.79,42.65,8.38,44.16,5.94S59.43,24.5,58.52,23s-11.06-3.58-11.06-3.58Z"></path><path class="car-icon-cls-3" d="M29,16.24s2-12.1,1.26-12.48-9.38-1.07-9.8-.6S17.88,14.29,18.22,15,29,16.55,29,16.24Z"></path><path class="car-icon-cls-3" d="M43.12,18.34s1.06-12.07.51-12.46S33.09,3.74,32.71,4.17s-2.63,11.62-2.12,12.31,12.64,2.28,12.53,1.86Z"></path><path class="car-icon-cls-4" d="M59.19,27c-1.64-.34-5.89,1.16-4.79,2.76s3.19,3.71,4.21,2.88S60.84,27.31,59.19,27Z"></path><path class="car-icon-cls-5" d="M59.23,27.35c-1.11-.35-2.78,4.13-1.45,4.78S60.34,27.7,59.23,27.35Z"></path><path class="car-icon-cls-4" d="M1.24,19.15c1.37.14,4.32,2.34,3.08,3.33S.93,24.6.34,23.71-.12,19,1.24,19.15Z"></path><path class="car-icon-cls-5" d="M1.12,19.44c.95,0,1.17,3.9,0,4.08S.16,19.44,1.12,19.44Z"></path><path class="car-icon-cls-6" d="M46.57,36.54s3.21-6.94-3.93-10.1C34.93,23,31.36,33.7,34.91,37.37s10,3.58,11.66-.83Z"></path><path class="car-icon-cls-7" d="M41,28.66c-5-1.55-6.39,6-1.65,7.25C43.82,37.12,46.43,30.36,41,28.66Z"></path><path class="car-icon-cls-7" d="M40.2,31.14c-1.54-.48-2,1.82-.51,2.21A1.14,1.14,0,1,0,40.2,31.14Z"></path><path class="car-icon-cls-6" d="M19.62,32.45s3.21-7-3.93-10.1C8,18.94,4.4,29.6,8,33.28s10,3.58,11.66-.83Z"></path><path class="car-icon-cls-7" d="M13.9,25.68C9.26,24.24,8,31.21,12.37,32.39,16.52,33.51,18.94,27.25,13.9,25.68Z"></path><path class="car-icon-cls-7" d="M13.47,27.85c-1.53-.47-2,1.83-.5,2.22A1.14,1.14,0,1,0,13.47,27.85Z"></path><path class="car-icon-cls-8" d="M34.53,20.17s-3.11-.92-3.35-.51A3.72,3.72,0,0,0,30.89,21s3,.72,3.36.42.27-1.23.27-1.23Z"></path><path class="car-icon-cls-8" d="M22.32,18.14s-3.1-.92-3.35-.51A4,4,0,0,0,18.68,19s3,.72,3.36.42.28-1.23.28-1.23Z"></path><path class="car-icon-cls-5" d="M42.66,18.08s1.2-11.27.54-11.87-9.6-2.13-10-1.61-2.85,11.69-2,11.82Z"></path><path class="car-icon-cls-5" d="M28.33,15.82s2-11.48,1.42-11.65S22,2.83,21.17,3.62s-3.13,10.81-2.25,11S28.33,15.82,28.33,15.82Z"></path><path class="car-icon-cls-9" d="M43.11,13.22l-8.4-8.68c.82.06,1.87.2,3,.38l5.62,5.71C43.24,11.47,43.17,12.36,43.11,13.22Z"></path><path class="car-icon-cls-9" d="M33,5.24l9.93,10.51c-.1,1.12-.19,2-.22,2.23L32.32,7.75C32.56,6.7,32.78,5.8,33,5.24Z"></path><path class="car-icon-cls-9" d="M21.17,3.62a2.7,2.7,0,0,1,1.46-.27l6.58,7c-.11.77-.23,1.53-.34,2.23L20.72,4.49a2.8,2.8,0,0,1,.45-.88Z"></path><path class="car-icon-cls-9" d="M29.55,8,25.24,3.5c1.08.11,2.18.26,3,.39l1.56,1.59c0,.66-.15,1.52-.27,2.47Z"></path></svg>