<svg viewBox="0 0 1728 89" xmlns="http://www.w3.org/2000/svg" preserveAspectRatio="xMidYMid slice">
  <path d="M0 88.7998H1728C1716.34 77.5123 1697.77 69.7075 1676.05 68.5258C1658.85 67.5308 1642.67 70.8891 1629.61 77.2014C1621.87 64.7944 1604.59 55.6214 1583.55 54.4398C1568.02 53.6002 1553.48 57.3005 1542.69 63.8927C1533.73 46.1996 1510.34 32.8909 1481.44 31.3362C1453.76 29.8125 1428.58 39.452 1415.14 54.7196C1406.06 48.7183 1394.03 44.7692 1380.51 44.054C1368.81 43.4011 1357.69 45.2357 1348.19 48.8738C1341.32 24.2465 1311.21 4.71883 1273.01 2.60436C1244.34 1.01852 1217.87 9.60075 1201.16 23.9045C1184.68 11.1244 1161.21 2.51108 1134.52 1.01852C1089.33 -1.43799 1048.81 17.0325 1033.32 44.6449C1024.47 41.5354 1014.68 39.5142 1004.2 38.9234C969.109 36.9955 937.668 51.5169 925.972 73.0968C913.669 65.1365 897.454 59.8503 879.303 58.8242C878.734 58.7931 878.164 58.7931 877.556 58.7931C863.24 35.3474 830.812 18.0586 791.32 15.8509C770.738 14.7314 751.106 17.8409 734.284 24.1532C721.639 11.2799 700.944 2.32451 676.679 0.987421C637.605 -1.18923 603.011 17.1568 595.227 42.8724C582.658 33.7927 565.418 27.7292 545.786 26.6408C534.888 26.05 524.293 27.0451 514.61 29.3772C502.345 14.9802 480.397 4.78102 454.385 3.28845C413.868 1.08071 378.249 20.795 372.211 47.9409C356.415 28.8797 327.593 15.26 293.303 13.3943C250.508 11.0311 211.889 27.5426 194.764 52.7296C183.562 39.1721 163.094 29.5638 138.791 28.2267C100.78 26.1122 67.4401 45.018 62.8833 70.7958C62.1998 70.7336 61.6301 70.6403 61.0226 70.6403C36.6439 69.2721 14.1639 76.6105 0 88.7998Z"
        fill="#fff"/>
</svg>