<svg xmlns="http://www.w3.org/2000/svg" x="0px" y="0px" viewBox="0 0 100 100" style="enable-background:new 0 0 100 100;" xml:space="preserve" fill="#96BDC4"><path d="M30.1,34.7c-0.2-6,0.9-12.4,4.7-17.1c3.8-4.7,10.7-7.2,16.1-4.5c3.4,1.7,5.7,5,6.9,8.6 c1.1,3.6,1.2,7.5,1.1,11.3c2.7-2.9,5.2-6.2,8.8-8c3.5-1.8,7.7-2.7,11.6-1.6c3.8,1,7.2,4.2,8,8.1c0.9,5.1-2.5,9.9-5.8,14 c6.5-0.4,12.8,4,15.1,10.1s0.3,13.6-4.8,17.6c-5.1,4-12.8,4.3-18.2,0.7c-1.1,7.7-8.1,14.1-15.9,14.2c-7.8,0.1-15.1-6.2-16.4-13.9 c-0.1,2.5-1.8,4.2-3.7,5.8c-1.8,1.6-4.1,2.7-6.4,3.5c-3.8,1.3-7.9,2-11.8,0.9c-5-1.4-8.9-6.1-9.5-11.3c-0.6-5.2,2.2-10.6,6.8-13.1 C10,59.3,4,53.2,2.7,46.6c-1.2-6.6,2.5-13.9,8.7-16.7C17.5,27.2,26.3,29.2,30.1,34.7L30.1,34.7z"></path></svg>