<svg xmlns="http://www.w3.org/2000/svg" viewBox="0 0 22.9 154.52" fill="#fff"><path d="M12.19,154.27a61.51,61.51,0,0,1-5.64-8.45l1.75-1A60.79,60.79,0,0,0,13.75,153Z"/><path d="M4.3,141.26a53.85,53.85,0,0,1-3.19-9.66l2-.44a52.22,52.22,0,0,0,3.07,9.3Z"/><path d="M.22,126.59a56.77,56.77,0,0,1-.47-7.3c0-.94,0-1.9.07-2.85l2,.09c-.05.92-.07,1.85-.07,2.76a54.65,54.65,0,0,0,.45,7Z"/><path d="M2.25,111.63l-2-.25a71.65,71.65,0,0,1,2-9.93l1.93.53A69.12,69.12,0,0,0,2.25,111.63Z"/><path d="M5.67,97.26l-1.9-.64a97.81,97.81,0,0,1,3.79-9.37l1.82.85A91.11,91.11,0,0,0,5.67,97.26Z"/><path d="M11.57,83.66,9.8,82.73c.92-1.75,1.91-3.54,2.95-5.29.63-1.09,1.24-2.25,1.81-3.45l1.81.85c-.59,1.26-1.23,2.48-1.9,3.61C13.45,80.18,12.48,81.93,11.57,83.66Z"/><path d="M18.32,70.14l-1.88-.69A69.07,69.07,0,0,0,19.1,60l1.95.41A69.34,69.34,0,0,1,18.32,70.14Z"/><path d="M21.93,55.39l-2-.29a92.93,92.93,0,0,0,.9-9.84l2,.07A91.92,91.92,0,0,1,21.93,55.39Z"/><path d="M20.9,40.31a91.88,91.88,0,0,0-.67-9.87l2-.24a95.65,95.65,0,0,1,.68,10.08Z"/><path d="M19.5,25.55A77.52,77.52,0,0,0,17.16,16l1.91-.61a79.93,79.93,0,0,1,2.4,9.84Z"/><path d="M15.51,11.33a55.22,55.22,0,0,0-4.39-8.77L12.81,1.5a57.15,57.15,0,0,1,4.56,9.09Z"/></svg>