<svg xmlns="http://www.w3.org/2000/svg" viewBox="0 0 51 38" fill="#fff"><path d="M13.86,37.75l-.48,0-.48-.06.06-.49L12.41,37l.23-.93a6.65,6.65,0,0,0,.91.16l.48.06-.12,1h0Z"></path><path d="M15.34,37.24l-.1-1c.25,0,.49-.06.72-.11a7.53,7.53,0,0,0,.85-.2l.46-.14.21.68-.47.14.08.24a9.41,9.41,0,0,1-.95.23A7,7,0,0,1,15.34,37.24Z"></path><path d="M31.75,37l-.62-.09.08-.48-.34,0,.15-1,.48.07a5.56,5.56,0,0,0,.81.08h.41v1h-.45l-.46,0Z"></path><path d="M10.79,37a6.61,6.61,0,0,1-1-.62L9.41,36l.58-.76.1.07.32-.38a2.65,2.65,0,0,0,.26.21l.38.29-.28.37.45.25Z"></path><path d="M34.29,36.81l-.1-.46h0l-.28-.92.46-.14a4.67,4.67,0,0,0,.62-.24l.2-.1.45.85-.25.13-.29.12.15.48-.46.14Z"></path><path d="M18.86,36.72l-.22-.43-.19.1L18,35.54l.42-.22c.32-.18.64-.38.95-.59l.56.78c-.21.15-.42.29-.64.42l.24.43Z"></path><path d="M29.55,35.93A8.6,8.6,0,0,1,28,35.14l.52-.81a7.69,7.69,0,0,0,1.37.7l.45.17-.29.72-.44-.17Z"></path><path d="M37.16,35.31l-.66-.71.12-.11-.35-.3.32-.37c.14-.17.28-.35.41-.54l.8.53-.18.26.38.33-.32.36A6.76,6.76,0,0,1,37.16,35.31Z"></path><path d="M21.4,34.93l-.66-.7.45-.45-.35-.31.5-.57.37.32.13-.15.72.64-.32.36C22,34.37,21.69,34.66,21.4,34.93Z"></path><path d="M8.35,34.75a6.07,6.07,0,0,1-.69-1.68l-.11-.47.71-.17.11.47.23,0a5,5,0,0,0,.57,1.41Z"></path><path d="M26.53,34.62l-.42-.41-.33-.35.36-.34c-.1-.12-.2-.24-.29-.37l.77-.57a6.31,6.31,0,0,0,.53.63l.34.35-.34.32,0,0Z"></path><path d="M23.19,32.89l-.52-.36.27-.4L22.67,32c.32-.46.62-.95.92-1.47l.64.37s0-.07,0-.11l-.11-.46.94-.22.07.32.48-.09.14.61-.46.1c.07.22.16.44.25.66l-.87.4a6.26,6.26,0,0,1-.34-.91c-.27.47-.56.92-.84,1.34Z"></path><path d="M39,32.68l-.89-.37c.06-.14.11-.28.16-.43l-.45-.13.13-.46c0-.13.08-.27.11-.41l.48.11v0l.92.27-.13.46C39.19,32,39.08,32.36,39,32.68Z"></path><path d="M8.41,31.67l-.93-.1.06-.48A4.82,4.82,0,0,1,8,29.52l.87.42a3.68,3.68,0,0,0-.36,1.26h0Z"></path><path d="M44.71,30.06h-.49c-.24,0-.49,0-.74,0l.12-1,.15,0v-.46h.48a4.28,4.28,0,0,0,.65,0l.15.95-.32,0Z"></path><path d="M39.65,29.64l-1-.06c0-.22,0-.43,0-.65v-.11l-.47,0,0-.61.48,0,0-.35.8-.05-.38-.31-1-.91.28-.31-.42.1L37.71,25l2,1.81.35.3-.56.73h.1l0,.48q0,.33,0,.66C39.68,29.17,39.67,29.41,39.65,29.64Z"></path><path d="M41.34,29.45l-.43-.21L40.5,29l.22-.42,0,0,.41-.87.44.21c.29.13.58.25.88.35l-.3.91-.55-.2Z"></path><polygon points="24.69 29.43 23.83 28.99 25.25 26.19 25.41 28.43 25.18 28.45 24.69 29.43"></polygon><polygon points="10.03 29.18 9.66 28.81 8.74 28.62 8.94 27.68 11.11 28.12 10.03 29.18"></polygon><path d="M7.21,28.75l-.8-.22.14-.47-.63-.21.33-.91c.33.13.68.23,1,.33l.47.14-.27.92-.14,0Z"></path><path d="M4.36,27.68l-.3-.16-.42-.24.25-.43-.21-.14-.36-.27.6-.75a3.55,3.55,0,0,0,.31.23c.18.12.36.24.55.35l.41.23-.47.84-.13-.08Z"></path><path d="M1.9,25.71l-.2-.25-.28-.39.4-.3a4.22,4.22,0,0,1-.36-.66l.87-.4a5.49,5.49,0,0,0,.53.89l.29.38-.77.58-.11-.14Z"></path><path d="M1.05,22.94l0-.22-.47.06a2.7,2.7,0,0,1,0-.28l0-.48L1,22a2.09,2.09,0,0,1,0-.25,5.4,5.4,0,0,1,.08-.58l.95.19a2.57,2.57,0,0,0-.07.46,2.44,2.44,0,0,0,0,.27c0,.11,0,.21,0,.31l0,.48Z"></path><path d="M2,20l-.84-.45a7.69,7.69,0,0,1,1.13-1.6l.32-.36.36.31-.29.39.33.29A7.32,7.32,0,0,0,2,20Z"></path><path d="M4.43,17.83l-.63-.72L4,17l-.3-.39.38-.29c.2-.16.42-.32.64-.47l.54.8L5,16.75l.29.37-.38.3Z"></path><path d="M6.64,16.35l-.41-.87a7.71,7.71,0,0,1,1.56-.56l0,.11.46-.11.2.82L8,15.85A7.63,7.63,0,0,0,6.64,16.35Z"></path><path d="M10.77,16.05l-.41-.14a3.81,3.81,0,0,0-.76-.17l-.47-.05.11-1,.34,0,0-.47h.16l-.21-.41.87-.42,0,0,.43-.21.22.43.4.8-.86.43c-.06-.12-.12-.25-.19-.37h0l-.25.12,0,.14a3.62,3.62,0,0,1,.47.13l.42.13Z"></path><path d="M9.41,12.37a13.36,13.36,0,0,1-.57-1.58L9,10.73l-.14-.46.74-.22.14.46A15.07,15.07,0,0,0,10.29,12Z"></path><path d="M26.56,10.65l-.23-.47v-.11h.48l-.13-.46.52-.16c0-.15,0-.29,0-.44V8.82l1,0V9a4.24,4.24,0,0,0,.05.71l.07.42Z"></path><path d="M8.52,9.46l0-.37L8,9.15l-.06-.59.49-.05c0-.14,0-.27,0-.4s0-.38,0-.54l1,.07c0,.14,0,.29,0,.43a7,7,0,0,0,0,.82l.05.47Z"></path><path d="M26.16,8.65,26,8.27l-.43.22-.22-.43-.24-.45.85-.46,0,0L26.38,7l.22.43q.22.4.42.84Z"></path><path d="M27.88,7.53,27,7.26a7.25,7.25,0,0,1,.28-.78l.2-.44.46.21L28,6l.83.49a5.93,5.93,0,0,0-.29.56l-.19.44L28,7.32C27.93,7.39,27.9,7.46,27.88,7.53Z"></path><path d="M9.15,6.25,8.22,6a7.55,7.55,0,0,1,.29-.84l.18-.44.46.19c0-.06.06-.11.08-.16l.85.45c-.08.16-.16.34-.24.51l-.18.44L9.23,6A2.29,2.29,0,0,0,9.15,6.25Z"></path><path d="M24.77,6.15c-.14-.23-.29-.45-.45-.67l-.38.29-.29-.38L24,5.05l-.26-.33.75-.6.3.38c.29.37.55.74.8,1.12Z"></path><path d="M29.28,5.11l-.73-.63a16.14,16.14,0,0,1,1.38-1.41l.66.7A15.91,15.91,0,0,0,29.28,5.11Z"></path><path d="M22.32,4l-.44-.39.31-.35c-.21-.17-.42-.33-.63-.47L22.1,2a12.32,12.32,0,0,1,1.09.85l.36.32-.63.72-.28-.24Z"></path><path d="M10.46,3.8l-.72-.63A7.18,7.18,0,0,1,11,2.05l.38-.29.51.68-.38.29.06.09A6.59,6.59,0,0,0,10.46,3.8Z"></path><path d="M32,3.2l-.6-.76.35-.26-.26-.42.4-.25.54-.31.45.85-.06,0,.25.4-.41.25A6.08,6.08,0,0,0,32,3.2Z"></path><path d="M20.57,2.69l-.44-.2A6.61,6.61,0,0,0,19,2l-.51-.14L18.67,1l.57.15a8.44,8.44,0,0,1,1.31.51l-.2.42.44.19Z"></path><path d="M12.57,2.08l-.36-.83.44-.19a9.46,9.46,0,0,1,1.5-.51l.23.93A8.82,8.82,0,0,0,13,1.94l0-.06Z"></path><path d="M34.34,1.94,34.13,1l.28-.06L34.3.47,35,.32l.1.49a5.1,5.1,0,0,1,.87-.07v1a5.61,5.61,0,0,0-1.14.13Z"></path><path d="M15.83,1.73l-.09-1,.26,0V.26h.59l.68,0-.07,1H17v.47h-.48Z"></path><path d="M43.58,8l-.08-.48-.27.05A7.07,7.07,0,0,0,42.8,6l.89-.37a7.88,7.88,0,0,1,.49,1.75l.08.48Z"></path><path d="M41.74,5c-.14-.21-.28-.41-.43-.6L41,4.05l.36-.29-.09-.1L42,3l.45.53.3.38-.39.3.2.3Z"></path><path d="M40,3.12a6.57,6.57,0,0,0-1.48-.88L38.06,2l.2-.44.46.16.17-.41a8.47,8.47,0,0,1,1.68,1Z"></path><path d="M46.25,29.68l-.35-.9a4.87,4.87,0,0,0,1.5-.91l.63.73A6.2,6.2,0,0,1,46.25,29.68Zm2.5-2.57L48,26.55a6.29,6.29,0,0,0,.41-.64l.23-.43.84.47-.46.84h0Z"></path><path d="M49.64,26.6l-.84-.46a6.38,6.38,0,0,0,.63-1.67l.94.21A7.24,7.24,0,0,1,49.64,26.6Z"></path><path d="M49.08,23.07a4.77,4.77,0,0,0-.06-.76L49,21.84l.46-.07,0-.1.94-.23c0,.22.09.44.13.66l.07.47-.49.08c0,.13,0,.26,0,.39Z"></path><path d="M48.67,20.93l-.21-.43a7.66,7.66,0,0,0-.89-1.44l.75-.6a8.65,8.65,0,0,1,1,1.63l-.33.16.2.43Z"></path><path d="M46.4,17.85l-.23-.16-.42.15L45.12,16,46,15.7l.23.67.18-.25.4.27a10,10,0,0,1,.81.65l-.65.72c-.11-.1-.22-.2-.34-.29v.05l0,0Z"></path><path d="M44.55,16.25c-.52-.21-1-.4-1.59-.58l-.13,0,.31-.91.1,0c.59.2,1.14.39,1.67.61l.45.18-.18.45-.46-.16Z"></path><path d="M41.3,15.59l-.72-.28.51-1c.12-.24.25-.48.36-.72l.22-.43.73.36-.22.43.14.07-.38.74-.26.48-.22-.12Z"></path><path d="M42.71,13l-.79-.31.17-.45a13.84,13.84,0,0,0,.47-1.42l.93.24a15.1,15.1,0,0,1-.5,1.53l-.11,0Z"></path><polygon points="43.23 10.57 42.6 8.75 44.3 8.89 44.23 9.64 43.91 9.61 44.14 10.25 43.23 10.57"></polygon></svg>