<svg xmlns="http://www.w3.org/2000/svg" x="0px" y="0px" viewBox="0 0 135 194" style="enable-background:new 0 0 135 194;" xml:space="preserve"><style type="text/css">	.wdt-custom-giraffe1{fill:#DEC9BF;}	.wdt-custom-giraffe2{fill:#FFAE22;}	.wdt-custom-giraffe3{fill:#302F66;}	.wdt-custom-giraffe4{fill:#302F54;}	.wdt-custom-giraffe5{fill:#FFAC9C;}	.wdt-custom-giraffe6{fill:#302F33;}	.wdt-custom-giraffe7{fill:#FFFFFF;}</style><g>	<path class="wdt-custom-giraffe1" d="M109.4,118.6c-0.4-4.6-0.8-9.2-1.5-13.8c-0.5-3.4-1.6-7-4.9-8.7c-1.9-0.9-4-1.1-6.1-1.2  c-2.7-0.2-5.3-0.3-8-0.5c-5.1-0.3-10.2-0.6-15.3-0.9C72,79.3,70,65.1,67.3,51.1c-1.3-6.8-2.5-13.6-4.5-20.3  c-0.8-2.8-1.9-5.7-3.3-8.3c-0.9-2.7-2.2-5.4-4.2-7.5c-2.8-3-6.9-4.6-10.9-4.8c-2-0.1-3.9,0.1-5.8,0.5c-7.2,0.6-13.8,3.2-19.5,7.6  c-1.6,1.2-3.1,2.5-4.5,4c-1.2,1.1-2.4,2.2-3.5,3.4C6.9,30,2.5,33,0.1,38.5C-0.4,39.7,0.9,43,1,44.3c0,1.7,24.8,1.1,26.3,0.5  c3.8,35.4,3.7,78.9-1.3,114c-1.4,10-3.2,19.9-5.3,29.8c-0.2,0.8,0.3,1.3,1.1,1.4c3,0.3,6,0.7,9,1c0.4,0,1-0.4,1.1-0.8  c1.8-11.5,4.6-22.9,8.3-33.9c1.9,11.7,1.4,23.6,0.8,35.4c0,0.4,0.2,0.8,0.6,1c1.7,0.9,3.6,1.4,5.5,1.2c1.4-0.1,4.2-0.6,5-1.9  c0.4-0.8,0.1-2.1,0.1-3c0-1.2,0-2.3,0.1-3.5c0.1-2.5,0.2-5,0.3-7.6c0.6-8.9,1.8-17.7,3.7-26.5c0.1,0,0.3,0,0.4,0  c4.3-0.1,8.6-0.5,12.9-0.8c1.1,13.2,1.7,26.5,2,39.8c0,0.7,0.6,1.3,1.2,1.2l12.1-0.3c0.6,0,1.2-0.5,1.2-1.2  c-0.1-5.9-0.2-11.9-0.3-17.8l-0.1-8.9c0-2.6-0.2-5.3,0.4-7.9c0.5-2.2,1.5-4.3,3.5-5.4c1.5-0.8,3.6-1.2,5.1-0.3  c1.1,0.6,0.9,1.5,0.9,2.7c0,1.6,0.1,3.2,0.1,4.7l0.2,8.9l0.4,20.3c0,0.5,0.4,0.9,0.8,1.1c3.2,1.1,6.6-0.1,8.9-2.4  c2.7-2.7,3.6-6.6,3.9-10.2c0.4-4.5,0.3-9.1,0.4-13.7c0.1-4.8,0.2-9.5,0.2-14.3C110.3,137.6,110.1,128.1,109.4,118.6L109.4,118.6z"></path>	<g class="wdt-custom-giraffe-color">		<path class="wdt-custom-giraffe2" d="M52.1,4.3C52,3.7,51.4,3.4,51,3.8c-3.6,3.3-5.8,7.8-6.3,12.7c-0.1,0.7,1,0.6,1,0c0.5-4.1,2.3-7.8,5.2-10.8   c0.1,1.8-0.1,3.6-0.5,5.4c-0.5,2.2-1.4,4.1-2.1,6.2c-0.3,0.8,0.9,1.2,1.3,0.6C52.1,14.1,52.6,8.7,52.1,4.3L52.1,4.3z"></path>		<path class="wdt-custom-giraffe2" d="M28.2,8.2c-1.2-2-2.8-3.6-4.6-5C23,2.8,22.3,3.4,22.3,4c0,4.9,1.5,9.7,4.3,13.7c0.6,0.8,1.9,0,1.3-0.8   c-2.2-3.3-3.5-7-3.8-10.9c1,1,1.9,2.1,2.6,3.4c1,1.8,1.4,3.7,2.1,5.5c0.3,0.8,1.4,0.7,1.5-0.2C30.5,12.4,29.4,10.1,28.2,8.2   L28.2,8.2z"></path>		<path class="wdt-custom-giraffe2" d="M83.1,85.8c-0.6-2.2-2.3-3.9-4.4-4.5c2.3-2.3,4-5.3,3.3-8.5c-0.5-2.1-1.9-3.9-3.8-4.8c1.3-1.3,2-3.1,1.9-5   c-0.1-2-1.3-3.8-2.9-4.9c2.8-1.5,4.8-4.5,4.3-7.8c-0.5-3.2-3.3-5.5-6.3-5.9c1-1.1,1.9-2.1,2.8-3.3c1.2-1.5,2.2-3.4,1.5-5.3   c-0.5-1.6-2.1-2.6-3.7-2.9c-0.8-0.1-1.5-0.1-2.3,0c2.3-3,3.8-6.5,1.6-10c-1.1-1.7-2.9-3.1-5-3c-0.8,0.1-1.5,0.3-2.1,0.8   c0.4-1.5,0.7-3,0.9-4.6c0.2-1.8,0.2-4.2-1.3-5.6c-3.6-3.3-6,3.4-7.8,5.2c-0.5,0.5,0.3,1.3,0.8,0.8c1.2-1.2,4.5-8.1,6.5-4.5   c1,1.7,0.3,4-0.1,5.8c-0.5,2.3-1.2,4.6-2,6.8c-0.4,1,1.2,1.6,1.7,0.7c0.8-1.5,1.9-3.6,3.9-3.6c1.7,0,3.1,1.7,3.5,3.2   c1.2,3.7-2.3,7.2-4.7,9.6c-0.9,0.9,0.2,2.1,1.3,1.6c1.4-0.6,3-1.5,4.6-1.3s2.8,1.4,2.2,3.1c-0.5,1.4-1.7,2.6-2.7,3.7   c-1,1.2-2.1,2.3-3.2,3.5c-0.9,0.9,0.2,2.2,1.3,1.7c2.8-1.3,6.3,1.2,6.5,4.1c0.2,3.2-2.8,5.6-5.7,5.8c-0.3,0-0.6,0-0.9,0   c-1.5,0.1-1.5,2.3,0,2.3c0.2,0,0.5,0,0.7,0c2.1,0.1,4.1,1.6,4.3,3.8c0.2,1.8-0.9,3.5-2.5,4.3c-0.7,0-1.5,0.2-2.2,0.6   c-1,0.5-0.6,2.3,0.6,2.2c0.7-0.1,1.4-0.2,2.1-0.5c2.1,0.1,4,2.5,4,4.6c0,3.3-2.8,5.9-5.4,7.5c-1.3,0.8-0.2,2.8,1.2,2.1   c2.2-1.2,4.9,0.8,5.3,3.1c0.5,3-2.4,5.4-5,6c-1.5,0.4-0.9,2.7,0.6,2.4C80.5,94.2,84.2,90.2,83.1,85.8L83.1,85.8z"></path>		<g class="wdt-custom-giraffe-tail">			<path class="wdt-custom-giraffe3" d="M119.6,103.8c0.2-0.1,0.3-0.3,0.3-0.6c0-0.4-0.3-0.7-0.7-0.7c-0.2,0-0.5,0-0.7,0c0.1,0,0.2-0.1,0.3-0.1    c0.7-0.2,0.6-1.2-0.2-1.3c-4.9-0.3-9.7-1.7-14.1-3.9c-0.6-0.3-1.1,0.6-0.5,0.9c0.1,0.1,0.3,0.1,0.4,0.2c-0.2,0.3-0.1,0.6,0.1,0.8    c0.1,0.1,0.1,0.1,0.2,0.2c-0.1,0.2-0.1,0.4,0,0.6c0.2,0.2,0.4,0.5,0.6,0.7c-0.1,0.2-0.1,0.5,0.1,0.6c0.2,0.2,0.4,0.4,0.6,0.6    c0,0.1,0,0.2,0,0.3c0,0.1,0,0.2,0,0.2c0,0.3,0.1,0.7,0.5,0.7c0.6,0.1,1.3,0.2,1.9,0.3c3,1.1,6.2,1.7,9.4,1.7    c0,0.5,0.7,0.9,1.1,0.5c0.3-0.3,0.6-0.5,0.9-0.8C120.3,104.6,120.1,103.9,119.6,103.8L119.6,103.8z M114.6,101.9    c0.3,0,0.5,0.1,0.8,0.1L114.6,101.9z"></path>			<path class="wdt-custom-giraffe2" d="M134.6,104.6c-1.1-0.2-2.2-0.4-3.2-0.5c1-0.2,2.1-0.5,3.1-0.9c0.5-0.2,0.4-0.9-0.1-1c-1.7,0-3.4,0-5.1,0.1    c0.9-0.3,1.8-0.7,2.7-1c0.4-0.2,0.2-0.9-0.2-0.9c-1.9,0.2-3.8,0.3-5.7,0.5c1.2-0.5,2.3-1.2,3.4-2.1c0.4-0.3,0-1-0.5-0.9    c-3.5,1.3-7.1,2.3-10.7,3.3c-0.2,0.1-0.3,0.2-0.2,0.4H118c-0.2,0-0.4,0.1-0.4,0.3c-0.1,0.3-0.1,0.5-0.1,0.8    c-0.1,0.8-0.3,1.6-0.4,2.4c-0.1,0.3,0.2,0.5,0.5,0.5l0,0c2.2,1,4.5,1.9,6.7,2.8c2.1,0.9,4.4,1.6,6.7,1.2c0.5-0.1,0.4-0.7,0-0.8    c-0.8-0.3-1.7-0.6-2.5-0.9c1.6,0.1,3.2,0.1,4.9-0.2c0.5-0.1,0.5-0.9,0-1c-1.2-0.2-2.3-0.3-3.5-0.5c1.7-0.1,3.3-0.2,5-0.5    C135.1,105.6,135.1,104.7,134.6,104.6L134.6,104.6z M130.7,103.2c-1.1,0.2-2.2,0.4-3.3,0.5c-1,0-2-0.1-3.1-0.1    c0.3-0.1,0.6-0.1,0.8-0.2C127,103.3,128.8,103.3,130.7,103.2L130.7,103.2z M118.2,102.1c1.8-0.4,3.7-0.8,5.5-1.3    c0.3-0.1,0.6-0.2,0.8-0.2c-1.7,0.7-3.5,1.2-5.3,1.6c-0.3,0.1-0.4,0.4-0.3,0.6c-0.1,0.1-0.2,0.2-0.2,0.3l0,0V103    c0.1-0.3-0.1-0.5-0.3-0.6c0-0.1-0.1-0.2-0.3-0.2H118v-0.1V102C118.1,102.1,118.2,102.1,118.2,102.1L118.2,102.1z M121,103.2    c-0.1-0.2-0.2-0.3-0.4-0.3c-0.2,0-0.4,0-0.5,0.1c0,0,0,0,0-0.1c1.8-0.4,3.6-0.7,5.4-0.9c0.8-0.1,1.5-0.2,2.3-0.3    c-2.2,0.6-4.4,1.1-6.6,1.5C121.2,103.1,121.1,103.2,121,103.2L121,103.2z M124.1,107.6c-0.3-0.2-0.7-0.3-1-0.5    c1.7,0.6,3.4,1.2,5.1,1.7C126.8,108.6,125.4,108.1,124.1,107.6z M124.3,105c1,0,2-0.1,3-0.2c1.1,0,2.2,0.1,3.3,0.2    C128.6,105.2,126.4,105.2,124.3,105z"></path>		</g>	</g>	<path class="wdt-custom-giraffe4" d="M40.7,59.2c0-0.4-0.2-0.7-0.6-0.8c-1.6-0.5-3.1,0.3-4,1.7c-1.2,1.9-0.5,4.3,0.1,6.3c0,0.1,0.1,0.2,0.1,0.3  c0,0,0,0.1,0.1,0.1c0.2,0.5,0.8,0.4,1.1,0.1C39.9,65,41.1,62.1,40.7,59.2z M37.6,61.3L37.6,61.3c0.2-0.8,0.9-1.3,1.6-1.4  c0,0.4,0,0.8,0,1.2c-0.2-0.2-0.4-0.2-0.7,0c-0.1,0.1-0.2,0.2-0.3,0.3c-0.2,0.2-0.2,0.3-0.1,0.5H38C37.9,61.7,37.7,61.5,37.6,61.3  L37.6,61.3z M38.8,62.1L38.8,62.1C38.9,62,39,62,39,61.9c0,0.1-0.1,0.2-0.1,0.4C38.9,62.2,38.9,62.1,38.8,62.1z"></path>	<path class="wdt-custom-giraffe4" d="M53.6,42.5c-0.1,0-0.3,0-0.4,0c-0.1-0.2-0.2-0.4-0.3-0.7c-1.5-2-4.4,0.8-5.3,2.1c-0.3,0.4,0,1,0.5,1.1  c0.3,0.1,0.7,0.2,1.1,0.2C49.1,45.6,49,46,49,46.5s0.6,0.9,1.1,0.6c0.4-0.2,0.8-0.6,1.3-1c-0.1,0.1-0.1,0.3-0.2,0.4  c-0.3,0.6,0.5,1.1,0.8,0.5c0.7-1.2,1.4-2.4,2-3.7C54.1,43,54,42.5,53.6,42.5L53.6,42.5z M51.2,42.7c-0.1,0.1-0.1,0.1-0.2,0.2  c-0.3,0.1-0.5,0.3-0.7,0.5c-0.2,0.1-0.3,0.1-0.5,0.2c0.1-0.1,0.2-0.2,0.3-0.3C50.4,43.1,50.9,42.8,51.2,42.7z"></path>	<path class="wdt-custom-giraffe4" d="M32,27.5c-0.2-0.7-1.2-0.7-1.4,0c-0.2,1.1-0.1,2.4-1.2,3s-2.8-0.4-2.9-1.7c0-0.5-0.8-0.5-0.8,0  c-0.2,1.8,1.7,3.6,3.5,3.3C31.3,31.9,32.5,29.4,32,27.5L32,27.5z"></path>	<path class="wdt-custom-giraffe4" d="M5.1,40.4c-0.7,0.6-1.5,0.8-2.4,0.8c-0.5,0-0.6,0.8-0.1,0.8c1.2,0.2,2.4,0,3.2-0.9C6.3,40.7,5.6,40.1,5.1,40.4  z"></path>	<path class="wdt-custom-giraffe5" d="M36.5,34c-0.4-1.1-1.4-2.2-2.7-1.8s-2.1,1.7-1.8,3c0.2,0.8,0.8,1.3,1.6,1.4c0.5,0.2,1.1,0.2,1.6,0.1  C36.3,36.4,36.9,35.1,36.5,34L36.5,34z"></path>	<path class="wdt-custom-giraffe6" d="M54.1,1.8c-0.1-0.5-0.3-1-0.7-1.4C52.9,0,52.3,0,51.8,0.2c-1,0.3-1.8,1.1-2.6,1.8c-1.5,1.3-2.8,2.9-3.9,4.6  c-1.2,1.9-2.1,4.1-2.5,6.3c-0.1,0.7,0.9,1,1.1,0.3c1-3.5,2.8-6.8,5.4-9.3c0.6-0.6,1.3-1.2,2-1.7C51.6,2,52,1.6,52.4,1.6  c0.3,0,0.3,0.3,0.3,0.5c0.4,2.1,0.6,4.4,0.6,6.6c0,1.3-0.1,2.5-0.2,3.8c-0.1,0.6-0.2,1.2-0.3,1.8c-0.1,0.7-0.3,1.3-0.2,2  c0.1,0.6,0.9,0.6,1.2,0.2c0.4-0.5,0.4-1.2,0.5-1.8s0.2-1.2,0.3-1.9c0.1-1.2,0.2-2.4,0.2-3.7C54.7,6.7,54.5,4.2,54.1,1.8L54.1,1.8z"></path>	<path class="wdt-custom-giraffe6" d="M32.6,13.1c-1.2-2.4-2.3-4.8-3.5-7.2c-1.1-2.1-2.6-4.1-4.8-5.2c-1.2-0.6-2.6-0.8-3.9-0.6  c-0.3,0-0.5,0.3-0.5,0.5c-1.3,5-1.3,10.8,1.4,15.4c0.7,1.2,1.5,2.3,2.5,3.3c0.6,0.6,1.5-0.3,0.9-0.9c-3.2-3.5-4.3-8.4-3.9-13  c0.1-1.3,0.3-2.6,0.6-3.9c1.8-0.1,3.6,1,4.8,2.3c1.5,1.7,2.5,3.9,3.5,6c0.6,1.3,1.3,2.6,1.9,4c0.2,0.3,0.6,0.4,0.9,0.2  C32.7,13.8,32.7,13.4,32.6,13.1L32.6,13.1z"></path>	<path class="wdt-custom-giraffe6" d="M75,79.9c1.5-0.9,2.8-2.1,3.2-3.8c0.5-2.3-0.6-4.6-2.3-6.1c-1-0.8-2.1-1.4-3.2-1.8c1.4-1.6,2.5-3.6,2.6-5.8  c0.1-1.9-0.7-4-2.2-5.2c-0.4-0.3-0.9-0.6-1.4-0.8c1.8-1.3,3.9-2.5,4.7-4.8c0.4-1.1,0.2-2.4-0.4-3.4c-0.6-0.9-1.5-1.5-2.5-1.9  c-0.8-0.3-1.6-0.4-2.5-0.5c1.1-1.8,2.8-3.3,3.4-5.5c0.3-1.1,0.2-2.4-0.4-3.3c-0.7-1-1.8-1.6-3-1.6c-0.8,0-1.6,0.1-2.4,0.4  c1.7-3.5,2.3-7.5,2.1-11.4c0-0.3-0.2-0.5-0.5-0.5c-1.9,0-3.7,0.4-5.4,1.3c1.1-3,1.7-6.1,1.7-9.3c0-0.3-0.3-0.6-0.7-0.5  c-1.1,0.3-2,1-2.6,1.9c-0.3,0.5-0.5,1-0.6,1.5c0,0.2-0.1,0.5-0.1,0.8s0.1,0.6,0.2,0.8c0.1,0.2,0.4,0.2,0.4-0.1  c0.1-1.5,0.9-3.1,2.3-3.7c-0.2,3.3-1,6.6-2.3,9.7C63,26.5,63,26.8,63.2,27c0.2,0.2,0.5,0.2,0.7,0.1c1.7-1.2,3.7-2,5.9-2.2  c0.2,4.1-1,8.2-3.1,11.7c-0.3,0.6,0.3,1.1,0.9,0.9c1.5-0.7,4.2-1.7,5.3,0.1c0.5,0.8,0.5,1.7,0.2,2.6c-0.3,1-0.9,1.9-1.5,2.7  c-0.8,1.1-1.7,2.1-2.3,3.3c-0.2,0.4,0,1,0.6,1c1.7-0.2,3.7,0.1,4.8,1.5c1.4,1.7-0.1,3.9-1.6,5.1c-1.1,0.9-2.4,1.6-3.5,2.5  c-0.5,0.4-0.1,1.2,0.5,1.2c2,0,3.4,1.8,3.7,3.7c0.4,2.3-0.9,4.6-2.3,6.2c-0.3,0.3-0.3,0.7,0,1c0.1,0.1,0.3,0.2,0.4,0.2  c0,0.2,0.1,0.4,0.3,0.5c1.8,0.7,3.6,1.9,4.5,3.7c0.4,0.8,0.6,1.8,0.4,2.7c-0.2,0.9-0.7,1.7-1.4,2.3c-0.8,0.7-1.8,1.1-2.8,1.6  c-0.5,0.3-0.4,1.2,0.2,1.3c1.9,0.3,2.9,2.3,3.4,4c0.3,1.1,0.5,2.4,0,3.5c-0.3,0.8-1,1.5-1.9,1.7c-0.4,0.1-0.6,0.5-0.5,0.9  s0.5,0.6,0.9,0.5c2.2-0.3,3.3-2.7,3.3-4.6c0-2-0.8-4.2-2.1-5.7C75.8,80.5,75.4,80.2,75,79.9L75,79.9z"></path>	<path class="wdt-custom-giraffe4" d="M46.7,83.5c0-0.5-0.6-0.9-1.1-0.6c-0.4,0.2-0.7,0.5-0.9,0.9c-0.2,0-0.4,0-0.5,0.2c-0.9,0.7-0.9,2.1-0.3,2.9V87  c-0.1,0.4,0.2,0.6,0.5,0.6c0,0.1,0,0.1,0,0.2c0,0.3,0.3,0.5,0.6,0.5s0.6-0.1,0.7-0.3C46.4,86.6,46.7,85.1,46.7,83.5z"></path>	<path class="wdt-custom-giraffe4" d="M57.5,69.4c0-0.4-0.3-0.7-0.6-0.7c-0.1-0.1-0.1-0.2-0.2-0.3c-0.3-0.4-0.6-0.7-1.1-0.8c-0.2,0-0.3,0-0.4,0  c-0.1-0.2-0.2-0.3-0.3-0.4c-0.3-0.3-0.9-0.2-1,0.3v0.1c-0.5,0-1,0.3-1.1,0.8c-0.1,0.4-0.2,0.9-0.2,1.3s0,0.8,0,1.3  c0.1,0.9,0.4,1.8,0.9,2.7c0.2,0.4,0.9,0.5,1.2,0.2s0.5-0.6,0.6-1l0,0c0.1,0.1,0.1,0.1,0.2,0.1c0,0.1,0.1,0.1,0.1,0.2  c0.2,0.2,0.5,0.4,0.7,0.3c0.1,0.3,0.3,0.4,0.6,0.4c0.4,0,0.7-0.3,0.7-0.7C57.6,71.8,57.5,70.6,57.5,69.4L57.5,69.4z"></path>	<path class="wdt-custom-giraffe4" d="M44.6,114.6c-0.5-0.5-1.2-0.4-1.7,0c-0.3,0.1-0.5,0.2-0.6,0.4c-1,1.6-1.5,3.5-1.2,5.4c0.2,1.5,1.1,2.8,2.8,2  C46.8,121.1,46.6,116.7,44.6,114.6L44.6,114.6z"></path>	<path class="wdt-custom-giraffe4" d="M56.8,100.6c0-0.3-0.1-0.5-0.2-0.8c-1.1-1.8-3.7-1-4.8,0.3c-0.7,0.9-0.9,2-0.1,2.9c0.7,0.8,1.9,1.1,2.9,0.9  C56.2,103.6,57.2,102,56.8,100.6L56.8,100.6z"></path>	<path class="wdt-custom-giraffe4" d="M62.5,116c-1.1-0.8-2.5-0.4-3.4,0.5c-1.2,1.3-1,3.1-0.7,4.7c0.1,0.7,1,0.9,1.5,0.6c1.1-0.6,1.9-1.7,2.1-3  c0.4-0.6,0.6-1.3,0.8-2.1C62.9,116.4,62.8,116.2,62.5,116L62.5,116z M61.6,117.2c-0.1-0.1-0.2-0.1-0.3-0.1c0.1,0,0.2,0,0.3-0.1  C61.6,117.1,61.6,117.2,61.6,117.2L61.6,117.2z"></path>	<path class="wdt-custom-giraffe4" d="M76.3,103.1c0-0.1,0-0.3,0-0.4c-0.1-0.8-0.7-1.4-1.5-1.6c-0.9-0.3-2-0.2-2.8,0.4c-1.5,1.2-1.8,4.5,0.4,5.1  c1.2,0.3,2.4-0.6,3.2-1.7C76,104.5,76.3,103.9,76.3,103.1L76.3,103.1z"></path>	<path class="wdt-custom-giraffe4" d="M37.8,139.1c-2.4-1.9-4.9,0.9-5.3,3.1c-0.3,1.9-0.3,6.3,2.8,5.5c2.1-0.5,2.9-2.9,3-5.1  C38.9,141.5,38.8,139.9,37.8,139.1L37.8,139.1z"></path>	<path class="wdt-custom-giraffe4" d="M50.5,152c0-0.1,0-0.3,0.1-0.4c0.1-0.5-0.3-0.9-0.8-0.8c-0.1,0-0.1,0-0.2,0c-0.3-0.1-0.6,0-0.8,0.3  c-2.3,1.2-2.7,5-0.6,6.7c0.5,0.4,1.2,0.4,1.5-0.2C50.8,155.8,51.1,154,50.5,152z"></path>	<path class="wdt-custom-giraffe4" d="M61.5,135.8c-1.6-2-4.4-0.3-5.7,1.3c-1.6,2,0.3,4.7,2.8,4.4c1.4-0.2,2.7-1.7,3-3.2  C62.1,137.5,62.2,136.7,61.5,135.8L61.5,135.8z"></path>	<path class="wdt-custom-giraffe7" d="M62.3,53.1c-0.2-1.2-0.5-2.3-2-2.2s-2.7,1.4-3.1,2.8c-0.6,1.1-0.6,2.5,0.3,3.6c1.3,1.7,3.9,2.2,4.8-0.1  C62.9,55.9,62.6,54.5,62.3,53.1L62.3,53.1z M59.3,53.1c-0.2,0.5-0.5,1.2-0.7,1.7C58.7,54.2,58.9,53.5,59.3,53.1z M58.2,56.5  c0.1,0,0.2,0,0.3-0.1c0,0.2,0,0.4,0.1,0.5C58.5,56.9,58.3,56.7,58.2,56.5z"></path>	<path class="wdt-custom-giraffe4" d="M78.8,122.9c-0.5-1.8-2.3-2.6-4.1-2.5c-0.8,0.1-1.9,0.4-2.5,0.9c-0.8,0.6-0.9,1.7-1.1,2.6  c-0.1,0.3,0,0.8,0,1.2c0,1.4,0.3,3.1,1.3,3.8c1.4,1,3.7-0.2,4.9-1.1C78.8,126.9,79.2,124.6,78.8,122.9L78.8,122.9z M73,123.7  c0.2-0.4,0.4-0.7,0.7-0.9c-0.4,0.5-0.6,1-0.9,1.5C72.9,124.1,72.9,123.9,73,123.7z M73.9,127.8c0.2-0.1,0.3-0.3,0.5-0.4  c0,0,0,0,0.1,0c0,0.1-0.1,0.2-0.1,0.4c-0.1,0-0.2,0.1-0.3,0.1C74,127.8,73.9,127.8,73.9,127.8L73.9,127.8z"></path>	<path class="wdt-custom-giraffe7" d="M57.8,87.8c-0.1-0.7-0.3-1.5-0.8-2s-1.3-0.6-1.9-0.3c-0.8,0.4-1.2,1.2-1.3,2c-0.1,0.5,0,1,0.2,1.5  c0,0.4-0.1,1,0.2,1.4c0.2,0.3,0.7,0.4,1.1,0.5c0.5,0.1,0.9,0.1,1.4,0.1c0.4,0,0.8-0.1,0.9-0.5c0.2-0.4,0.2-0.8,0.3-1.3  C57.8,88.6,57.8,88.2,57.8,87.8L57.8,87.8z M55.3,89.9c-0.1,0-0.2,0-0.3-0.1c0,0,0,0-0.1,0c-0.1-0.1-0.1-0.2-0.1-0.4v-0.1  c0,0,0,0,0-0.1c0.1,0,0.1-0.1,0.2-0.1l0,0c0,0.1,0,0.2,0,0.3C54.9,89.7,55.2,89.8,55.3,89.9C55.4,89.8,55.4,89.9,55.3,89.9  L55.3,89.9z M55.4,86.3L55.4,86.3C55.3,86.2,55.3,86.2,55.4,86.3c-0.1-0.1-0.1-0.2-0.2-0.2c0.1-0.1,0.3-0.1,0.4-0.1  C55.6,86,55.5,86.1,55.4,86.3z M56.5,90.1c-0.1,0-0.3,0-0.4,0l0,0c0.1,0,0.1,0,0.1,0l0,0h0.1h0.1C56.4,90,56.4,90,56.5,90.1  C56.5,90,56.5,90,56.5,90.1C56.6,90,56.6,90,56.5,90.1C56.6,90.1,56.6,90.1,56.5,90.1c0.1,0,0.1,0,0.2,0  C56.7,90.1,56.6,90.1,56.5,90.1L56.5,90.1z"></path>	<path class="wdt-custom-giraffe7" d="M42.4,99.3c0-0.2-0.1-0.5-0.3-0.6c-0.2-0.2-0.5-0.2-0.8-0.1c-0.4-0.2-0.9-0.2-1.4,0.1c-0.6,0.4-1,1-1.2,1.7  c-0.4,0.8-0.7,1.7-0.5,2.7c0.2,0.8,0.7,1.4,1.5,1.6c0.7,0.1,1.3-0.2,1.8-0.6c0,0,0.1,0,0.1-0.1l0,0c0.1-0.1,0.2-0.2,0.2-0.3  c0.5-0.7,0.6-1.7,0.6-2.5C42.6,100.3,42.5,99.8,42.4,99.3L42.4,99.3z M39.8,100.1c0.1-0.1,0.1-0.2,0.2-0.3l0,0c0,0.1,0,0.1,0,0.2  l0,0c-0.2,0.2-0.3,0.3-0.4,0.5C39.7,100.4,39.8,100.2,39.8,100.1z M40.3,103.5c-0.3,0.1-0.6,0-0.8-0.2c0,0,0.1,0,0.1-0.1  c0.1-0.1,0.1-0.1,0.2-0.2l0,0c0,0.1,0,0.1,0.1,0.2l0.1,0.1c0.1,0,0.1,0.1,0.2,0.1c0.1,0,0.2,0,0.3,0s0.1,0,0.2-0.1  c0.1,0,0.1-0.1,0.1-0.1s0,0,0-0.1c0,0,0,0,0-0.1l0,0c0,0,0,0,0-0.1l0,0c0.1,0,0.2,0,0.3,0C40.9,103.2,40.6,103.4,40.3,103.5  L40.3,103.5z"></path>	<path class="wdt-custom-giraffe7" d="M86.2,109.6c-0.1-0.5-0.4-0.8-0.9-0.9c-0.3-0.3-0.7-0.4-1.1-0.5c-1.1-0.1-2.5,0.2-3.4,0.9  c-1,0.6-1.7,1.7-1.8,2.8c0,0.6,0.2,1.2,0.6,1.6s1,0.5,1.6,0.5c1,0,2.1-0.1,3.1-0.4c1-0.4,1.7-1.2,1.9-2.3  C86.3,110.8,86.3,110.2,86.2,109.6L86.2,109.6z M81,111.2c-0.1-0.1-0.3,0-0.4,0.1c0.1-0.1,0.2-0.3,0.3-0.4  C81,111,81,111.1,81,111.2C81.1,111.1,81.1,111.2,81,111.2L81,111.2z M85.1,112.1c0.1-0.2,0.1-0.3,0.2-0.5c0-0.1,0.1-0.2,0-0.3  c0,0,0,0,0-0.1c0.1-0.1,0.1-0.2,0.2-0.3C85.5,111.5,85.3,111.8,85.1,112.1z"></path>	<path class="wdt-custom-giraffe7" d="M52.8,127.6c-0.2-0.1-0.3-0.1-0.5-0.1c-0.3-0.1-0.7-0.2-1.1-0.1c-0.5,0.1-1,0.3-1.5,0.6  c-0.3,0.1-0.6,0.2-0.8,0.3c-1.1,0.6-1.8,1.6-2,2.8c-0.2,1.1,0.2,2.8,1.4,3.2s2.5-0.5,3.4-1.3c0.9-0.7,1.8-1.7,2.1-2.8  C54.1,129.3,53.8,128.1,52.8,127.6L52.8,127.6z M48.5,132.9c0.1,0,0.2,0,0.2-0.1c0.1-0.1,0.2-0.2,0.3-0.3c0,0,0,0.1,0.1,0.1H49  c-0.1,0.1-0.2,0.2-0.2,0.3s0.1,0.2,0.2,0.3C48.8,133.2,48.7,133.1,48.5,132.9C48.5,133,48.5,133,48.5,132.9L48.5,132.9z   M50.8,131.5c0.1-0.2,0.2-0.3,0.3-0.5c0.1-0.1,0.1-0.3,0-0.4c0,0,0,0,0-0.1c0,0.1,0.1,0.3,0.3,0.3h0.1  C51.3,131.1,51.1,131.3,50.8,131.5L50.8,131.5z"></path>	<path class="wdt-custom-giraffe7" d="M78.1,136.2c-0.1-0.7-0.4-1.4-0.9-2c-0.6-0.6-1.3-0.7-2.1-0.7c-1.3,0-2.7,0-3.9,0.6c-0.1,0.1-0.2,0.1-0.3,0.2  c-1.4,0.8-2.5,2.1-3,3.6c-0.5,1.4-0.5,3.2,0.5,4.5c0.4,0.6,1.1,1,1.8,1.1c0.9,0.1,1.7-0.3,2.5-0.6c1.5-0.6,3-1.4,4-2.6  C77.8,139.2,78.3,137.7,78.1,136.2L78.1,136.2z M71.1,139.6L71.1,139.6c0-0.1,0.1-0.3,0.1-0.4c0.4-0.7,0.8-1.4,1.2-2.1  c0.1,0,0.2,0,0.4,0C72.2,137.8,71.6,138.7,71.1,139.6L71.1,139.6z M71.6,139.7c-0.1,0.2-0.1,0.3-0.1,0.5c0-0.1-0.1-0.1-0.1-0.1  C71.4,140,71.5,139.9,71.6,139.7L71.6,139.7z M70.6,138.3c-0.2,0.2-0.3,0.5-0.5,0.7c-0.1,0.2-0.2,0.4-0.4,0.6  c0.1-0.2,0.2-0.4,0.3-0.6c0.1-0.3,0.3-0.6,0.4-0.9C70.5,138.2,70.6,138.3,70.6,138.3L70.6,138.3z M70.5,140.3  c0.1-0.1,0.1-0.2,0.2-0.4c0,0.1,0,0.1,0.1,0.2l0,0c-0.1,0.1-0.3,0.2-0.4,0.3l0,0C70.4,140.4,70.5,140.4,70.5,140.3L70.5,140.3z   M74.5,135.3c0.3,0,0.6,0,0.8,0.1c0,0,0,0,0,0.1c0,0,0,0-0.1,0c-0.1-0.1-0.3-0.1-0.5-0.1c-0.5,0-1.1,0.2-1.5,0.3  c-0.2,0-0.4,0.1-0.6,0.1l0,0C73.2,135.5,73.9,135.3,74.5,135.3L74.5,135.3z M71.6,135.3v0.1c-0.3,0.2-0.5,0.4-0.7,0.7  c-0.1,0-0.3,0-0.4,0C70.8,135.8,71.2,135.5,71.6,135.3z M69.5,138.2c0-0.1,0.1-0.2,0.1-0.3c0.1-0.4,0.2-0.7,0.4-1.1  c0,0.1,0.1,0.1,0.1,0.1s0.1,0,0.1,0.1l0,0l0,0c-0.3,0.2-0.5,0.6-0.6,0.9C69.6,138.1,69.6,138.1,69.5,138.2L69.5,138.2z M71.8,141.8  v0.1c0,0.1,0,0.1,0,0.2c-0.5,0.2-1.1,0.4-1.6,0.2c-0.2-0.1-0.4-0.2-0.5-0.3c0.1,0,0.1,0.1,0.2,0.1c0.3,0.1,0.8,0.1,1.1,0  c0.2-0.1,0.3-0.1,0.5-0.2c0.1,0,0.1-0.1,0.2-0.1s0.1,0,0.2-0.1C71.8,141.7,71.8,141.8,71.8,141.8L71.8,141.8z M73.7,136.9  c0.2,0,0.4,0,0.5,0c-0.2,0.3-0.4,0.7-0.5,1.1c-0.3,0.6-0.7,1.1-1.1,1.6C72.8,138.6,73.2,137.7,73.7,136.9L73.7,136.9z M72.7,141.8  c0.1-0.2,0.3-0.4,0.4-0.4c0.2,0,0.3,0,0.4,0.1C73.3,141.6,73,141.7,72.7,141.8L72.7,141.8z M74.4,140.6c-0.1,0.1-0.2,0.1-0.3,0.1  c-0.2,0-0.4-0.1-0.6-0.2c-0.4-0.1-0.7,0-1,0.2l0,0c0.3-0.2,0.5-0.5,0.7-0.8v0.1c0,0.3,0.4,0.6,0.7,0.4c0.3-0.2,0.6-0.4,0.9-0.7  C74.7,140,74.6,140.4,74.4,140.6L74.4,140.6z M74.2,139.1c0-0.3,0.1-0.5,0.2-0.7c0.1-0.1,0.2-0.3,0.2-0.4c-0.1,0.2,0.1,0.4,0.2,0.5  C74.7,138.7,74.4,138.9,74.2,139.1z M74.8,137.7c0.1-0.2,0.2-0.4,0.3-0.6c0,0,0,0,0,0.1C75,137.4,74.9,137.5,74.8,137.7L74.8,137.7  z M76.2,134.5c0-0.1-0.1-0.1-0.1-0.2c0.1,0,0.3,0.1,0.4,0.2c0.2,0.2,0.4,0.4,0.5,0.6C76.7,134.8,76.5,134.6,76.2,134.5z   M76.9,138.7c0,0.1-0.1,0.2-0.2,0.3c0.2-0.4,0.3-0.9,0.3-1.4v-0.1c0.1-0.1,0.1-0.1,0.2-0.2c0,0,0.1-0.1,0.1-0.2  C77.3,137.6,77.2,138.2,76.9,138.7L76.9,138.7z"></path>	<g>		<path class="wdt-custom-giraffe7" d="M95.7,123.2c-0.9-0.1-1.7,0.4-2.2,1c-0.5,0.3-1,0.8-1.3,1.2c-0.9,1.1-1.9,2.6-1.6,4c0.2,0.7,0.6,1.3,1.1,1.8   s1.1,1.2,1.8,1c0.6-0.2,1.3-0.7,1.7-1.2c0.5-0.5,0.9-1.1,1.3-1.6c0.7-1.1,1.2-2.5,1.2-3.8C97.7,124.5,97.1,123.3,95.7,123.2   L95.7,123.2z M94.3,124.8L94.3,124.8C94.4,124.7,94.4,124.7,94.3,124.8L94.3,124.8c0,0-0.1,0.1-0.2,0.1c-0.1,0-0.1,0.1-0.2,0.1   C94.1,124.9,94.2,124.8,94.3,124.8L94.3,124.8z M94.3,128.8c0,0,0,0.1-0.1,0.1c0,0.1-0.1,0.1-0.1,0.1l0,0c0,0,0,0,0-0.1   s0.1-0.3,0.1-0.4C94.3,128.7,94.3,128.8,94.3,128.8L94.3,128.8z M92.4,130.5c-0.1-0.1-0.2-0.3-0.3-0.4c-0.3-0.4-0.5-0.9-0.5-1.4   c0-0.4,0.2-0.9,0.4-1.3c-0.1,0.3-0.1,0.7-0.2,1c-0.1,0.1-0.2,0.2-0.2,0.3v0.1c0,0.1,0.1,0.2,0.1,0.3c0,0,0,0.1,0.1,0.1l0,0l0,0   l0,0l0,0l0,0c0,0.1,0.1,0.1,0.1,0.2c0.1,0.2,0.2,0.4,0.4,0.6c0,0,0,0,0.1,0.1C92.4,130.2,92.4,130.3,92.4,130.5L92.4,130.5z    M92.6,129.1c0,0,0-0.1-0.1-0.1l0,0v-0.1c0-0.1,0-0.1-0.1-0.2l0,0c0-0.2,0-0.4,0-0.6c0.1,0.1,0.2,0.1,0.3,0   C92.7,128.4,92.6,128.8,92.6,129.1L92.6,129.1z M93.2,131.2L93.2,131.2c0.1-0.2,0.1-0.4,0.2-0.6c0.1,0.2,0.2,0.3,0.4,0.4   C93.6,131.2,93.4,131.3,93.2,131.2z M94.3,130.5L94.3,130.5L94.3,130.5C94.2,130.5,94.2,130.6,94.3,130.5   c-0.1,0.1-0.1,0.1-0.1,0.1l0,0c0,0,0,0-0.1,0l0,0c0,0,0,0-0.1,0l0,0l0,0l0,0l0,0l0,0l0,0l0,0c0-0.1-0.1-0.2-0.2-0.2   c0.1-0.2,0.1-0.3,0.2-0.5c0.1,0.1,0.3,0.1,0.5,0.1l0.1,0.1c-0.1,0.1-0.1,0.1-0.1,0.2C94.3,130.3,94.3,130.4,94.3,130.5L94.3,130.5   z M94.9,126.9c0-0.3,0.1-0.5,0.2-0.8C95.1,126.4,95,126.8,94.9,126.9z M96.3,128.1c0.1-0.4,0.3-0.8,0.4-1.2c0.2-0.6,0.3-1.3,0.2-2   c0,0.1,0.1,0.2,0.1,0.3C97.2,126.2,96.8,127.2,96.3,128.1L96.3,128.1z"></path>	</g></g></svg>