<svg xmlns:xlink="http://www.w3.org/1999/xlink"  xmlns="http://www.w3.org/2000/svg" fill="none" viewBox="0 0 50 43" height="43" width="50">
<g clip-path="url(#clip0_489_3745)">
<path stroke-width="0.75" stroke="white" fill="white" d="M33.9333 15.7007H40.1091L33.4883 22.3236C33.3066 22.5053 33.2519 22.7768 33.3496 23.0131C33.4492 23.2494 33.6797 23.4037 33.9336 23.4037H41.6365C41.9861 23.4037 42.2693 23.1205 42.2693 22.7709C42.2693 22.4213 41.9861 22.1381 41.6365 22.1381H35.4607L42.0836 15.5151C42.2652 15.3354 42.318 15.064 42.2203 14.8276C42.1226 14.5913 41.8922 14.437 41.6363 14.437H33.9334C33.5857 14.437 33.3025 14.7202 33.3025 15.0698C33.3025 15.4175 33.5857 15.7007 33.9334 15.7007H33.9333Z"></path>
<path stroke-width="0.75" stroke="white" fill="white" d="M23.2733 11.26H29.4492L22.8262 17.883C22.6446 18.0646 22.5919 18.3361 22.6895 18.5724C22.7872 18.8088 23.0177 18.963 23.2735 18.963H30.9764H30.9745C31.3241 18.963 31.6073 18.6798 31.6073 18.3302C31.6073 17.9806 31.3241 17.6974 30.9745 17.6974H24.7987L31.4216 11.0745C31.6032 10.8948 31.6579 10.6233 31.5583 10.387C31.4606 10.1506 31.2302 9.99634 30.9743 9.99634H23.2735C22.9238 9.99634 22.6406 10.2795 22.6406 10.6272C22.6406 10.9768 22.9238 11.26 23.2735 11.26H23.2733Z"></path>
<path stroke-width="0.75" stroke="white" fill="white" d="M41.3299 29.4492C36.9628 31.8691 31.7574 32.2637 27.0778 30.5293C22.3962 28.7949 18.7049 25.1035 16.9703 20.4218C15.236 15.7422 15.6305 10.5368 18.0504 6.16971C18.1871 5.92362 18.1442 5.61504 17.9449 5.41579C17.7457 5.21654 17.4371 5.17361 17.191 5.31033C12.146 8.11112 8.70853 13.117 7.90811 18.832C7.10732 24.547 9.03507 30.3045 13.1152 34.3845C17.1953 38.4646 22.9531 40.3924 28.6677 39.5916C34.3827 38.7908 39.3881 35.3532 42.1894 30.3087C42.3261 30.0626 42.2831 29.754 42.0839 29.5547C41.8847 29.3555 41.5761 29.3126 41.33 29.4493L41.3299 29.4492ZM26.1128 38.5038C21.2728 38.5038 16.6578 36.455 13.4137 32.8634C10.1676 29.2735 8.59324 24.475 9.08158 19.6605C9.56987 14.8442 12.0737 10.4596 15.9741 7.59213C14.1635 12.0784 14.1948 17.098 16.06 21.5613C17.9253 26.0263 21.4742 29.5746 25.9392 31.4405C30.4021 33.3057 35.4217 33.337 39.9083 31.5264C36.6798 35.9131 31.5588 38.5031 26.1133 38.5047L26.1128 38.5038Z"></path>
</g>
<defs>
<clipPath id="clip0_489_3745">
<rect transform="translate(0 0.899902)" fill="white" height="42" width="50"></rect>
</clipPath>
</defs>
</svg>
