<svg xmlns:xlink="http://www.w3.org/1999/xlink"  xmlns="http://www.w3.org/2000/svg" fill="none" viewBox="0 0 50 43" height="43" width="50">
<g clip-path="url(#clip0_489_3761)">
<g clip-path="url(#clip1_489_3761)">
<path stroke-width="0.5" stroke="white" fill="white" d="M2.85284 8.39136C2.43628 8.3901 2.11897 8.76424 2.18824 9.17493C3.32315 16.0284 4.47921 22.8794 5.61046 29.7329C6.3712 34.0802 10.1735 37.2815 14.5874 37.2815H32.4127C36.8267 37.2815 40.6289 34.0802 41.3897 29.7329C42.5289 22.8805 43.6708 16.0273 44.8119 9.17493C44.8812 8.76424 44.5639 8.39011 44.1473 8.39136H40.0555C39.7267 8.39038 39.4455 8.62749 39.3909 8.95183L36.0976 28.8107C35.7803 30.6236 34.2528 31.9105 32.4125 31.9105H14.5872C12.7485 31.9105 11.2211 30.6261 10.9021 28.8157C9.80569 22.1944 8.70689 15.5731 7.60882 8.95187C7.55437 8.62755 7.27316 8.39043 6.94422 8.3914L2.85284 8.39136ZM3.64146 9.7354H6.37432C7.43646 16.1707 8.51984 22.6035 9.57832 29.0388C10.005 31.4769 12.1123 33.2496 14.5875 33.2496H32.4128C34.8881 33.2496 36.9955 31.477 37.4219 29.0388C38.4885 22.6049 39.5576 16.1696 40.6259 9.7354H43.3588L40.0655 29.5097C39.4146 33.2159 36.1758 35.9425 32.4125 35.9425H14.5873C10.8244 35.9425 7.58542 33.2162 6.93433 29.5097C5.8379 22.9181 4.73896 16.3266 3.64103 9.7354H3.64146Z"></path>
<path stroke-width="0.5" stroke="white" fill="white" d="M8.13486 12.9097L7.1875 13.857L8.91352 15.588C10.2834 16.9579 12.528 16.9579 13.8979 15.588C14.7544 14.7315 16.1214 14.7315 16.9779 15.588C18.3478 16.9579 20.5874 16.9579 21.9573 15.588C22.8138 14.7315 24.1858 14.7315 25.0422 15.588C26.4121 16.9579 28.6517 16.9579 30.0216 15.588C30.8781 14.7315 32.2451 14.7315 33.1016 15.588C34.4715 16.9579 36.7161 16.9579 38.086 15.588L39.812 13.857L38.8598 12.9097L37.1338 14.6357C36.2773 15.4922 34.9103 15.4922 34.0538 14.6357C32.6839 13.2658 30.4393 13.2658 29.0694 14.6357C28.2129 15.4922 26.8459 15.4922 25.9894 14.6357C24.6195 13.2658 22.3799 13.2658 21.01 14.6357C20.1535 15.4922 18.7865 15.4922 17.93 14.6357C16.5601 13.2658 14.3155 13.2658 12.9456 14.6357C12.0891 15.4922 10.7221 15.4922 9.86561 14.6357L8.13486 12.9097Z"></path>
<path stroke-width="0.5" stroke="white" fill="white" d="M23.5003 20.8123C21.6529 20.8123 20.1426 22.3226 20.1426 24.1699C20.1426 26.0173 21.6529 27.5327 23.5003 27.5327C25.3477 27.5327 26.858 26.0173 26.858 24.1699C26.858 22.3226 25.3477 20.8123 23.5003 20.8123ZM23.5003 22.1563C24.6215 22.1563 25.5139 23.0488 25.5139 24.1699C25.5139 25.2911 24.6215 26.1885 23.5003 26.1885C22.3791 26.1885 21.4866 25.291 21.4866 24.1699C21.4866 23.0488 22.3791 22.1563 23.5003 22.1563Z"></path>
</g>
</g>
<defs>
<clipPath id="clip0_489_3761">
<rect transform="translate(0 0.899902)" fill="white" height="42" width="50"></rect>
</clipPath>
<clipPath id="clip1_489_3761">
<rect transform="translate(2 1)" fill="white" height="43" width="43"></rect>
</clipPath>
</defs>
</svg>
