<svg xmlns:xlink="http://www.w3.org/1999/xlink"  xmlns="http://www.w3.org/2000/svg" fill="none" viewBox="0 0 50 43" height="43" width="50">
<g clip-path="url(#clip0_489_3754)">
<path stroke-width="0.5" stroke="white" fill="white" d="M10.8145 17.8909L6.8839 15.1693L6.88175 15.1715C5.98609 14.5537 4.79406 14.5926 3.94349 15.2708C3.09081 15.9469 2.77506 17.1047 3.16596 18.1242L5.4427 24.0515C6.67987 27.2549 10.2365 28.8748 13.4481 27.702L23.1969 24.125L22.9392 23.4165L23.285 24.2027L21.47 35.2947C21.4249 35.5885 21.5066 35.8888 21.6956 36.1177C21.8781 36.351 22.1531 36.4892 22.4495 36.5H22.7179C25.0483 36.5 26.9019 35.3379 28.249 32.9878L34.5745 19.3019C34.7571 18.9283 35.0643 18.628 35.4423 18.4552C41.0503 15.8221 44.5707 13.8371 46.1969 12.3726C47.1828 11.4806 47.273 9.9599 46.4009 8.95549C44.8674 7.17997 42.552 6.34619 39.6158 6.52332C38.6192 6.60109 37.6462 6.85813 36.7398 7.28148L27.3924 11.5L17.5725 8.73518C15.2614 8.05264 12.7654 8.52998 10.8648 10.0182L10.6715 10.1781C10.418 10.3898 10.2806 10.7094 10.3042 11.0399C10.3257 11.3704 10.5018 11.6685 10.7767 11.8478L17.2975 16.0619L12.8213 18.0794C12.1662 18.3753 11.4037 18.304 10.8152 17.8915L10.8145 17.8909ZM12.1225 10.9356C13.6045 9.95276 15.4409 9.68061 17.1422 10.1882L25.2355 12.4821L18.9461 15.3247L12.1225 10.9356ZM37.3446 8.67403C38.0856 8.32627 38.8824 8.11674 39.6965 8.04762C42.1536 7.89858 44.0244 8.54012 45.255 9.96138H45.2571C45.5858 10.3437 45.56 10.9183 45.1949 11.266C43.6892 12.616 40.2742 14.519 34.7972 17.0892C34.112 17.424 33.5622 17.9856 33.2421 18.6811L26.8973 32.2955C25.9029 34.0257 24.6592 34.8941 23.0097 34.9891L24.7301 24.4441C24.8032 23.9904 24.6743 23.5282 24.38 23.1783C24.0858 22.8262 23.6519 22.6231 23.1966 22.6188C23.0076 22.6188 22.8228 22.6512 22.6467 22.7182L12.8979 26.2844C10.4708 27.1505 7.79665 25.9301 6.84953 23.5196L4.56206 17.5752C4.40956 17.1734 4.53629 16.7199 4.87135 16.452C5.20857 16.1863 5.67679 16.1712 6.03117 16.4153L9.96819 19.1369V19.1347C10.9863 19.8475 12.305 19.9706 13.437 19.4565L37.3446 8.67403Z"></path>
</g>
<defs>
<clipPath id="clip0_489_3754">
<rect transform="translate(0 0.899902)" fill="white" height="42" width="50"></rect>
</clipPath>
</defs>
</svg>
