<svg xmlns="http://www.w3.org/2000/svg" x="0px" y="0px" viewBox="0 0 100 100" style="enable-background:new 0 0 100 100;" xml:space="preserve"><style type="text/css">	.wdt-custom-heading-animal-icon-class-1{fill:#E39949;}	.wdt-custom-heading-animal-icon-class-2{fill:#F06985;}	.wdt-custom-heading-animal-icon-class-3{fill:#2B2C2B;}</style><g>	<g>		<g>			<path class="wdt-custom-heading-animal-icon-class-1" d="M13,30.4c0,0-2.4-0.4-4.7-0.7c0-0.1,0.1-0.1,0.1-0.2c0.2-0.2,0.4-0.3,0.6-0.5    c0.4-0.3,0.9-0.6,0.8-1.2c-0.1-0.4-0.4-0.7-0.8-0.8c-0.8-0.2-1.8,0.4-2.3,1.2c-0.3,0.4-0.6,0.9-0.4,1.4c-0.3,0-0.5,0-0.8,0    c-2.7,0-4.2-0.7-4-2.3c0.1-0.5,1.4-0.9,3.1-1.2c-0.2,0.4-0.2,0.9,0.2,1.3C5.5,28,6.8,27.9,7.3,27c0.3-0.4,0.4-1.1,0.3-1.6    c3.5-0.4,7.4-0.6,8.7-0.6c2.4-0.1,3.6,0,4-0.8c0.4-0.7-1.6-1.3-4.4-6.9s0.1-11.8,1-13.3c0.8-1.3,4.7-1.7,7.7-1.2    c-0.2,0-0.3,0.1-0.5,0.1c-0.7,0.2-1.2,0.9-0.9,1.6c0.3,0.8,1.4,1.2,2.2,0.8c0.8-0.4,0.9-1.5,0.3-2.1c-0.1-0.1-0.2-0.2-0.4-0.3    c0.1,0,0.3,0.1,0.4,0.1c0.8,0.2,1.7,0.4,2.6,0.7c-0.5,0.3-1,0.5-1.4,0.9c-0.3,0.3-0.6,0.7-0.4,1.1c0.4,1,2,1.8,2.9,1.1    c0.6-0.4,1.1-1.5,1.1-2.5c1.7,0.5,3.4,1.3,5,2.4c0,0,3.4-2.8,5.8-0.5c2.4,2.2-1.7,6.9-1.7,6.9s0.4,1.8,0.1,3.8    c-0.3,2-0.5,4,3.1,6.1c3.6,2.1,5.4,6.1,6.4,8.6c1,2.5,2.1,6.4,6.4,9.3c0.6,0.4,1.3,0.9,2,1.3c3.9,2.7,8.5,5.9,10.7,8.5    c2.6,3,3.9,5.8,9.5,8.7c5.6,2.8,9.5,5.9,12.1,11.9c2.6,6,1.5,10.9,4,16.2c2.6,5.3,4.7,7.3,4.6,8.6c0,1.3-1.4,1.9-2.4,1.6    c-1.1-0.3-5.5-4.7-6.7-7.7c-1.2-3.1-1.6-11.2-4.4-16.8C82,67.2,78.1,65,75,63.4c-3.1-1.6-4.7-2.8-5-2c-0.3,0.8,0.9,2.7-0.7,7.6    c-1.6,4.9-4.4,8.5-2.9,12.5s3.3,8.3,3.7,11.5c0.3,3.1-0.8,4.2-2.6,3.4c-1.8-0.8-2.4-6-4.4-9.2c-1.5-2.4-3.8-4.7-5.6-6.3    c-0.5-0.5-1.1-1-1.5-1.4c-1.8-1.7-2.6-4.7-3.4-7.4c-0.8-2.6-1.2-5.8-4.3-7.7c-3-2-7.1-6.3-10.3-11.2c-3.3-4.9-4.8-8.7-7.4-10.8    c-2.6-2.2-5.9-4-8.3-4.8c-2.4-0.8-3.4-1.1-5.2-1.2c-2-0.2-5.4,0.2-8,0.6c0,0,0,0,0,0c0.4-0.4,1-0.9,1-1.5c0-0.4-0.3-0.8-0.7-1    c-0.6-0.3-1.5-0.1-2.1,0.3c-0.3,0.1-0.5,0.2-0.6,0.5c-0.3,0.5-0.1,1.2,0.2,1.6C6.9,37,7,37.1,7.1,37.2c-0.3,0-0.6,0.1-0.8,0.1    c-2.2,0.4-5.4-0.5-4.3-2.2C3.1,33.3,11.9,30.7,13,30.4L13,30.4z M16.8,4.4c-0.5,0.9,0.1,1.7,0.4,1.9C17.1,6.5,17,6.8,16.9,7    c0,0.1-0.1,0.2-0.1,0.3c-0.1,0.1-0.2,0.3-0.3,0.4c-0.2,0.4-0.5,0.7-0.8,0.9c-0.2,0.1-0.4,0.3-0.6,0.3C15.1,9,15,9,15,9    c0,0,0,0.1,0.1,0.1c0.2,0,0.4,0,0.6-0.1C16,9,16.3,8.7,16.5,8.4c0,0.1,0,0.1,0,0.2c0,0.3,0,0.6,0,0.9c0.1,0.3,0.3,0.6,0.5,0.8    c0.3,0.3,0.8,0.4,1.2,0.3c0.4-0.1,0.7-0.4,0.9-0.7c0.1-0.1,0.1-0.2,0.1-0.3c0,0-0.1,0-0.2,0.1c-0.3,0.4-0.7,0.7-1.2,0.6    c-0.4,0-0.7-0.4-0.8-0.7c-0.1-0.4-0.1-0.8,0-1.2c0.1-0.3,0.2-0.7,0.3-1c0,0,0-0.1,0-0.1v0c0-0.1,0.1-0.2,0.1-0.3    c0.1-0.2,0.1-0.3,0.2-0.5c0.5,0.1,1.5-0.2,1.7-0.8C19.5,4.8,17.2,3.6,16.8,4.4z M94.5,95.9c0.4,0,0.8-0.2,0.9-0.6    c0.1-0.4,0.2-0.7,0.3-1.1c0.1-0.3,0.3-0.5,0.3-0.9c0-0.4-0.3-0.7-0.6-0.8c-0.5-0.1-1.1,0.1-1.5,0.5c-0.3,0.3-0.4,0.7-0.4,1.1    C93.5,94.8,93.7,95.8,94.5,95.9z M91.6,90.1c0,0.4,0.1,0.9,0.4,1.2c0.7,0.8,1.5,0.3,1.9-0.5c0.3-0.7,0.2-1.2-0.2-1.5    c-0.4-0.6-1.3-1.2-1.9-0.5C91.5,89.1,91.5,89.7,91.6,90.1z M88,80.8c0,0.1,0.1,0.2,0.1,0.3c0.1,0.4,0.1,0.8,0.2,1.2    c0.1,1,0.9,2.4,2.1,1.8c0.5-0.3,0.6-0.8,0.5-1.3c-0.1-0.5,0.1-0.9,0.2-1.4c0.1-0.3,0.1-0.5,0-0.8c-0.2-0.8-0.9-1.2-1.6-1.1    c0,0,0,0,0,0c-0.5,0-1.1,0.1-1.4,0.6C88,80.2,88,80.5,88,80.8z M87,76.1c0.3,1,1.6,1.5,2.5,1c0.9-0.5,1-2,0.3-2.7    c-0.5-0.4-1.4-0.4-2,0C87.2,74.7,86.8,75.4,87,76.1z M83,68.8c0.2,0.3,0.6,0.4,0.9,0.5c0.4,0.2,0.6,0.4,0.8,0.9    c0,0.1,0,0.3,0.1,0.4c0.2,0.4,0.7,0.7,1.2,0.6c1.5-0.2,1.3-2.2,0.7-3.1c-0.7-1-1.8-1.3-2.9-1c-0.4,0-0.7,0.1-0.9,0.5    C82.6,68,82.7,68.4,83,68.8z M78.9,64.3c0.5,0.5,1.3,0.9,2.1,0.7c0.6-0.2,1.1-0.8,1.1-1.4c-0.1-0.9-1-1.3-1.6-1.8    c-0.6-0.5-1-1.6-1.9-1.5c-0.1,0-0.2,0-0.2,0.1c0,0,0,0-0.1,0C76.6,61.1,77.9,63.4,78.9,64.3z M71.2,60.3c0.9,0.8,2.9,1.1,3-0.6    c0-1.1-1-1.3-1.5-2.1c-0.4-0.7-0.3-1.5-1.2-1.9c-0.6-0.3-1.4,0.3-1.7,0.9C69.2,57.8,70.3,59.5,71.2,60.3z M15,27.8    c-0.1-0.5-0.5-0.9-1.1-0.9c-0.6-0.1-1.2,0.4-1.7,0.6c-0.4,0-0.9,0-1.1,0.3c-0.3,0.3-0.2,0.9-0.1,1.2c0.1,0.4,0.5,0.7,0.9,0.6    c0.2,0,0.4-0.2,0.7-0.3c0.4-0.1,0.7,0.1,1.1,0.1C14.7,29.6,15.3,28.7,15,27.8z M18.3,26.3c-0.2-0.2-0.4-0.2-0.7-0.1    c-0.2,0.1-0.3,0.2-0.5,0.4c-0.2,0.1-0.5,0.1-0.6,0.3c-0.1,0.2-0.1,0.5,0,0.7c0.3,0.5,1.1,0.5,1.6,0.2    C18.5,27.4,18.7,26.7,18.3,26.3z M22,4c-0.2-0.1-0.5-0.1-0.7,0.1c-0.2,0.1-0.4,0.3-0.4,0.6c0,0.1-0.1,0.2-0.1,0.3    c0,0.3,0.1,0.5,0.4,0.6c0.6,0.3,1.1-0.3,1.2-0.8C22.3,4.4,22.2,4.1,22,4z M24.2,5.7c-0.3-0.3-0.7-0.3-1.1-0.2    c-0.3,0.1-0.5,0.3-0.6,0.5c-0.1,0.1-0.2,0.2-0.2,0.3c-0.1,0.3,0,0.7,0.2,1c0.3,0.2,0.7,0.2,1,0c0.3-0.2,0.7-0.4,0.8-0.7    C24.4,6.3,24.4,6,24.2,5.7z M27.7,8.4c-0.1-0.4-0.4-0.8-0.7-1c-0.3-0.2-0.9-0.3-1.3-0.2c-0.5,0.2-0.9,0.6-1.1,1    c0,0.1,0,0.2,0,0.2c0,0,0.1,0,0.2-0.1c0.2-0.2,0.5-0.5,0.8-0.6c0.2-0.1,0.5-0.2,0.8-0.2c0.3,0,0.5,0.1,0.7,0.3    c0.2,0.2,0.4,0.5,0.5,0.8c0.1,0.3,0,0.6-0.1,0.9l0,0c0,0.1,0,0.1,0,0.2c0,0.1,0,0.2,0,0.3c0,0,0.1,0,0.2-0.1    c0.1-0.1,0.1-0.2,0.2-0.3C27.7,9.3,27.8,8.9,27.7,8.4z M24.5,14.8c0.1,0.4,0.4,0.7,0.7,0.8c0.9,0.4,2-0.4,2-1.3    c0-0.8-0.6-1.5-1.4-1.4c-0.2,0-0.5,0.1-0.7,0.3C24.6,13.5,24.3,14.2,24.5,14.8z M30.3,9.2c0,0.5,0.4,1,0.9,0.9c0,0,0,0,0,0    c0.2,0,0.4-0.1,0.5-0.3c0.3-0.5,0-1.1-0.5-1.2C30.8,8.3,30.3,8.7,30.3,9.2z M34.3,7.2c-0.3-0.9-1.7-1.8-2.5-1    c-0.1,0.1-0.2,0.3-0.3,0.4c-0.1,0.2-0.1,0.5-0.1,0.7c0,0.1,0,0.2,0.1,0.2c0,0,0,0.1,0,0.1c0.1,0.3,0.4,0.5,0.6,0.7    c0.1,0.1,0.2,0.1,0.3,0.1c0.5,0.2,1,0.3,1.4,0C34.3,8.1,34.5,7.6,34.3,7.2z M34.7,23.7c-0.2,0.8-0.4,1.9,0.5,2.2    c0.3,0.1,0.7,0,0.9-0.2c0.2-0.2,0.2-0.3,0.2-0.5c0.1-0.3,0.2-0.5,0.4-0.8c0-0.1,0.1-0.1,0.2-0.2c0.2-0.4,0-0.7-0.3-0.9    c-0.3-0.3-0.5-1-1-1.1C35,22,34.8,23,34.7,23.7z M36,18.2c-0.1,0.4-0.2,0.7-0.2,1.2c0,0.6,0.1,1.7,0.6,2.2c1.5,1.2,2-1.7,2.2-2.4    c0.2-1-0.4-2.8-1.7-2.3C36.3,17,36,17.5,36,18.2z M40.3,8.4c-0.1-1-1.3-1.6-2.2-1.2c-1.2,0.6-0.9,2.2,0.2,2.7    C39.4,10.5,40.5,9.5,40.3,8.4z M41.3,24.4c-0.4-0.1-0.6,0-1,0.1c-0.5,0.1-0.9,0.1-1.4,0.2c-0.6,0.2-1.3,0.6-1.4,1.2    c-0.1,0.5,0.4,1.2,0.8,1.5c0.7,0.4,1.3-0.4,1.9-0.6c1,0.1,1.1,0.8,1.5,1.5c0.1,0.2,0.2,0.3,0.4,0.4c0.5,0.2,0.9-0.2,1.1-0.7    C43.7,26.8,42.7,24.6,41.3,24.4z M47.3,33.3c-0.3-0.8-1.1-2.4-2-2.6c-0.8-0.2-1.7,0.7-2.2,1.2c-0.5,0.5-0.7,1.1-1,1.7    c-0.4,0.6-1,1-1.4,1.6c-0.6,1,0,1.1,0.7,1.7c0.7,0.6,1.3,1.6,2.3,1.2c0.3-0.1,0.5-0.3,0.7-0.6c0.2-0.2,0.2-0.6,0.2-1    c0-0.1,0-0.2,0.1-0.3c0.1-0.5,0.4-1,0.9-1.2c0.2-0.1,0.4,0,0.6-0.1C46.9,34.7,47.6,34.1,47.3,33.3z M50.7,38.3    c-0.4-0.4-1.1-1.4-1.8-1.3c-0.3,0-0.6,0.2-0.9,0.5c-1.3,0.7-1,2.1-0.6,3.4c0.4,1.2,1.6,1.9,2.6,0.9c0.3-0.4,0.5-0.8,0.8-1.2    c0.2-0.3,0.5-0.6,0.6-0.9C51.4,39.1,51.1,38.7,50.7,38.3z M54.2,41.6c-0.3-0.8-0.9-0.7-1.5-0.4c-0.7,0.2-1.4,0.9-1.1,1.7    c0.1,0.3,0.3,0.5,0.7,0.4c0.3-0.1,0.4-0.3,0.8-0.2c0.2,0.1,0.3,0.3,0.5,0.3C54.5,43.5,54.4,42.1,54.2,41.6z M59.4,44.5    c-0.5-1-1.2-0.9-1.9-0.4c-0.3,0.2-0.6,0.5-0.9,0.7c-0.3,0.2-0.5,0.4-0.7,0.9c-0.2,0.6-0.5,1.2-0.1,1.8c0.3,0.6,1.1,0.8,1.7,0.4    c0.2-0.1,0.3-0.3,0.4-0.5c0.2-0.5,0.1-1.3,0.7-1.6c0.2-0.1,0.4,0,0.6-0.2C59.6,45.4,59.6,44.9,59.4,44.5z M66,63    c0.1-0.4,0.4,0,0.7,0c0.3,0,0.4,0.1,0.7,0c0.6-0.3,0.6-1.2,0.4-1.8c-0.6-1.6-2.1-0.7-3.1,0.2c-0.7,0.5-1.5,1.3-1.7,2.1    c-0.2,0.7,0.3,1.4,0.8,1.9c1.3,1.2,2.6-0.2,2.5-1.6C66.1,63.5,65.9,63.1,66,63L66,63z M64.7,60.2c0.5-0.6,0.9-1.9,0-2.4    c-0.8-0.5-1.6,0.9-2,1.4c-0.4,0.4-0.7,0.9-0.1,1.5C63.3,61.3,64.3,60.8,64.7,60.2z M62.3,67.1c-0.6-0.3-1.1,0-1.5,0.4    c-0.5,0.4-1.4,1.4-0.6,1.9c0.4,0.2,0.6-0.1,1-0.2c0.4-0.1,0.8,0.1,1.2-0.2C62.9,68.6,63,67.4,62.3,67.1z M60.3,66.5    c0.2-0.1,0.4-0.2,0.6-0.4c0.3-0.2,0.6-0.3,0.9-0.5c0.8-0.6,0.9-2,0-2.5c-0.8-0.6-1.6,0-2.1,0.7c-0.6,0.7-1.2,1.6-0.5,2.4    C59.5,66.5,59.9,66.6,60.3,66.5z M59,59.1c0.1,0,0.1,0,0.2,0.1c0.5,0.5,0.7,1.4,1.5,1.5c0.5,0,0.8-0.4,0.9-0.8    c0.3-1.5-0.7-2.9-2.1-3.3c-0.8-0.2-1.2,0.1-1.9,0.3c0,0,0,0,0,0c-0.5,0.1-1,0.2-1.2,0.7c-0.1,0.5,0.1,1,0.5,1.2    c0.2,0.1,0.5,0.2,0.7,0.2c0.1,0,0.3,0,0.4,0C58.4,59.1,58.6,59,59,59.1z M59.3,50.1c-0.3,0.2-0.5,0.4-0.6,0.7    c-0.1,0.3-0.1,0.6-0.2,1c-0.1,0.4-0.2,0.5-0.4,0.7c-0.2,0.2-0.3,0.5-0.3,0.8c0.1,1.4,1.7,1.1,2.6,0.7c1.4-0.8,2-2,1.2-3.6    C61.1,49.4,60,49.5,59.3,50.1z M62.7,46.6c-0.5-0.3-1.1,0.2-1.5,0.7c-0.3,0.2-0.6,0.5-0.7,0.8c-0.1,0.4,0.2,0.8,0.5,1.1    c0.6,0.6,1.4,0.5,1.8-0.3C63.2,48.3,63.5,47.1,62.7,46.6z M63.7,53.2c-0.2-0.3-0.6-0.3-0.9-0.1c-0.2,0.1-0.3,0.3-0.5,0.5    c-0.1,0.1-0.2,0.2-0.3,0.3c-0.2,0.1-0.5,0.2-0.6,0.4c-0.3,0.2-0.3,0.6-0.2,0.9c0.3,0.9,1.5,0.9,2.2,0.4c0.4-0.3,0.6-0.7,0.7-1.2    C64.1,54.1,64,53.5,63.7,53.2z M68.6,53.1c-0.3-0.9-1.1-0.9-1.8-1.3c-0.4-0.2-0.7-0.4-1-0.2c-0.6,0.1-1.2,0.4-1.4,0.9    c-0.3,0.7,0.1,1.4,0.2,2.1c0.1,0.6-0.1,1.2,0.5,1.7c0.5,0.4,1.3,0.4,1.8,0.2C68.1,56,69.2,54.5,68.6,53.1z M68.8,64.2    c-0.5-0.6-1.3,0.1-1.8,0.7c-0.8,0.8-1.9,2-1.3,3c0.2,0.3,0.5,0.4,0.9,0.3c0.3-0.1,0.6-0.4,0.9-0.6c0.3-0.2,0.7-0.3,1.1-0.5    C69.3,66.6,69.5,64.9,68.8,64.2z M66.9,70.7c0.4-0.2,0.7-0.6,0.6-1.1c-0.5-1.7-2.8-0.6-3.9-0.1c0,0-0.1,0-0.1,0.1    c0,0-0.1,0-0.1,0.1c0,0-0.1,0-0.1,0.1c-0.2,0.1-0.4,0.3-0.5,0.5c-0.4,0.7-0.5,1.6-0.3,2.4c0.3,1.5,2.1,1.6,2.9,0.4    c0.2-0.4,0.2-0.8,0.3-1.2C65.8,70.9,66.4,71,66.9,70.7z M66.9,92.3c0,0.2,0.1,0.4,0.2,0.6c0.1,0.2,0.1,0.5,0.3,0.8    c0.5,0.6,1.2,0.2,1.4-0.4c0.3-0.7,0.3-1.7-0.3-2.2c-0.5-0.5-1-0.1-1.3,0.4C67.1,91.8,66.9,92.1,66.9,92.3z M65,87.9    c0.1,0.7,0.8,1.2,1.1,1.8c0.2,0.4,0.4,0.8,1,0.9c0.5,0,0.9-0.3,1.1-0.6c0.6-1.1,0-3.2-1-3.8c-0.9-0.6-1.5,0-1.9,0.8    C65.1,87.2,64.9,87.6,65,87.9z M63.2,85.3c0.9,0.7,2.2,0.2,2-1.1c0-0.2-0.1-0.4-0.1-0.6c0-0.4,0.1-0.7,0.2-1.1    c0.1-0.3,0.1-0.7,0-1c-0.1-0.5-0.4-1.1-1-1.3c-1.2-0.4-1.6,0.8-1.8,1.8C62.2,83.3,62.2,84.5,63.2,85.3z M60.4,81.7    c0.8,0.6,1.4-0.3,1.6-1c0.1-0.4,0-0.8-0.2-1.1c-0.1-0.3-0.3-0.7-0.7-0.8C59.7,78.6,59.6,81.1,60.4,81.7z M58.4,78    c0.3,0.1,0.4,0,0.6-0.1c0.4-0.1,0.8-0.3,1.3-0.1c0.5,0.2,1,1,1.5,1.3c0.6,0.4,1.3,0.5,1.8-0.1c1.2-1.3,0-4.2-1.6-4.6    c-0.9-0.2-1.9,0.3-2.6,0.8c-0.4,0.3-0.8,0.6-1,0.9c-0.2,0.2-0.3,0.4-0.4,0.6C57.8,77.2,57.8,77.8,58.4,78z M54.9,72.3    c0.3,1.2,1.5,1.9,2.7,2c0.5,0.1,1.1,0,1.5-0.1c1.5-0.4,2.9-2.2,1.6-3.6c-0.5-0.5-1.2-0.7-1.9-0.4c-0.3,0.1-0.6,0.4-0.9,0.6    c-0.1,0-0.2,0-0.3,0c-0.4-0.1-0.8-0.4-1.2-0.5c-0.3,0-0.6,0.1-0.8,0.2C54.9,70.9,54.7,71.6,54.9,72.3z M52.7,63.4    c0.2,0.3,0.4,0.4,0.7,0.5c0.5,0.2,1,0.4,1.2,1c0,0.2-0.1,0.5-0.1,0.7c0.1,0.6,0.7,0.9,1.2,0.9c0.8,0,1.4-0.4,1.8-1    c0.5-0.8,0.6-1.8,0.2-2.6c-0.1-0.1-0.1-0.3-0.2-0.4c-0.7-1.2-1.5-1.8-3-1.7c-0.5,0-1,0.3-1.4,0.6C52.5,61.9,52.3,62.7,52.7,63.4z     M52.2,54.9c0.8,1.2,2.8,0.6,3.6-0.2c0.9-0.9,1.7-2.9,0.4-3.9c-0.4-0.3-0.8-0.3-1.1-0.1c-0.2,0.2-0.3,0.4-0.4,0.7    c-0.2,0.3-0.3,0.6-0.5,0.8C53.2,52.9,51.5,53.8,52.2,54.9z M52.4,49.7c0.9,0,2.1-0.3,2.4-1.2c0.3-0.8-0.1-1.9-0.7-2.5    c-0.5-0.7-1.5-1.2-2.4-1c-0.7,0.2-1.4,0.6-2,1.1c-0.9,0.4-2.1,0.9-2.4,1.7c-0.3,0.6,0,1.7,0.6,2.1c0.8,0.5,1.6-0.1,2.2-0.5    c0.1-0.1,0.1-0.1,0.2-0.2c0.5-0.2,0.8-0.2,0.7,0.2c0.1,0.1,0.1,0.2,0.2,0.3C51.5,49.8,52.1,49.7,52.4,49.7z M48.4,62.5    c0.2,0.3,0.6,0.5,0.9,0.4c0.2,0,0.3-0.1,0.5-0.2c0.3-0.2,0.6-0.4,0.9-0.5c0.7-0.3,0.9-1.4,0.3-1.9c-0.5-0.4-1.1-0.3-1.6,0    c0,0-0.1,0-0.1,0c-0.4,0.3-0.8,0.5-1,1C48.1,61.6,48.1,62.1,48.4,62.5z M46.9,57.3c0.2,0.2,0.5,0.2,0.8,0.2c0.4,0,0.8,0,1.3,0    c0.6,0,1.1-0.1,1.4-0.7c0.5-1.1-0.5-3.1-1.7-3.4c-0.8-0.2-1.4,0.3-1.7,0.9C46.3,55.2,46,56.6,46.9,57.3z M45.9,44.1    c0.3-0.2,0.8-0.5,0.9-0.8c0.1-0.3,0-1-0.1-1.3c-0.1-0.3-0.4-0.6-0.8-0.7c-0.4,0-0.7,0.4-1.1,0.5c-0.3-0.1-0.6-0.1-0.8,0.2    c-0.2,0.3,0,1,0.1,1.4C44.4,44.3,45.1,44.5,45.9,44.1z M41.8,54.9c0.3,0.3,0.8,0.4,1.2,0.2c0.2-0.1,0.4-0.3,0.5-0.5    c0.2-0.2,0.2-0.3,0.4-0.5c0.3-0.3,0.3-0.2,0.6-0.3c1.2-0.4,0.3-1.9-0.4-2.3c-0.8-0.4-1.4-0.4-1.9,0c0,0,0,0,0,0    c-0.6,0.4-1.1,0.9-1.1,1.7C41.2,53.8,41.4,54.5,41.8,54.9z M39.4,48.6c0,0.5,0.1,1.1,0.6,1.4c1,0.8,1.8-0.6,1.9-1.4    c0.1-0.9-0.7-2.3-1.7-1.7c-0.4,0.2-0.7,0.7-0.8,1.2c0,0,0,0.1,0,0.1C39.4,48.4,39.4,48.5,39.4,48.6z M38.3,43.8    c0.3,0.4,0.9,0.7,1.4,0.8c0.5,0.1,0.9-0.2,1.1-0.6c0.2-0.3,0.2-0.6,0.2-1c0.1-0.5,0.3-0.8,0.5-1.2c0.4-1.1-1.1-2.4-2.1-2.3    c-0.5,0-1,0.3-1.1,0.9c-0.1,0.5,0.2,1.1,0.3,1.6C38.6,42.6,37.9,43.2,38.3,43.8z M38.5,33.7c1.1-0.3,1.5-2.1,1.4-3.1    c-0.1-0.4-0.3-0.9-0.8-0.9c-0.3,0-0.4,0.1-0.6,0.2c-0.2,0.2-0.3,0.3-0.5,0.4c-0.4,0.1-0.8,0.1-1,0.6c-0.2,0.4-0.3,0.8-0.6,1.1    c-0.1,0.2-0.2,0.4-0.2,0.6c0.2,0.6,0.7,0.3,1.1,0.5C37.7,33.5,37.9,33.8,38.5,33.7z M37.7,36.6c-0.2-0.5-0.5-1.1-1-1.3    c-0.3-0.1-0.7,0-1-0.1c-0.2,0-0.3-0.1-0.5-0.2c-0.2-0.2-0.5-0.2-0.8,0c-0.5,0.4-1,1.4-1.2,2c-0.1,0.4,0,0.8,0.4,1    c0.4,0.2,0.9,0.2,1.3,0.4c0.3,0.2,0.7,0.3,1,0.4C37.3,39,38,37.8,37.7,36.6z M34.2,44.5c1.3-0.2,2-2.3,2-3.4c0-0.5-0.1-1-0.5-1.3    c-0.4-0.2-0.9-0.1-1.3,0c-0.5,0-0.8-0.1-1.1,0.3c-0.5,0.6-0.5,1.4-0.6,2.1C32.6,43.2,32.9,44.7,34.2,44.5z M31.8,33.1    c0.2,0.7,0.9,1.2,1.5,0.6c0.6-0.5,0.4-1.5,0-2c-0.3-0.5-1.1-0.7-1.5-0.3c-0.2,0.1-0.3,0.2-0.4,0.4C31.5,32.2,31.7,32.7,31.8,33.1    z M33,28.8c0.9-0.6,1.3-2,0.6-3c-0.2-0.4-0.6-0.7-1.1-0.6c-0.5,0.1-0.8,0.7-1.1,1.2c-0.5,0.3-1.4,0.1-1.6,0.8    c-0.2,0.5,0,1,0.3,1.3C30.8,29.3,32.1,29.4,33,28.8z M27.2,36.9c0.1,0.2,0.2,0.4,0.4,0.6c0.1,0.1,0.2,0.1,0.3,0.1    c0.4,0.2,0.6,0.3,1,0.6c0.9,0.8,2.2,0.4,2.3-0.8c0-1.2-1.1-2.4-2.3-2.5c-0.8-0.1-1.5,0.5-1.7,1.2C27.1,36.3,27.1,36.6,27.2,36.9z     M24.5,33.1c0.3-0.1,0.6-0.4,0.8-0.6c0.5-0.6,1-0.5,1.7-0.7c1.4-0.4,1.6-2,0.3-2.7c-1.1-0.6-2.4-0.2-3.3,0.5    c-1,0.8-1.9,2-0.9,3.1C23.4,33.1,24,33.3,24.5,33.1z M20.6,35.9c0.4-0.2,0.7-0.6,1.1-0.7c0.3-0.1,0.7,0,1,0    c0.4,0,0.8-0.2,0.8-0.7c0.1-0.9-1.1-1.3-2-1.4c0,0-0.1,0-0.1,0c-1.1-0.2-2.5,0.4-2.7,1.6C18.6,35.7,19.7,36.4,20.6,35.9z     M20.7,32.1c1-0.6,2-2,1.3-3.2c-0.2-0.4-0.7-0.7-1.2-0.6c-0.6,0.1-0.7,0.8-1.1,1.2c-0.6,0.2-1.5-0.3-2,0.1    c-0.4,0.3-0.6,0.8-0.4,1.3C17.7,32.1,19.6,32.7,20.7,32.1z M13.9,35.5c0.3,0.8,1.9,0.4,2.4,0.3c0.7-0.2,1.5-1.1,1-1.9    c-0.2-0.3-0.6-0.4-0.9-0.3c-0.5,0.1-0.9,0.5-1.4,0.7c-0.1,0-0.2,0-0.3,0c-0.2,0-0.3,0.1-0.4,0.2C14,34.8,13.8,35.2,13.9,35.5z     M10,33.3c0.2,0.4,0.6,0.7,1.1,0.7c0.7,0,1.1-0.8,1.8-0.8c0.9,0,2.6-0.7,1.9-1.9c-0.6-1.1-2.4-0.4-3.4,0    c-0.4,0.1-0.8,0.2-1.1,0.5C10,32.2,9.8,32.8,10,33.3z"></path>		</g>		<g>			<path class="wdt-custom-heading-animal-icon-class-2" d="M25.1,13.2c0.2-0.1,0.4-0.2,0.7-0.3c0.8-0.1,1.4,0.7,1.4,1.4c0,0.9-1.1,1.7-2,1.3    c-0.4-0.2-0.6-0.5-0.7-0.8C24.3,14.2,24.6,13.5,25.1,13.2z"></path>		</g>		<g>			<path class="wdt-custom-heading-animal-icon-class-3" d="M27.4,9.9c0,0.1-0.1,0.1-0.2,0.1c0-0.1,0-0.2,0-0.3c0,0,0-0.1,0-0.2l0,0    c0.1-0.3,0.1-0.6,0.1-0.9c-0.1-0.3-0.2-0.6-0.5-0.8c-0.2-0.2-0.5-0.3-0.7-0.3c-0.3,0-0.5,0.1-0.8,0.2c-0.3,0.2-0.5,0.4-0.8,0.6    c0,0-0.1,0.1-0.2,0.1c0,0,0-0.1,0-0.2c0.3-0.4,0.6-0.8,1.1-1c0.4-0.2,0.9-0.1,1.3,0.2c0.4,0.2,0.6,0.6,0.7,1    c0.1,0.4,0,0.8-0.1,1.2C27.6,9.7,27.5,9.9,27.4,9.9L27.4,9.9z"></path>			<path class="wdt-custom-heading-animal-icon-class-3" d="M17.5,6.4c-0.1,0.2-0.1,0.3-0.2,0.5c0,0.1-0.1,0.2-0.1,0.3c0,0,0,0,0,0c0,0,0,0.1,0,0.1    c-0.1,0.3-0.2,0.7-0.3,1c-0.1,0.4-0.1,0.8,0,1.2c0.1,0.4,0.5,0.7,0.8,0.7c0.4,0.1,0.9-0.2,1.2-0.6c0.1-0.1,0.2-0.1,0.2-0.1    c0,0,0,0.2-0.1,0.3c-0.2,0.3-0.5,0.6-0.9,0.7c-0.4,0.2-0.9,0-1.2-0.3c-0.2-0.2-0.4-0.5-0.5-0.8c-0.1-0.3-0.1-0.6,0-0.9    c0-0.1,0-0.1,0-0.2C16.3,8.7,16,9,15.7,9.1c-0.2,0.1-0.4,0.1-0.6,0c0,0-0.1-0.1-0.1-0.1c0,0,0.1-0.1,0.1-0.1    c0.2,0,0.4-0.1,0.6-0.3c0.3-0.2,0.5-0.6,0.8-0.9c0.1-0.1,0.2-0.3,0.3-0.4c0-0.1,0.1-0.2,0.1-0.3c0.1-0.2,0.2-0.5,0.3-0.7    c-0.4-0.2-1-1-0.4-1.9c0.4-0.8,2.7,0.4,2.5,1.2C19,6.2,18.1,6.5,17.5,6.4L17.5,6.4z"></path>			<path class="wdt-custom-heading-animal-icon-class-3" d="M54.9,72.3c0.3,1.2,1.5,1.9,2.7,2c0.5,0.1,1.1,0,1.5-0.1c1.5-0.4,2.9-2.2,1.6-3.6    c-0.5-0.5-1.2-0.7-1.9-0.4c-0.3,0.1-0.6,0.4-0.9,0.6c-0.1,0-0.2,0-0.3,0c-0.4-0.1-0.8-0.4-1.2-0.5c-0.3,0-0.6,0.1-0.8,0.2    C54.9,70.9,54.7,71.6,54.9,72.3z"></path>			<path class="wdt-custom-heading-animal-icon-class-3" d="M56.8,58.8c0.2,0.1,0.5,0.2,0.7,0.2c0.1,0,0.3,0,0.4,0c0.4,0,0.6-0.1,1.1,0.1    c0.1,0,0.1,0,0.2,0.1c0.5,0.5,0.7,1.4,1.5,1.5c0.5,0,0.8-0.4,0.9-0.8c0.3-1.5-0.7-2.9-2.1-3.3c-0.8-0.2-1.2,0.1-1.9,0.3    c0,0,0,0,0,0c-0.5,0.1-1,0.2-1.2,0.7C56.2,58.1,56.5,58.6,56.8,58.8z"></path>			<path class="wdt-custom-heading-animal-icon-class-3" d="M52.2,54.9c-0.7-1.1,1-2,1.9-2.7c0.2-0.2,0.4-0.5,0.5-0.8c0.1-0.2,0.2-0.5,0.4-0.7    c0.4-0.3,0.8-0.2,1.1,0.1c1.3,0.9,0.5,3-0.4,3.9C55,55.5,53,56.1,52.2,54.9L52.2,54.9z"></path>			<path class="wdt-custom-heading-animal-icon-class-3" d="M48.7,53.4c1.2,0.3,2.1,2.3,1.7,3.4c-0.2,0.6-0.8,0.7-1.4,0.7c-0.4,0-0.8,0-1.3,0    c-0.3,0-0.5,0-0.8-0.2c-0.9-0.7-0.6-2.2,0-3C47.3,53.7,47.9,53.2,48.7,53.4z"></path>			<path class="wdt-custom-heading-animal-icon-class-3" d="M49.3,60.2c0,0,0.1,0,0.1,0c0.5-0.3,1.1-0.4,1.6,0c0.6,0.5,0.5,1.7-0.3,1.9    c-0.3,0.1-0.6,0.3-0.9,0.5c-0.2,0.1-0.3,0.2-0.5,0.2c-0.4,0.1-0.7-0.1-0.9-0.4c-0.2-0.4-0.2-0.9-0.1-1.3    C48.4,60.7,48.8,60.4,49.3,60.2L49.3,60.2z"></path>			<path class="wdt-custom-heading-animal-icon-class-3" d="M42.2,51.5C42.2,51.5,42.2,51.5,42.2,51.5c0.5-0.4,1.2-0.5,1.9,0c0.7,0.4,1.6,1.9,0.4,2.3    c-0.3,0.1-0.3,0-0.6,0.3c-0.2,0.2-0.2,0.3-0.4,0.5c-0.2,0.2-0.3,0.3-0.5,0.5c-0.4,0.2-0.9,0.1-1.2-0.2c-0.4-0.4-0.6-1.1-0.6-1.7    C41.2,52.4,41.6,52,42.2,51.5L42.2,51.5z"></path>			<path class="wdt-custom-heading-animal-icon-class-3" d="M39.4,48.1c0.1-0.5,0.3-1,0.8-1.2c1-0.6,1.8,0.8,1.7,1.7c-0.1,0.8-1,2.2-1.9,1.4    c-0.4-0.3-0.5-0.9-0.6-1.4c0-0.1,0-0.2,0-0.4C39.4,48.2,39.4,48.2,39.4,48.1z"></path>			<path class="wdt-custom-heading-animal-icon-class-3" d="M38.3,40.4c0.1-0.5,0.6-0.8,1.1-0.9c1,0,2.5,1.2,2.1,2.3c-0.2,0.4-0.4,0.7-0.5,1.2    c-0.1,0.3-0.1,0.7-0.2,1c-0.2,0.4-0.6,0.6-1.1,0.6c-0.5-0.1-1.2-0.4-1.4-0.8c-0.4-0.7,0.3-1.2,0.3-1.9    C38.5,41.5,38.2,40.9,38.3,40.4L38.3,40.4z"></path>			<path class="wdt-custom-heading-animal-icon-class-3" d="M44.1,43.4c-0.1-0.3-0.2-1-0.1-1.4c0.2-0.3,0.5-0.3,0.8-0.2c0.4-0.1,0.6-0.5,1.1-0.5    c0.4,0,0.7,0.3,0.8,0.7c0.1,0.3,0.2,1,0.1,1.3c-0.1,0.3-0.6,0.6-0.9,0.8C45.1,44.5,44.4,44.3,44.1,43.4z"></path>			<path class="wdt-custom-heading-animal-icon-class-3" d="M52.4,49.7c-0.3,0-0.8,0.1-1.1-0.2c-0.1-0.1-0.1-0.2-0.2-0.3c0-0.4-0.2-0.5-0.7-0.2    c-0.1,0.1-0.1,0.2-0.2,0.2c-0.7,0.4-1.4,1-2.2,0.5c-0.6-0.4-0.9-1.4-0.6-2.1c0.3-0.8,1.5-1.3,2.4-1.7c0.6-0.5,1.3-0.9,2-1.1    c0.9-0.2,1.8,0.4,2.4,1c0.5,0.6,0.9,1.7,0.7,2.5C54.5,49.4,53.3,49.7,52.4,49.7L52.4,49.7z"></path>			<path class="wdt-custom-heading-animal-icon-class-3" d="M53.5,43.3c-0.2,0-0.3-0.2-0.5-0.3c-0.3-0.1-0.5,0.2-0.8,0.2c-0.3,0.1-0.5-0.1-0.7-0.4    c-0.3-0.8,0.4-1.5,1.1-1.7c0.6-0.3,1.3-0.4,1.5,0.4C54.4,42.1,54.5,43.5,53.5,43.3L53.5,43.3z"></path>			<path class="wdt-custom-heading-animal-icon-class-3" d="M50.7,40.5c-0.3,0.4-0.4,0.9-0.8,1.2c-1,1.1-2.2,0.4-2.6-0.9c-0.4-1.2-0.7-2.7,0.6-3.4    c0.2-0.3,0.5-0.5,0.9-0.5c0.7,0,1.4,0.9,1.8,1.3c0.4,0.4,0.7,0.8,0.6,1.3C51.2,39.9,50.9,40.2,50.7,40.5z"></path>			<path class="wdt-custom-heading-animal-icon-class-3" d="M46.2,34.9c-0.2,0.1-0.4,0-0.6,0.1c-0.5,0.2-0.8,0.6-0.9,1.2c0,0.1,0,0.2-0.1,0.3    c0,0.4-0.1,0.8-0.2,1c-0.2,0.3-0.4,0.5-0.7,0.6c-1,0.4-1.6-0.6-2.3-1.2c-0.7-0.6-1.2-0.7-0.7-1.7c0.3-0.6,1-1,1.4-1.6    c0.4-0.6,0.6-1.2,1-1.7c0.5-0.6,1.3-1.4,2.2-1.2c0.9,0.2,1.7,1.8,2,2.6C47.6,34.1,46.9,34.7,46.2,34.9L46.2,34.9z"></path>			<path class="wdt-custom-heading-animal-icon-class-3" d="M42.2,28.7c-0.2-0.1-0.3-0.2-0.4-0.4c-0.5-0.7-0.5-1.4-1.5-1.5c-0.6,0.2-1.2,0.9-1.9,0.6    c-0.5-0.3-0.9-0.9-0.8-1.5c0.1-0.6,0.8-1,1.4-1.2c0.5-0.1,0.9-0.1,1.4-0.2c0.4-0.1,0.6-0.2,1-0.1c1.4,0.2,2.4,2.4,2,3.7    C43.2,28.5,42.8,28.9,42.2,28.7L42.2,28.7z"></path>			<path class="wdt-custom-heading-animal-icon-class-3" d="M36.2,32.7c-0.1-0.2,0-0.4,0.2-0.6c0.2-0.4,0.4-0.7,0.6-1.1c0.2-0.5,0.6-0.5,1-0.6    c0.2-0.1,0.3-0.3,0.5-0.4c0.2-0.2,0.3-0.3,0.6-0.2c0.5,0,0.7,0.5,0.8,0.9c0.2,1-0.2,2.8-1.4,3.1c-0.6,0.2-0.8-0.1-1.1-0.4    C36.9,33,36.3,33.3,36.2,32.7z"></path>			<path class="wdt-custom-heading-animal-icon-class-3" d="M36.6,23.3c0.3,0.3,0.5,0.6,0.3,0.9c0,0.1-0.1,0.1-0.2,0.2c-0.2,0.3-0.3,0.5-0.4,0.8    c-0.1,0.2-0.1,0.4-0.2,0.5c-0.2,0.2-0.6,0.3-0.9,0.2c-0.9-0.3-0.7-1.4-0.5-2.2c0.1-0.8,0.3-1.7,0.9-1.5    C36.1,22.3,36.3,23,36.6,23.3z"></path>			<path class="wdt-custom-heading-animal-icon-class-3" d="M38.6,19c-0.2,0.7-0.8,3.6-2.2,2.4c-0.5-0.4-0.6-1.5-0.6-2.2c0-0.4,0-0.8,0.2-1.2    c0.1-0.6,0.3-1.2,0.9-1.4C38.3,16.2,38.9,18.1,38.6,19L38.6,19z"></path>			<path class="wdt-custom-heading-animal-icon-class-3" d="M33.9,8.4c-0.4,0.3-1,0.2-1.4,0c-0.1,0-0.2-0.1-0.3-0.1c-0.3-0.1-0.5-0.3-0.6-0.7    c0,0,0-0.1,0-0.1c0-0.1-0.1-0.2-0.1-0.2c0-0.3,0-0.5,0.1-0.7c0.1-0.2,0.1-0.3,0.3-0.4c0.8-0.8,2.2,0.1,2.5,1    C34.5,7.6,34.3,8.1,33.9,8.4L33.9,8.4z"></path>			<path class="wdt-custom-heading-animal-icon-class-3" d="M31.8,9.7c-0.1,0.2-0.3,0.3-0.5,0.3c0,0,0,0,0,0c-0.5,0.1-0.9-0.4-0.9-0.9    c0-0.5,0.5-0.8,0.9-0.7C31.7,8.6,32.1,9.3,31.8,9.7L31.8,9.7z"></path>			<path class="wdt-custom-heading-animal-icon-class-3" d="M29.4,6.7c-0.9,0.7-2.5-0.2-2.9-1.1c-0.2-0.4,0.1-0.8,0.4-1.1c0.4-0.4,0.9-0.6,1.4-0.9    c0.4,0.1,0.7,0.2,1.1,0.3c0,0,0,0,0.1,0c0.4,0.1,0.7,0.2,1.1,0.3C30.5,5.2,30,6.3,29.4,6.7L29.4,6.7z"></path>			<path class="wdt-custom-heading-animal-icon-class-3" d="M25.4,5.2c-0.8,0.4-1.9,0-2.2-0.8C22.8,3.7,23.3,3,24,2.8c0.2-0.1,0.3-0.1,0.5-0.1    c0.2,0,0.5,0.1,0.7,0.1c0.1,0.1,0.3,0.2,0.4,0.3C26.2,3.7,26.2,4.8,25.4,5.2L25.4,5.2z"></path>			<path class="wdt-custom-heading-animal-icon-class-3" d="M24.2,5.7c0.2,0.2,0.3,0.6,0.1,0.9c-0.2,0.3-0.5,0.6-0.8,0.7c-0.3,0.2-0.7,0.2-1,0    c-0.2-0.2-0.3-0.7-0.2-1c0-0.1,0.1-0.2,0.2-0.3c0.1-0.2,0.4-0.4,0.6-0.5C23.5,5.5,23.9,5.5,24.2,5.7L24.2,5.7z"></path>			<path class="wdt-custom-heading-animal-icon-class-3" d="M21.1,5.5c-0.2-0.1-0.4-0.4-0.4-0.6c0-0.1,0-0.2,0.1-0.3c0.1-0.2,0.2-0.5,0.4-0.6    C21.5,3.9,21.8,3.8,22,4c0.2,0.1,0.3,0.4,0.3,0.7C22.3,5.2,21.7,5.8,21.1,5.5L21.1,5.5z"></path>			<path class="wdt-custom-heading-animal-icon-class-3" d="M32.6,25.2c0.5-0.1,0.9,0.2,1.1,0.6c0.6,1,0.3,2.4-0.6,3c-0.9,0.6-2.2,0.5-2.9-0.3    c-0.3-0.4-0.5-0.9-0.3-1.3c0.3-0.6,1.1-0.5,1.6-0.8C31.7,25.9,32.1,25.3,32.6,25.2L32.6,25.2z"></path>			<path class="wdt-custom-heading-animal-icon-class-3" d="M31.9,31.4c0.4-0.4,1.1-0.2,1.5,0.3c0.4,0.6,0.6,1.5,0,2c-0.6,0.6-1.3,0-1.5-0.6    c-0.1-0.4-0.4-0.9-0.3-1.3C31.5,31.6,31.7,31.5,31.9,31.4z"></path>			<path class="wdt-custom-heading-animal-icon-class-3" d="M35.2,35c0.1,0.1,0.3,0.2,0.5,0.2c0.3,0.1,0.7,0,1,0.1c0.5,0.2,0.9,0.8,1,1.3    c0.3,1.2-0.4,2.4-1.8,2.1c-0.4-0.1-0.7-0.2-1-0.4c-0.4-0.2-0.9-0.2-1.3-0.4c-0.4-0.2-0.6-0.5-0.4-1c0.2-0.6,0.7-1.6,1.2-2    C34.7,34.8,34.9,34.9,35.2,35L35.2,35z"></path>			<path class="wdt-custom-heading-animal-icon-class-3" d="M34.3,39.8c0.4-0.1,0.9-0.2,1.3,0c0.5,0.3,0.6,0.8,0.5,1.3c0,1.1-0.7,3.2-2,3.4    c-1.3,0.2-1.6-1.3-1.5-2.3c0-0.7,0.1-1.6,0.6-2.1C33.6,39.7,33.9,39.8,34.3,39.8z"></path>			<path class="wdt-custom-heading-animal-icon-class-3" d="M31.2,37.3c0,1.3-1.4,1.6-2.3,0.8c-0.4-0.3-0.6-0.4-1-0.6c-0.1,0-0.2-0.1-0.3-0.1    c-0.2-0.1-0.4-0.3-0.4-0.6c-0.1-0.3-0.1-0.6,0.1-0.9c0.2-0.7,0.9-1.3,1.7-1.2C30.1,34.9,31.2,36.1,31.2,37.3L31.2,37.3z"></path>			<path class="wdt-custom-heading-animal-icon-class-3" d="M27,31.8c-0.7,0.2-1.1,0.1-1.7,0.7c-0.2,0.2-0.5,0.5-0.8,0.6c-0.5,0.2-1.1,0-1.5-0.4    c-1-1.1-0.1-2.3,0.9-3.1c0.9-0.8,2.2-1.1,3.3-0.5C28.6,29.8,28.4,31.4,27,31.8z"></path>			<path class="wdt-custom-heading-animal-icon-class-3" d="M21.5,33.1C21.5,33.1,21.5,33.1,21.5,33.1c1,0.1,2.2,0.5,2.1,1.4c0,0.5-0.4,0.7-0.8,0.7    c-0.3,0-0.7-0.1-1,0c-0.5,0.1-0.8,0.5-1.1,0.7c-0.9,0.5-2-0.2-1.8-1.2C18.9,33.5,20.4,32.9,21.5,33.1L21.5,33.1z"></path>			<path class="wdt-custom-heading-animal-icon-class-3" d="M22,28.9c0.7,1.2-0.3,2.6-1.3,3.2c-1.1,0.6-3,0-3.4-1.2c-0.2-0.5,0-1,0.4-1.3    c0.6-0.4,1.4,0.1,2-0.1c0.4-0.4,0.5-1.1,1.1-1.2C21.3,28.2,21.8,28.5,22,28.9L22,28.9z"></path>			<path class="wdt-custom-heading-animal-icon-class-3" d="M18.1,27.8c-0.5,0.3-1.3,0.3-1.6-0.2c-0.1-0.2-0.1-0.5,0-0.7c0.1-0.2,0.4-0.2,0.6-0.3    c0.2-0.1,0.3-0.3,0.5-0.4c0.2-0.1,0.5-0.1,0.7,0.1C18.7,26.7,18.5,27.4,18.1,27.8L18.1,27.8z"></path>			<path class="wdt-custom-heading-animal-icon-class-3" d="M13.7,29.5c-0.4-0.1-0.7-0.3-1.1-0.1c-0.2,0.1-0.4,0.3-0.7,0.3c-0.4,0.1-0.8-0.2-0.9-0.6    c-0.1-0.4-0.2-0.9,0.1-1.2c0.2-0.3,0.7-0.3,1.1-0.3c0.6-0.1,1.1-0.6,1.7-0.6c0.5,0.1,0.9,0.5,1.1,0.9    C15.3,28.7,14.7,29.6,13.7,29.5L13.7,29.5z"></path>			<path class="wdt-custom-heading-animal-icon-class-3" d="M14.8,31.3c0.6,1.2-1.1,1.8-1.9,1.9c-0.7,0-1.1,0.8-1.8,0.8c-0.5,0-0.9-0.3-1.1-0.7    c-0.2-0.5,0-1.1,0.4-1.5c0.3-0.3,0.7-0.4,1.1-0.5C12.4,31,14.2,30.3,14.8,31.3L14.8,31.3z"></path>			<path class="wdt-custom-heading-animal-icon-class-3" d="M17.3,33.9c0.5,0.8-0.3,1.6-1,1.9c-0.5,0.2-2.1,0.5-2.4-0.3c-0.1-0.3,0.1-0.7,0.4-0.9    c0.1-0.1,0.3-0.2,0.4-0.2c0.1,0,0.2,0,0.3,0c0.5-0.2,0.9-0.6,1.4-0.7C16.7,33.5,17.1,33.5,17.3,33.9L17.3,33.9z"></path>			<path class="wdt-custom-heading-animal-icon-class-3" d="M64.4,80.3c0.5,0.2,0.9,0.7,1,1.3c0.1,0.3,0,0.7,0,1c-0.1,0.3-0.2,0.7-0.2,1.1    c0,0.2,0.1,0.4,0.1,0.6c0.1,1.3-1.1,1.8-2,1.1c-1.1-0.8-1-2.1-0.7-3.3C62.8,81.1,63.2,79.8,64.4,80.3L64.4,80.3z"></path>			<path class="wdt-custom-heading-animal-icon-class-3" d="M61.1,78.8c0.4,0.1,0.5,0.5,0.7,0.8c0.2,0.4,0.3,0.7,0.2,1.1c-0.2,0.7-0.8,1.6-1.6,1    C59.6,81.1,59.7,78.6,61.1,78.8L61.1,78.8z"></path>			<path class="wdt-custom-heading-animal-icon-class-3" d="M58,76.7c0.1-0.2,0.2-0.4,0.4-0.6c0.3-0.4,0.6-0.7,1-0.9c0.7-0.5,1.7-1,2.6-0.8    c1.6,0.4,2.8,3.3,1.6,4.6c-0.5,0.6-1.2,0.4-1.8,0.1c-0.5-0.3-1-1.1-1.5-1.3c-0.5-0.2-0.9,0-1.3,0.1c-0.3,0-0.3,0.2-0.6,0.1    C57.8,77.8,57.8,77.2,58,76.7L58,76.7z"></path>			<path class="wdt-custom-heading-animal-icon-class-3" d="M60.8,67.5c0.4-0.4,1-0.7,1.5-0.4c0.7,0.4,0.6,1.5,0,1.9c-0.4,0.3-0.8,0-1.2,0.2    c-0.3,0.1-0.6,0.4-1,0.2C59.3,68.9,60.2,67.9,60.8,67.5L60.8,67.5z"></path>			<path class="wdt-custom-heading-animal-icon-class-3" d="M65.5,71.7c-0.1,0.4-0.1,0.8-0.3,1.2c-0.8,1.2-2.5,1.1-2.9-0.4c-0.2-0.8-0.1-1.7,0.3-2.4    c0.1-0.2,0.3-0.4,0.5-0.5c0,0,0,0,0.1-0.1c0,0,0.1,0,0.1-0.1c0,0,0.1,0,0.1-0.1c1.1-0.5,3.5-1.6,3.9,0.1c0.1,0.5-0.2,0.9-0.6,1.1    C66.4,71,65.8,70.9,65.5,71.7L65.5,71.7z"></path>			<path class="wdt-custom-heading-animal-icon-class-3" d="M66.6,68.2c-0.4,0.1-0.7,0-0.9-0.3c-0.5-0.9,0.6-2.2,1.3-3c0.5-0.6,1.3-1.2,1.8-0.7    c0.6,0.7,0.5,2.4-0.3,2.9c-0.3,0.2-0.7,0.3-1.1,0.5C67.2,67.8,66.9,68.1,66.6,68.2z"></path>			<path class="wdt-custom-heading-animal-icon-class-3" d="M63.6,65.3c-0.5-0.5-1-1.2-0.8-1.9c0.2-0.8,1-1.6,1.7-2.1c1.1-0.9,2.5-1.8,3.1-0.2    c0.2,0.6,0.3,1.4-0.4,1.8c-0.2,0.1-0.4,0.1-0.7,0c-0.3,0-0.6-0.4-0.7,0c0,0.2,0.1,0.6,0.1,0.8C66.2,65.1,64.9,66.6,63.6,65.3    L63.6,65.3z"></path>			<path class="wdt-custom-heading-animal-icon-class-3" d="M62.8,59.1c0.4-0.5,1.2-2,2-1.4c0.8,0.5,0.4,1.8,0,2.4c-0.5,0.6-1.4,1.1-2.1,0.5    C62.1,60.1,62.4,59.6,62.8,59.1z"></path>			<path class="wdt-custom-heading-animal-icon-class-3" d="M61.8,65.6c-0.3,0.2-0.6,0.3-0.9,0.5c-0.2,0.1-0.4,0.3-0.6,0.4c-0.4,0.1-0.8,0-1.1-0.4    c-0.7-0.8-0.2-1.7,0.5-2.4c0.5-0.7,1.3-1.2,2.1-0.7C62.7,63.7,62.7,65.1,61.8,65.6L61.8,65.6z"></path>			<path class="wdt-custom-heading-animal-icon-class-3" d="M52.7,63.4c0.2,0.3,0.4,0.4,0.7,0.5c0.5,0.2,1,0.4,1.2,1c0,0.2-0.1,0.5-0.1,0.7    c0.1,0.6,0.7,0.9,1.2,0.9c0.8,0,1.4-0.4,1.8-1c0.5-0.8,0.6-1.8,0.2-2.6c-0.1-0.1-0.1-0.3-0.2-0.4c-0.7-1.2-1.5-1.8-3-1.7    c-0.5,0-1,0.3-1.4,0.6C52.5,61.9,52.3,62.7,52.7,63.4z"></path>			<path class="wdt-custom-heading-animal-icon-class-3" d="M55.9,47.6c0.3,0.6,1.1,0.8,1.7,0.4c0.2-0.1,0.3-0.3,0.4-0.5c0.2-0.5,0.1-1.3,0.7-1.6    c0.2-0.1,0.4,0,0.6-0.2c0.3-0.3,0.3-0.8,0.1-1.2c-0.5-1-1.2-0.9-1.9-0.4c-0.3,0.2-0.6,0.5-0.9,0.7c-0.3,0.2-0.5,0.4-0.7,0.9    C55.8,46.4,55.5,46.9,55.9,47.6z"></path>			<path class="wdt-custom-heading-animal-icon-class-3" d="M61.1,49.2c-0.2-0.3-0.6-0.7-0.5-1.1c0.1-0.3,0.4-0.6,0.7-0.8c0.4-0.5,1-1,1.5-0.7    c0.7,0.4,0.5,1.7,0.1,2.3C62.5,49.7,61.6,49.8,61.1,49.2L61.1,49.2z"></path>			<path class="wdt-custom-heading-animal-icon-class-3" d="M61.6,50.5c0.7,1.5,0.2,2.8-1.2,3.6c-0.8,0.5-2.5,0.7-2.6-0.7c0-0.3,0.1-0.5,0.3-0.8    c0.2-0.3,0.3-0.4,0.4-0.7c0.1-0.3,0.1-0.6,0.2-1c0.1-0.3,0.3-0.6,0.6-0.7C60,49.5,61.1,49.4,61.6,50.5L61.6,50.5z"></path>			<path class="wdt-custom-heading-animal-icon-class-3" d="M63.4,55.7c-0.7,0.5-1.8,0.5-2.2-0.4c-0.1-0.3,0-0.7,0.2-0.9c0.2-0.2,0.4-0.3,0.6-0.4    c0.1-0.1,0.2-0.2,0.3-0.3c0.1-0.2,0.3-0.4,0.5-0.5c0.3-0.2,0.7-0.2,0.9,0.1c0.3,0.3,0.3,0.9,0.3,1.3C64,55,63.8,55.4,63.4,55.7    L63.4,55.7z"></path>			<path class="wdt-custom-heading-animal-icon-class-3" d="M66.8,56.5c-0.5,0.2-1.3,0.2-1.8-0.2c-0.6-0.4-0.4-1.1-0.5-1.7c-0.1-0.7-0.5-1.4-0.2-2.1    c0.3-0.6,0.9-0.8,1.4-0.9c0.3-0.2,0.6,0,1,0.2c0.7,0.4,1.4,0.4,1.8,1.3C69.2,54.5,68.1,56,66.8,56.5L66.8,56.5z"></path>			<path class="wdt-custom-heading-animal-icon-class-3" d="M71.5,55.8c0.9,0.4,0.8,1.2,1.2,1.9c0.4,0.8,1.5,1,1.5,2.1c0,1.7-2.1,1.4-3,0.6    c-0.8-0.8-2-2.5-1.4-3.6C70.1,56,70.9,55.5,71.5,55.8z"></path>			<path class="wdt-custom-heading-animal-icon-class-3" d="M78.3,60.3C78.3,60.3,78.3,60.3,78.3,60.3c0.1,0,0.2-0.1,0.3-0.1c0.9-0.1,1.4,1,1.9,1.5    c0.6,0.5,1.5,0.9,1.6,1.8c0,0.7-0.5,1.2-1.1,1.4c-0.8,0.2-1.5-0.1-2.1-0.7C77.9,63.4,76.6,61.1,78.3,60.3L78.3,60.3z"></path>			<path class="wdt-custom-heading-animal-icon-class-3" d="M83.8,67.1c1-0.3,2.2,0,2.9,1c0.6,0.9,0.8,2.8-0.7,3.1c-0.5,0.1-1-0.2-1.2-0.6    c-0.1-0.1-0.1-0.3-0.1-0.4c-0.2-0.5-0.4-0.7-0.8-0.9c-0.3-0.1-0.6-0.3-0.9-0.5c-0.3-0.3-0.4-0.8-0.2-1.2    C83.1,67.3,83.5,67.2,83.8,67.1L83.8,67.1z"></path>			<path class="wdt-custom-heading-animal-icon-class-3" d="M87.9,74.5c0.6-0.4,1.5-0.5,2,0c0.7,0.7,0.6,2.2-0.3,2.7c-0.9,0.5-2.2-0.1-2.5-1    C86.8,75.4,87.3,74.7,87.9,74.5L87.9,74.5z"></path>			<path class="wdt-custom-heading-animal-icon-class-3" d="M89.6,79.4C89.6,79.4,89.6,79.4,89.6,79.4c0.7,0,1.4,0.3,1.6,1.1c0.1,0.3,0.1,0.5,0,0.8    c-0.1,0.5-0.3,0.8-0.2,1.4c0.1,0.5,0,1-0.5,1.3c-1.2,0.6-2-0.8-2.1-1.8c0-0.4,0-0.8-0.2-1.2c0-0.1-0.1-0.2-0.1-0.3    c0-0.3-0.1-0.5,0.1-0.8C88.5,79.5,89.1,79.4,89.6,79.4L89.6,79.4z"></path>		</g>	</g></g></svg>