<svg xmlns="http://www.w3.org/2000/svg" x="0px" y="0px" viewBox="0 0 100 100" style="enable-background:new 0 0 100 100;" xml:space="preserve"><style type="text/css">	.wdt-custom-heading-leaf-icon-class-1{fill:#76C4D5;}	.wdt-custom-heading-leaf-icon-class-2{fill:#49B59B;}	.wdt-custom-heading-leaf-icon-class-3{fill:#FFFFFF;}</style><g>	<g>		<g>			<g>				<path class="wdt-custom-heading-leaf-icon-class-1" d="M9.2,52.3c6.4,2.3,11.5,1.3,11.5,1.3s0.8,0.3,2.3,0.7c0.2-0.1,0.3-0.3,0.4-0.4l3.7,1.2     c0,0-0.1,0.2-0.2,0.6c3,1.2,6.8,2.8,10.7,4.8c0.8-0.4,1.3-0.7,1.3-0.7l3.1,2c0,0-0.2,0.3-0.6,0.9c0.4,0.2,0.7,0.4,1.1,0.7     c3.5,2.2,6.6,4.5,9.2,6.7c0.5-0.1,0.7-0.1,0.7-0.1l3.8,2.6c0,0-0.1,0.5-0.3,1.2c4.9,4.7,7.5,8.3,8.2,8.8c0.9,0.8,3-0.3,2.6-1.7     c-0.2-0.9-4.4-5.7-10.7-11.1c-0.5,0.4-0.7,0.6-0.7,0.6L52.6,68c0,0-0.2-0.4-0.4-1.2c-4.3-1-7.9-2.9-8.3-5.8     c-0.2-0.1-0.4-0.3-0.7-0.4c-0.4-0.3-0.9-0.5-1.3-0.8c-0.2,0.4-0.3,0.6-0.3,0.6l-2.1-1.4c0,0-0.1-0.2-0.3-0.7     c-4.9-2.6-9.1-4.3-12.2-5.4c-0.3,0.4-0.5,0.7-0.5,0.7l-2.6-1c0,0-0.1-0.3-0.3-0.7c-1.7-0.5-2.6-0.6-2.6-0.6s-3.9-4.9-9.4-6.3     C2.5,42.5,0.8,49.3,9.2,52.3L9.2,52.3z"></path>				<path class="wdt-custom-heading-leaf-icon-class-1" d="M52.5,70c0,0-0.3,0-0.7,0.1c-2.2,0.4-8.9,1.9-15.6,6.8c-8.2,5.9-5.5,16.6,6,12.6     c9.3-3.2,12.8-12.3,13.8-15.7c0.2-0.8,0.3-1.2,0.3-1.2L52.5,70L52.5,70z"></path>				<path class="wdt-custom-heading-leaf-icon-class-1" d="M52.3,66.8c0.2,0.8,0.4,1.2,0.4,1.2l2.7,2.5c0,0,0.3-0.2,0.7-0.6c0.5-0.4,1.1-1.1,1.8-2.1     c-1.1-0.1-2.1-0.2-3.1-0.4C53.9,67.2,53.1,67,52.3,66.8L52.3,66.8z"></path>				<path class="wdt-custom-heading-leaf-icon-class-1" d="M64.2,49.3c-2.5,0.8-5.6,1.3-8.9,0.8c-0.9-0.1-1.7-0.3-2.6-0.5c-0.2,0.4-0.3,0.9-0.5,1.3     c-0.5,1.8-0.8,3.6-0.9,5.2c1.6,0.1,3.3,0.3,5.3,0.7c1.9,0.3,3.9,0.9,5.8,1.6c0.5-1.4,0.9-2.9,1.3-4.6     C64.2,52.1,64.3,50.6,64.2,49.3L64.2,49.3z"></path>				<path class="wdt-custom-heading-leaf-icon-class-1" d="M38.9,59.9c0,0-0.5,0.2-1.3,0.7c-2.4,1.2-7.6,4.1-13.3,7.9c-7.6,5.2-9.2,8.8-6.7,11     c2.5,2.2,7.8,0.9,13.5-4.3C35.7,71.1,40,65,41.4,62.8c0.4-0.5,0.6-0.9,0.6-0.9L38.9,59.9L38.9,59.9z"></path>				<path class="wdt-custom-heading-leaf-icon-class-1" d="M41.7,60.3c0,0,0.1-0.2,0.3-0.6c0.9-1.5,3.3-6.2,3.9-12.1c-3.3-1.3-5.5-3-5.7-5.3     c-0.2-2.9,1.1-4.7,5.5-4.8c-0.3-1.1-0.7-2.1-1.2-2.9c-3-0.4-5.4-1.2-7-2.5c-2.1,1.2-3.2,4.7-2.4,10.6c1,7.2,3.4,13.5,4.2,15.5     c0.2,0.4,0.3,0.7,0.3,0.7L41.7,60.3z"></path>				<path class="wdt-custom-heading-leaf-icon-class-1" d="M23.4,54c-0.1,0.1-0.2,0.3-0.4,0.4c-3.5,3-19.5,7.9-20.4,14.5c-0.6,4.3,6.5,6.8,14,0.7     c6.3-5.1,9.5-11.8,10.3-13.7c0.2-0.4,0.2-0.6,0.2-0.6L23.4,54z"></path>				<path class="wdt-custom-heading-leaf-icon-class-1" d="M26.7,53.5c0,0,0.2-0.2,0.5-0.7c0.9-1.4,2.8-5,3.6-10.5c1-7.2-1.5-15.3-5.8-15.2     c-4.3,0.1-5.4,5.3-4.3,12.8c0.8,5.8,2.5,10.2,3.2,11.8c0.2,0.5,0.3,0.7,0.3,0.7L26.7,53.5L26.7,53.5z"></path>			</g>			<g>				<path class="wdt-custom-heading-leaf-icon-class-2" d="M62.9,30.2c0,0-0.2,0.3-0.7,0.8c1.9,3.2,4.1,7.4,5.9,12.4c0.6,0.3,0.9,0.5,0.9,0.5l0.9,2.9     c0,0-0.2,0.2-0.6,0.4c1.4,5,2.2,10.4,2.7,15.1c0.7,0.3,1.1,0.5,1.1,0.5l0.1,3.2c-0.2,0.2-0.5,0.3-0.8,0.5     c0.4,4.9,0.4,8.5,0.5,9.4c0.1,0.9,2,0.6,2.4-0.2c0.2-0.4,0.3-4.5-0.2-10.2c-0.2,0-0.4,0-0.5,0l-0.2-3.2c0,0,0.1-0.3,0.3-1     C74,56.2,73,50.4,71.4,45.1c-0.4,0.2-0.6,0.3-0.6,0.3L70,43.3c0,0,0.1-0.5,0.4-1.4c-2.1-5.7-4.4-9.8-6.4-12.8     c-0.3,0.1-0.5,0.2-0.5,0.2l-1.6-1.6c0,0,0-0.5,0-1.4c-1.8-2.2-3-3.5-3.3-4.2c-0.6-1.7-0.7-4.1-3.5-7.4c-2.8-3.3-5.6-4.6-7-2     c-1.5,2.6,2.6,9.9,9.2,11.2c0,0,1.4,1.6,3.4,4.5c0.6,0.1,0.9,0.1,0.9,0.1L62.9,30.2L62.9,30.2z M49.6,13.4     c0.1-0.4,0.4-0.6,0.8-0.7c0.4-0.2,1-0.1,1.3,0.4c0.5,0.6,0.2,1.5-0.6,1.7C50.3,15,49.3,14.3,49.6,13.4z M53.3,20.6     c-1,0.4-2.2-0.4-2.5-1.4c-0.2-0.7,0.2-1.3,0.7-1.6c0.7-0.4,1.8-0.4,2.3,0.4C54.4,18.7,54.2,20.2,53.3,20.6L53.3,20.6z"></path>				<path class="wdt-custom-heading-leaf-icon-class-2" d="M74.5,65.5c0.2,0,0.3,0,0.5,0c3.9-0.2,12.7-3.6,18.3-10.3c5.8-7.1,5.5-13.6-0.2-13.9     c-5.7-0.3-10.5,3.5-14.2,10.6c-2.6,4.9-3.8,8-4.3,9.5c-0.2,0.6-0.3,1-0.3,1L74.5,65.5z M92.4,53.3c0.1,1.9-1.6,3.4-3.4,2.6     c-1.6-0.7-2.5-2.7-1.3-4.2c0.9-1.1,2.2-1.2,3.3-0.6C91.8,51.5,92.3,52.2,92.4,53.3L92.4,53.3z M87,45.2c0.2-0.7,0.7-1.1,1.3-1.3     c0.8-0.3,1.6-0.1,2.2,0.6c0.8,1,0.3,2.6-1,3C88.3,47.9,86.5,46.6,87,45.2z M80.6,51.5c0.5-0.6,1.3-0.7,1.9-0.3     c0.4,0.2,0.8,0.6,0.8,1.2c0.1,1.1-0.9,2-1.9,1.5C80.4,53.4,79.9,52.3,80.6,51.5z M78.5,59.7c0.2-0.6,0.6-1,1.2-1.1     c0.7-0.3,1.4-0.1,1.9,0.5c0.7,0.9,0.2,2.3-0.9,2.6C79.7,62,78.1,61,78.5,59.7z"></path>				<path class="wdt-custom-heading-leaf-icon-class-2" d="M73.1,62.8c0,0-0.4-0.2-1.1-0.5c-1.8-0.8-5.5-2.5-9.5-3.9c-1.9-0.6-4-1.2-5.8-1.6     c-2-0.4-3.7-0.6-5.3-0.7c-4.2-0.2-6.9,0.6-7.4,3.7c-0.1,0.4-0.1,0.7,0,1.1c0.3,2.9,4,4.8,8.3,5.8c0.8,0.2,1.7,0.4,2.5,0.5     c0.9,0.2,2,0.3,3.1,0.4c5.2,0.5,11.5,0.2,14.5-1.2c0.3-0.1,0.6-0.3,0.8-0.5L73.1,62.8z M49,64.8c-1.1,0.4-2.6-0.4-2.8-1.6     c-0.2-0.8,0.2-1.5,0.8-1.9c0.8-0.5,2.1-0.5,2.7,0.4C50.3,62.7,50.1,64.4,49,64.8z M52.7,60.1c-1.1,0.5-2.4-0.1-2.8-1.2     c-0.3-0.7,0-1.5,0.5-1.9c0.8-0.8,2.3-0.7,3,0.2C54.2,58.2,53.8,59.6,52.7,60.1z M57.9,65.2c-1.9-0.3-3-2.6-1.8-4.2     c0.7-1,1.9-1.2,2.9-0.8c0.6,0.1,1.2,0.6,1.5,1.3C61.1,63.4,59.9,65.6,57.9,65.2L57.9,65.2z M65.9,65c-1.2,0.3-2.8-0.8-2.4-2.2     c0.2-0.6,0.7-1,1.2-1.2c0.7-0.3,1.5-0.1,2.1,0.6C67.5,63.2,67.1,64.7,65.9,65z"></path>				<path class="wdt-custom-heading-leaf-icon-class-2" d="M55.4,50.1c3.2,0.5,6.3,0,8.9-0.8c2.4-0.7,4.2-1.7,5.1-2.2c0.4-0.2,0.6-0.4,0.6-0.4     l-0.9-2.9c0,0-0.3-0.2-0.9-0.5c-2.2-1.1-8-3.8-15.7-5.2c-2.8-0.5-5-0.7-6.7-0.6c-4.4,0.2-5.7,1.9-5.5,4.8c0.2,2.2,2.5,4,5.7,5.3     c2,0.8,4.3,1.4,6.8,1.9C53.6,49.8,54.5,50,55.4,50.1L55.4,50.1z M63.2,43.8c0.6,0.2,1,0.7,1,1.5c0.1,1.4-1.1,2.5-2.5,1.9     c-1.2-0.5-1.8-2-1-3.1C61.4,43.4,62.4,43.4,63.2,43.8z M42.6,40.3c-0.1-1.2,0.7-1.8,1.6-1.9c1-0.3,2.2,0,2.7,1.2     c0.5,1.2-0.1,3-1.6,3.1C44,42.8,42.7,41.6,42.6,40.3L42.6,40.3z M46.8,47.4c-1.4-0.7-1.8-2.7-0.5-3.8c1.1-0.8,2.7-0.5,3.2,0.6     c0.2,0.3,0.3,0.7,0.3,1.2C49.9,47.2,48.3,48.2,46.8,47.4L46.8,47.4z M51.9,43.6c-0.4-0.7-0.5-1.7,0.1-2.4     c0.6-0.7,1.6-0.8,2.4-0.6c0.8,0.2,1.5,0.9,1.6,1.7c0,0.2,0,0.5-0.1,0.7c0,0.1,0,0.3-0.1,0.4C55.3,45.3,52.8,45.2,51.9,43.6     L51.9,43.6z"></path>				<path class="wdt-custom-heading-leaf-icon-class-2" d="M50.7,35c6.9-0.2,10.2-2.7,11.5-4c0.5-0.5,0.7-0.8,0.7-0.8l-1.4-1.8c0,0-0.3,0-0.9-0.1     c-1.4-0.1-4.6-0.6-9.6-2.1c-7.1-2.1-14.4-4.7-15.5,0.8c-0.4,2.1,0.4,3.8,2,5c1.6,1.2,4.1,2.1,7,2.5C46.4,34.9,48.5,35,50.7,35     L50.7,35z M51.2,29.1c0.2-0.5,0.6-0.9,1-1c0.6-0.2,1.3-0.1,1.7,0.5c0.6,0.8,0.2,2-0.8,2.3C52.2,31.1,50.8,30.2,51.2,29.1z      M44.8,30.2c0.7-0.4,1.8-0.4,2.3,0.4c0.5,0.8,0.3,2.3-0.6,2.6c-1,0.4-2.2-0.4-2.5-1.4C43.9,31.2,44.2,30.6,44.8,30.2L44.8,30.2z      M38.1,28.2c0.4-2.7,4.6-2,4.5,0.6c-0.1,1-0.8,1.8-1.7,2C39.3,31,37.9,29.8,38.1,28.2z"></path>				<path class="wdt-custom-heading-leaf-icon-class-2" d="M61.9,27.7l1.6,1.6c0,0,0.2-0.1,0.5-0.2c1.4-0.6,5.3-2.3,8.6-6.2c4.2-4.8,6.5-10.3,3.7-12.3     c-2.8-2-7-1.4-10.9,4.2c-2.8,4.1-3.4,9.1-3.5,11.5C61.8,27.2,61.9,27.7,61.9,27.7z M71.7,17.9c0.6-0.2,1.3-0.1,1.7,0.5     c0.6,0.8,0.2,2-0.8,2.3c-1,0.3-2.3-0.7-2-1.8C70.8,18.4,71.2,18,71.7,17.9z M66.5,14.1c0.4-2.7,4.6-2,4.5,0.6     c-0.1,1-0.8,1.8-1.7,2C67.6,16.9,66.2,15.7,66.5,14.1z M66.4,22.1c0.7-0.4,1.8-0.4,2.3,0.4c0.5,0.8,0.3,2.3-0.6,2.6     c-1,0.4-2.2-0.4-2.5-1.4C65.5,23,65.9,22.4,66.4,22.1L66.4,22.1z"></path>				<path class="wdt-custom-heading-leaf-icon-class-2" d="M70.8,45.3c0,0,0.2-0.1,0.6-0.3c1.8-0.8,7.5-3.6,11.6-8c4.9-5.3,9.5-12.8,7.4-16     c-2.1-3.2-6.3-3-12.1,4c-4.6,5.5-7.1,13.6-8,16.8c-0.2,0.9-0.4,1.4-0.4,1.4L70.8,45.3L70.8,45.3z M84.2,23.7     c0.2-0.7,0.7-1.1,1.3-1.3c0.8-0.3,1.6-0.1,2.2,0.6c0.8,1,0.3,2.6-1,3C85.5,26.4,83.7,25.1,84.2,23.7z M79.4,38.2     c-1.2-0.5-1.8-2-1-3.1c0.6-0.8,1.6-0.9,2.4-0.4c0.6,0.2,1,0.7,1,1.5C81.9,37.7,80.7,38.8,79.4,38.2z M79,25.9     c1-0.2,2.3,0.2,2.7,1.2c1.2,2.9-2.8,4.3-4.1,1.6C77,27.4,77.7,26.1,79,25.9z M72.3,37.4c0.5-0.6,1.3-0.7,1.9-0.3     c0.4,0.2,0.8,0.6,0.8,1.2c0.1,1.1-0.9,2-1.9,1.5C72.1,39.3,71.6,38.2,72.3,37.4z"></path>			</g>			<g>				<path class="wdt-custom-heading-leaf-icon-class-3" d="M49.8,61.8c-0.6-0.9-1.8-1-2.7-0.4c-0.6,0.4-1,1.1-0.8,1.9c0.3,1.2,1.7,2,2.8,1.6     C50.1,64.4,50.3,62.7,49.8,61.8z"></path>				<path class="wdt-custom-heading-leaf-icon-class-3" d="M46.5,33.3c1-0.3,1.1-1.9,0.6-2.6c-0.5-0.8-1.6-0.8-2.3-0.4c-0.5,0.3-0.9,0.9-0.7,1.6     C44.3,32.9,45.5,33.6,46.5,33.3L46.5,33.3z"></path>				<path class="wdt-custom-heading-leaf-icon-class-3" d="M68.1,25.1c1-0.3,1.1-1.9,0.6-2.6c-0.5-0.8-1.6-0.8-2.3-0.4c-0.5,0.3-0.9,0.9-0.7,1.6     C65.9,24.7,67.2,25.5,68.1,25.1L68.1,25.1z"></path>				<path class="wdt-custom-heading-leaf-icon-class-3" d="M51.5,17.5c-0.5,0.3-0.9,0.9-0.7,1.6c0.2,1,1.5,1.7,2.5,1.4c1-0.3,1.1-1.9,0.6-2.6     C53.3,17.1,52.3,17.1,51.5,17.5L51.5,17.5z"></path>				<path class="wdt-custom-heading-leaf-icon-class-3" d="M50.4,57c-0.5,0.5-0.8,1.2-0.5,1.9c0.4,1.1,1.7,1.7,2.8,1.2c1.1-0.5,1.5-2,0.7-2.9     C52.7,56.3,51.3,56.2,50.4,57z"></path>				<path class="wdt-custom-heading-leaf-icon-class-3" d="M60.5,61.6c-0.3-0.8-0.9-1.2-1.5-1.3C58,59.8,56.8,60,56.1,61c-1.2,1.6-0.1,3.9,1.8,4.2     C59.9,65.6,61.1,63.4,60.5,61.6L60.5,61.6z"></path>				<path class="wdt-custom-heading-leaf-icon-class-3" d="M64.7,61.6c-0.6,0.2-1,0.6-1.2,1.2c-0.4,1.3,1.2,2.5,2.4,2.2c1.2-0.3,1.7-1.8,0.9-2.8     C66.3,61.5,65.5,61.4,64.7,61.6z"></path>				<path class="wdt-custom-heading-leaf-icon-class-3" d="M53.2,30.9c1-0.3,1.4-1.5,0.8-2.3c-0.4-0.6-1.1-0.7-1.7-0.5c-0.5,0.1-0.9,0.5-1,1     C50.8,30.2,52.2,31.1,53.2,30.9z"></path>				<path class="wdt-custom-heading-leaf-icon-class-3" d="M86.7,26c1.3-0.3,1.8-1.9,1-3c-0.6-0.8-1.4-0.9-2.2-0.6c-0.6,0.2-1.1,0.6-1.3,1.3     C83.7,25.1,85.5,26.4,86.7,26z"></path>				<path class="wdt-custom-heading-leaf-icon-class-3" d="M89.5,47.5c1.3-0.3,1.8-1.9,1-3c-0.6-0.8-1.4-0.9-2.2-0.6c-0.6,0.2-1.1,0.6-1.3,1.3     C86.5,46.6,88.3,47.9,89.5,47.5z"></path>				<path class="wdt-custom-heading-leaf-icon-class-3" d="M80.8,61.8c1.1-0.3,1.6-1.7,0.9-2.6c-0.5-0.7-1.3-0.8-1.9-0.5c-0.5,0.1-1,0.5-1.2,1.1     C78.1,61,79.7,62,80.8,61.8z"></path>				<path class="wdt-custom-heading-leaf-icon-class-3" d="M72.6,20.7c1-0.3,1.4-1.5,0.8-2.3c-0.4-0.6-1.1-0.7-1.7-0.5c-0.5,0.1-0.9,0.5-1,1     C70.3,20,71.6,20.9,72.6,20.7z"></path>				<path class="wdt-custom-heading-leaf-icon-class-3" d="M51.1,14.8c0.7-0.2,1-1.1,0.6-1.7c-0.3-0.4-0.9-0.5-1.3-0.4c-0.4,0.1-0.7,0.4-0.8,0.7     C49.3,14.3,50.3,15,51.1,14.8z"></path>				<path class="wdt-custom-heading-leaf-icon-class-3" d="M61.8,47.3c1.3,0.6,2.6-0.6,2.5-1.9c-0.1-0.8-0.5-1.3-1-1.5c-0.8-0.5-1.8-0.4-2.4,0.4     C59.9,45.4,60.6,46.8,61.8,47.3z"></path>				<path class="wdt-custom-heading-leaf-icon-class-3" d="M80.8,34.7c-0.8-0.5-1.8-0.4-2.4,0.4c-0.9,1.1-0.2,2.5,1,3.1c1.3,0.6,2.6-0.6,2.5-1.9     C81.8,35.5,81.4,35,80.8,34.7z"></path>				<path class="wdt-custom-heading-leaf-icon-class-3" d="M87.7,51.8c-1.2,1.5-0.3,3.5,1.3,4.2c1.8,0.8,3.5-0.8,3.4-2.6c-0.1-1.1-0.6-1.8-1.4-2.1     C90,50.6,88.6,50.7,87.7,51.8L87.7,51.8z"></path>				<path class="wdt-custom-heading-leaf-icon-class-3" d="M73,39.7c1,0.5,2-0.4,1.9-1.5c0-0.6-0.4-1-0.8-1.2c-0.6-0.4-1.4-0.3-1.9,0.3     C71.6,38.2,72.1,39.3,73,39.7z"></path>				<path class="wdt-custom-heading-leaf-icon-class-3" d="M81.3,53.8c1,0.5,2-0.4,1.9-1.5c0-0.6-0.4-1-0.8-1.2c-0.6-0.4-1.4-0.3-1.9,0.3     C79.9,52.3,80.4,53.4,81.3,53.8z"></path>				<path class="wdt-custom-heading-leaf-icon-class-3" d="M55.9,43.5c0-0.1,0.1-0.3,0.1-0.4c0.1-0.2,0.1-0.4,0.1-0.7c-0.1-0.9-0.8-1.5-1.6-1.7     c-0.8-0.2-1.9-0.1-2.4,0.6c-0.6,0.7-0.5,1.7-0.1,2.4C52.8,45.2,55.3,45.3,55.9,43.5L55.9,43.5z"></path>				<path class="wdt-custom-heading-leaf-icon-class-3" d="M46.3,43.6c-1.3,1-0.9,3.1,0.5,3.8c1.5,0.7,3.1-0.2,3.1-1.9c0-0.5-0.1-0.9-0.3-1.2     C49,43.1,47.4,42.8,46.3,43.6L46.3,43.6z"></path>				<path class="wdt-custom-heading-leaf-icon-class-3" d="M46.9,39.6c-0.5-1.1-1.7-1.4-2.7-1.2c-0.9,0.1-1.7,0.7-1.6,1.9c0.1,1.3,1.4,2.5,2.7,2.4     C46.8,42.6,47.5,40.8,46.9,39.6L46.9,39.6z"></path>				<path class="wdt-custom-heading-leaf-icon-class-3" d="M81.7,27.1c-0.4-1-1.7-1.4-2.7-1.2c-1.3,0.3-2,1.5-1.4,2.7C78.8,31.3,82.9,29.9,81.7,27.1z"></path>				<path class="wdt-custom-heading-leaf-icon-class-3" d="M40.8,30.8c1-0.1,1.7-1,1.7-2c0.2-2.6-4.1-3.4-4.5-0.6C37.9,29.8,39.3,31,40.8,30.8z"></path>				<path class="wdt-custom-heading-leaf-icon-class-3" d="M69.2,16.7c1-0.1,1.7-1,1.7-2c0.2-2.6-4.1-3.4-4.5-0.6C66.2,15.7,67.6,16.9,69.2,16.7z"></path>			</g>		</g>	</g></g></svg>