<svg xmlns="http://www.w3.org/2000/svg" x="0px" y="0px" viewBox="0 0 100 120" style="enable-background:new 0 0 100 120;" xml:space="preserve"><style type="text/css">	.wdt-custom-heading-animal-icon2-class-1{fill:#DC7445;}	.wdt-custom-heading-animal-icon2-class-2{fill:#DACCBD;}	.wdt-custom-heading-animal-icon2-class-3{fill:#F06985;}	.wdt-custom-heading-animal-icon2-class-4{fill:#2B2C2B;}	.wdt-custom-heading-animal-icon2-class-5{fill:#B86239;}</style><g>	<g>		<g>			<g>				<path class="wdt-custom-heading-animal-icon2-class-1" d="M83,60c8.2-1.3,14.7-7.4,13.9-9.6c-0.7-2.2-6.6,3.2-12.6,3.6c-6,0.4-13-0.5-13.6-1.9     c-0.7-1.5,0.8-4.3,1.4-5.7c1.1-2.7,2.1-5.5,4.7-7.2c4.2-2.7,8.1-6.4,7.8-11.8c-0.1-1.4-0.3-2.8-0.7-4.2c-0.1-0.4-2-3.9-1.9-4     c0,0,7.9-12.1-2.9-16.1c-10.8-4-13.3,8.6-13.3,8.6S62,12.4,60,13.4c0,0-0.5-4.6-1.5-4.2c-1.4,0.5-1,5.5-1,5.5s-0.9-3.9-2.2-3.6     c-1.3,0.3,0.3,4.1,0.3,4.1s-2.9-4.3-3.8-3.8c-1,0.5,2.4,4.8,2.4,4.8l-3.7,2.4c0,0-9.2-7.1-14.1,0.8c-6.4,10.4,7.2,14.9,7.2,14.9     c0,0.5,1.6,3.6,2.5,4.6c1,1-0.3,4.2-1.9,4.5c-1.6,0.3-7.6-4.6-10.4-9.2c-2.7-4.6-3.9-13.4-5.1-14.6c-1.1-1.2-3.3-0.5-2.3,7.1     c1,7.6,8.8,20.4,9.8,22.2c1,1.8-1.4,4.7-2.6,6.7c-1.1,2-2.8,3.6-6,4.4c-3.2,0.8-12.3,3.1-17.3,5S2.5,69,3.1,70.7     c0.5,1.7,6.2-1,11.2-2s17.8-2.4,18.3-1.4c0.4,1,1.3,3.2,2.3,4.5c1,1.4,1.3,6.2-2.2,9.9c-3.5,3.7-10.9,13-8.8,23.2     s5.3,14.1,13,12.1c7.7-2,8.7-6.5,8.1-10.8c-0.6-4.2-3.8-6.7-8.1-4.6c-4.3,2.1-3.4,5.8-1.8,6.3c1.6,0.5,1.8-1.4,2.4-2.5     c0.6-1.1,3.9-2.4,4.4,1.5c0.4,3.9-3.9,7-8.5,7c-4.6,0-6.4-7.3-6.5-11.5c-0.1-4.2,0.4-9.2,4.7-15s7.8-9.1,7.2-12.5     c0,0,5.3,2.5,10.4,1.3c0,0,0.6,6.8,2.4,13.7c1.8,6.9,5.1,11.6,7.2,10.8c2.1-0.8-1.5-8.7-2-14.6c-0.5-5.9-1.6-11.8-1-12.2     c0.6-0.4,11-8.2,12.5-13.5C68.3,60.4,74.8,61.3,83,60L83,60z M33.8,61.9c-0.7-0.3,0.1-2.1,0.7-1.8     C35.2,60.4,34.4,62.2,33.8,61.9z M35.9,65.4c-0.9-0.3-0.1-2.5,0.6-2.3C37.5,63.3,36.8,65.7,35.9,65.4z M38,60.9     c-0.7-0.2,0-2.5,0.6-2.4C39.3,58.6,38.7,61.1,38,60.9z M38.2,56.6c-0.6-0.2,0.2-2.4,0.8-2.2C39.9,54.7,38.8,56.8,38.2,56.6z      M40.2,64.2c-0.3-0.1,0.3-2.3,0.8-2.1C41.6,62.3,40.6,64.4,40.2,64.2z M41.5,59.5c-0.7-0.3,0.3-2,0.9-1.9     C42.9,57.8,42.1,59.9,41.5,59.5z M41.9,55.1c-0.7-0.3,0.2-2.3,0.8-2C43.6,53.5,42.6,55.4,41.9,55.1z M78.5,4.6     c8,2.7,2.1,12.7,2.1,12.7c-4.3-3.7-13-5.6-13-5.6S70.6,1.9,78.5,4.6z M43.4,31.3c0,0-9-4-5.6-10.4c3.3-6.3,11.2-0.8,11.2-0.8     C44.1,25.7,43.4,31.3,43.4,31.3z M49.6,72.5c-0.7-0.2-0.5-1.8,0.1-1.9C50.5,70.5,50.3,72.6,49.6,72.5z M53.6,69.6     c-0.8-0.1-0.8-2.4,0.1-2.4C54.6,67.2,54.5,69.8,53.6,69.6z M54.8,65.3c-0.5-0.2-0.1-2.1,0.5-2C56,63.4,55.3,65.4,54.8,65.3z      M57,68.2c-0.8-0.2-0.4-2.2,0.3-2.3C58.1,65.8,57.8,68.5,57,68.2z M58.5,57.2c0.7,0,0.3,2.4-0.4,2.2     C57.5,59.3,57.9,57.2,58.5,57.2z M58.5,64.2c-0.6-0.2-0.3-2.5,0.5-2.4C59.9,61.8,59.1,64.3,58.5,64.2z M61.7,60.9     C61,60.8,61.2,59,62,59.1C62.8,59.2,62.4,61,61.7,60.9z M50.2,38.6c-4.2-7.7-2.5-13.8,0.8-16.3c3-2.3,7.4-1.4,9.1-0.3     c0,0,0.4-5.5,6.1-6.6c5.8-1.1,11.9,3.1,13.8,9.9c1.9,6.8-2.1,11.4-10.6,15.1S54.4,46.3,50.2,38.6z M63.4,55     c-0.7-0.2-0.1-2.3,0.5-2.2C64.7,52.9,64.2,55.2,63.4,55z"></path>			</g>			<g>							</g>			<g>				<path class="wdt-custom-heading-animal-icon2-class-3" d="M74.7,29c1.2-0.2,2-1.3,1.8-2.4c-0.2-1.2-1.3-2-2.4-1.8c-1.2,0.2-2,1.3-1.8,2.4     C72.5,28.4,73.6,29.2,74.7,29z"></path>				<path d="M53.4,34.4c-0.9,0.8-0.9,2.2-0.1,3c0.8,0.9,2.2,0.9,3,0.1c0.9-0.8,0.9-2.2,0.1-3     C55.6,33.7,54.2,33.6,53.4,34.4z"></path>			</g>			<g>				<path class="wdt-custom-heading-animal-icon2-class-4" d="M78.5,4.6c-8-2.7-10.9,7.1-10.9,7.1s8.7,1.9,13,5.6C80.6,17.3,86.5,7.3,78.5,4.6z"></path>				<path class="wdt-custom-heading-animal-icon2-class-4" d="M37.8,20.9c-3.4,6.4,5.6,10.4,5.6,10.4s0.7-5.6,5.6-11.2C48.9,20.1,41.1,14.7,37.8,20.9z"></path>				<path class="wdt-custom-heading-animal-icon2-class-4" d="M68.4,24c0.1,0.1,0.2,0.2,0.2,0.1c0,0,0-0.2,0-0.3c-0.3-0.7-0.4-1.4-0.5-2.1     c0-0.3,0-0.5,0.1-0.8c0.1-0.2,0.3-0.4,0.5-0.5c0.2-0.1,0.5-0.2,0.7-0.1c0.2,0.1,0.5,0.2,0.7,0.4c0.5,0.4,0.8,0.8,1.2,1.3     c0.1,0.2,0.2,0.3,0.4,0.5c0.1,0.1,0.2,0.2,0.2,0.1c0-0.1,0-0.3,0-0.5c0-0.1-0.1-0.2-0.1-0.3l0,0c-0.3-0.5-0.6-1-1.1-1.4     c-0.4-0.4-1.1-0.8-1.7-0.7c-0.6,0.1-1.1,0.5-1.2,1.1c-0.2,0.5-0.1,1.1,0,1.6C67.9,23,68.2,23.5,68.4,24L68.4,24z"></path>				<path class="wdt-custom-heading-animal-icon2-class-4" d="M53.2,31.4c0-0.1,0-0.3,0-0.4c0-0.1-0.1-0.2-0.1-0.3l0,0c-0.2-0.5-0.4-1-0.5-1.6     c-0.1-0.5,0-1.1,0.3-1.4c0.3-0.3,0.8-0.4,1.2-0.2c0.4,0.1,0.8,0.5,1.1,0.8c0.4,0.4,0.7,0.8,1.1,1.3c0.1,0.1,0.2,0.2,0.2,0.1     c0,0,0-0.2,0-0.3c-0.4-0.7-0.8-1.4-1.5-1.9c-0.3-0.2-0.6-0.4-1-0.5c-0.4-0.1-0.8,0-1.1,0.2c-0.3,0.2-0.6,0.5-0.7,0.8     c-0.1,0.3-0.2,0.7-0.1,1c0,0.7,0.3,1.3,0.5,1.8c0.1,0.2,0.2,0.4,0.3,0.5C53,31.3,53.2,31.4,53.2,31.4L53.2,31.4z"></path>				<path class="wdt-custom-heading-animal-icon2-class-4" d="M70.6,34.1c0.1-0.1,0-0.3,0-0.3c-0.1,0-0.2,0.1-0.2,0.2c-0.2,0.3-0.5,0.5-0.9,0.6     c-0.4,0.1-0.7,0.1-1.1,0c-0.6-0.2-1.1-0.5-1.6-1c-0.5-0.4-0.9-1-1.2-1.5c-0.3-0.4-0.5-0.9-0.7-1.3c0.4-1,1.7-4.3,0.1-4.7     c-1.2-0.2-1.6,1.9-1.6,1.9s-2.2-1.1-2.8,0c-0.7,1.3,2.4,3,3.9,3c0.4,0.8,0.8,1.6,1.4,2.4c0,0,0,0.1,0.1,0.2l0,0     c0.3,0.6,0.5,1.3,0.4,2c-0.1,0.6-0.5,1.1-1.1,1.3c-0.3,0.1-0.7,0.2-1,0.1C64.1,37,64,37,64,37c0,0,0.1,0.2,0.1,0.2     c0.6,0.3,1.3,0.2,1.8-0.2c0.4-0.3,0.7-0.7,0.8-1.2c0.1-0.4,0.2-0.9,0.1-1.4c0-0.1,0-0.2-0.1-0.3c0.2,0.2,0.4,0.3,0.6,0.4     c0.5,0.3,1.1,0.5,1.7,0.4C69.7,35.1,70.3,34.7,70.6,34.1L70.6,34.1z"></path>			</g>			<g>				<path class="wdt-custom-heading-animal-icon2-class-5" d="M63.9,52.8c-0.6-0.1-1.2,2.1-0.5,2.2C64.2,55.2,64.7,52.9,63.9,52.8z"></path>				<path class="wdt-custom-heading-animal-icon2-class-5" d="M58.5,57.2c-0.6,0-1,2.1-0.4,2.2C58.8,59.6,59.2,57.3,58.5,57.2z"></path>				<path class="wdt-custom-heading-animal-icon2-class-5" d="M62,59.1c-0.8-0.1-1,1.6-0.3,1.8C62.4,61,62.8,59.2,62,59.1z"></path>				<path class="wdt-custom-heading-animal-icon2-class-5" d="M58.9,61.8c-0.8-0.1-1.1,2.3-0.5,2.4C59.1,64.3,59.9,61.8,58.9,61.8z"></path>				<path class="wdt-custom-heading-animal-icon2-class-5" d="M55.2,63.3c-0.6-0.1-1,1.9-0.5,2C55.3,65.4,56,63.4,55.2,63.3z"></path>				<path class="wdt-custom-heading-animal-icon2-class-5" d="M57.3,65.9c-0.6,0.1-1,2.1-0.3,2.3C57.8,68.5,58.1,65.8,57.3,65.9z"></path>				<path class="wdt-custom-heading-animal-icon2-class-5" d="M53.7,67.2c-0.9,0.1-0.9,2.3-0.1,2.4C54.5,69.8,54.6,67.2,53.7,67.2z"></path>				<path class="wdt-custom-heading-animal-icon2-class-5" d="M49.7,70.6c-0.6,0.1-0.9,1.7-0.1,1.9C50.3,72.6,50.5,70.5,49.7,70.6z"></path>				<path class="wdt-custom-heading-animal-icon2-class-5" d="M34.5,60.1c-0.6-0.3-1.4,1.5-0.7,1.8C34.4,62.2,35.2,60.4,34.5,60.1z"></path>				<path class="wdt-custom-heading-animal-icon2-class-5" d="M36.5,63c-0.7-0.2-1.5,2.1-0.6,2.3C36.8,65.7,37.5,63.3,36.5,63z"></path>				<path class="wdt-custom-heading-animal-icon2-class-5" d="M38.6,58.5c-0.6-0.1-1.4,2.2-0.6,2.4C38.7,61.1,39.3,58.6,38.6,58.5z"></path>				<path class="wdt-custom-heading-animal-icon2-class-5" d="M39,54.4c-0.6-0.2-1.4,2-0.8,2.2C38.8,56.8,39.9,54.7,39,54.4z"></path>				<path class="wdt-custom-heading-animal-icon2-class-5" d="M42.3,57.7c-0.5-0.2-1.5,1.5-0.9,1.9C42.1,59.9,42.9,57.8,42.3,57.7z"></path>				<path class="wdt-custom-heading-animal-icon2-class-5" d="M41,62.1c-0.5-0.2-1,2-0.8,2.1C40.7,64.4,41.6,62.3,41,62.1z"></path>				<path class="wdt-custom-heading-animal-icon2-class-5" d="M42.6,53c-0.6-0.3-1.5,1.7-0.8,2C42.6,55.4,43.6,53.5,42.6,53z"></path>			</g>		</g>	</g></g></svg>