<svg xmlns="http://www.w3.org/2000/svg" x="0px" y="0px" viewBox="0 0 250 150" style="enable-background:new 0 0 250 150;" xml:space="preserve"><style type="text/css">	.wdt-custom-demo_s-class-1{fill:#D4772E;}	.wdt-custom-demo_s-class-2{fill:#7FA9AD;}	.wdt-custom-demo_s-class-3{fill:#DF9944;}	.wdt-custom-demo_s-class-4{fill:#B6D3D6;}	.wdt-custom-demo_s-class-5{fill:#E6E6E6;}</style><g>	<path class="wdt-custom-demo_s-class-1" d="M171.3,110.9c-1.1-11.7-2.2-23.8-6.9-34.8c-5.1-11.8-14.1-20.6-24.8-24.1c-14.6-4.8-33.2,0.4-45.4,12.6  c-10.1,10.1-16.4,24.5-18.6,42.8l-6.7-0.6c2.4-19.6,9.2-35.2,20.3-46.2c6.5-6.5,15.1-11.5,24.3-14.2c9.9-2.9,19.8-2.9,28.6,0  c12.5,4.1,22.9,14.1,28.7,27.5c5.1,11.8,6.2,24.3,7.4,36.4L171.3,110.9L171.3,110.9z"></path>	<path class="wdt-custom-demo_s-class-2" d="M184.5,117.9c-1.4-15.2-2.9-30.9-9-45.2c-6.7-15.5-18.6-27.1-32.6-31.6c-19.2-6.3-43.8,0.5-59.8,16.5  c-13.2,13.2-21.4,32-24.3,55.8l-6.7-0.6c3-25.1,11.8-45.1,26-59.2c8.3-8.3,19.3-14.7,30.9-18.1c12.6-3.7,25.2-3.7,36.3-0.1  c15.8,5.2,29.1,18,36.5,35.1c6.5,15.1,8,31.2,9.4,46.8L184.5,117.9L184.5,117.9z"></path>	<path class="wdt-custom-demo_s-class-3" d="M194.1,117.1c-1.6-17.4-3.3-35.5-10.4-51.9C176,47.3,162.3,34,146.1,28.7c-22.1-7.3-50.5,0.6-69,19  c-15.2,15.2-24.6,36.8-27.9,64.2l-6.7-0.6c3.5-28.7,13.4-51.4,29.6-67.6C81.5,34.3,94,27,107.3,23.1c14.3-4.2,28.6-4.2,41.3-0.1  c18,5.9,33.1,20.4,41.5,39.9c7.4,17.2,9.1,35.7,10.8,53.5L194.1,117.1L194.1,117.1z"></path>	<path class="wdt-custom-demo_s-class-4" d="M204.7,118.9c-1.9-20-3.8-40.7-11.9-59.5c-8.8-20.5-24.5-35.8-43.1-41.9c-25.4-8.3-57.9,0.6-79.1,21.8  c-17.5,17.4-28.2,42.2-32,73.6l-7.7-0.6c4-32.9,15.4-59,34-77.5C75.6,24,89.9,15.6,105.2,11.1c16.5-4.8,32.8-4.8,47.3-0.1  c20.6,6.8,38,23.5,47.6,45.8c8.5,19.7,10.5,40.9,12.4,61.4L204.7,118.9L204.7,118.9z"></path>	<path class="wdt-custom-demo_s-class-5" d="M37.2,95.3c0.2-4.8,0.4-9.8,2.9-14.2c2.5-4.3,8-7.7,13.2-6.7c4.2,0.8,7.2,4.3,8.5,7.9  c1.2,3.7,0.9,7.6,0.6,11.4c2.3-5.7,8.5-9.9,15.3-10.2c3.2-0.1,6.7,0.7,8.6,3c1.6,1.9,1.8,4.6,1.1,6.9c-0.7,2.3-2.1,4.5-3.5,6.5  c4.1-0.5,7.5-0.7,11.5,0.4c4,1.1,7.6,3.3,9.6,6.5c2,3.2,2.1,7.4-0.2,10.5c-1.9,2.5-5.2,4.1-8.5,4.7c-3.3,0.6-6.8,0.5-10.2,0.4  c3.4,3.3,2.2,8.6-0.8,12.2c-3,3.7-8.6,5.3-13.5,4.3c-4.9-1-9-4.4-10.8-8.6c-1.1,4.6-3.8,8.8-8.5,10.9c-4.3,1.9-9.9,1.1-13.2-1.9  c-3.3-3-4-8.1-1.6-11.8c-4.1,3.8-9.9,6.5-15.8,6.8c-5.9,0.4-12.2-2.5-14.1-7.4c-1.2-3.2-0.4-7,1.8-9.8c2.2-2.8,5.7-4.8,9.4-5.8  c-6-1.4-10.1-7-9.8-12.5c0.3-5.5,5.2-10.7,11.3-11.8C26.9,86.2,34.7,90.3,37.2,95.3L37.2,95.3z"></path>	<path class="wdt-custom-demo_s-class-5" d="M182.9,95.2c-0.7-3.1-0.2-6.5,1.7-9.3c1.9-2.8,5.1-4.9,8.7-5.4c3.6-0.5,7.4,0.7,9.7,3.1c2.7,2.9,3,7,3.1,10.8  c2.4-3.8,5.6-6.6,10.3-8c4.7-1.3,10.2-0.4,13.4,2.8c3.2,3.2,3.4,8.7-0.1,11.7c2.8-2.1,7.1-1.1,9.7,1.2c2.5,2.3,3.4,5.7,3.1,8.9  c-0.2,3.2-1.4,6.5-3.9,8.8c-2.5,2.4-6.4,3.7-9.9,2.9c3.9,2.9,3.8,8.2,1.3,12.2c-2.5,4-8.3,6.1-13.2,4.9c-4.1-1.1-7.1-4.1-9.4-7.3  c-0.5,3.8-3.9,6.8-7.8,8.2c-4,1.4-8.7,0.7-12-1.7c-3.2-2.4-4.8-6.5-3.9-10.2c-4.7,2.5-10.3,3.6-15.4,2c-5.2-1.6-9.2-6.1-9-10.9  c0.2-5.1,5.6-9.6,11.3-9.7c-5.5,0-10.9-4.3-11.3-9.1c-0.5-4.9,3.5-9.8,8.9-11.1C173.6,88.8,180.2,91,182.9,95.2L182.9,95.2z"></path></g></svg>