<svg xmlns="http://www.w3.org/2000/svg" x="0px" y="0px" viewBox="0 0 150 60" style="enable-background:new 0 0 150 60;" xml:space="preserve" fill="#FDDD28"><g>	<path d="M5.8,54.8c-4.8-11.1-2.5-24.5,4.5-34.2c3.6-5,8.7-9.3,14.6-11.3c3.5-1.2,7.4-1.6,10.8,0  c3.1,1.5,5.3,4.3,7.1,7.1c4.1,6.7,6.7,14.4,7.8,22.2c0.6,3.9,0.7,7.9,0.5,11.8C51,52,50.9,53.6,50.2,55c-0.5,0.9-1.2,2-2.4,1.8  c-1.3-0.3-1.8-2.1-2.1-3.3c-0.5-2-1-4.1-1.4-6.2c-0.9-4.3-1.7-8.6-1.9-13c-0.4-7.4,0.8-14.9,5-21.1c3.4-5.2,8.9-9.4,15.2-10  c6.9-0.6,13.3,3.1,17.7,8.1c5,5.7,7.4,13.2,8.8,20.5c0.4,2,0.7,4,1,6c0.2,1.6,0.5,3.3,0.5,5c0,1.2-0.2,2.6-0.9,3.6  c-0.6,0.9-1.7,1.2-2.7,0.8c-1.2-0.5-1.9-1.9-2.4-3c-0.7-1.6-1-3.3-1.3-5c-0.8-4-1.3-8-1-12c0.2-3.7,1.1-7.5,2.9-10.7  c1.7-2.9,4.1-5.3,7-7C94.8,8,98,7.3,101,8c2.6,0.5,5,1.9,6.9,3.8c4.2,4.2,6.1,10.2,7.4,15.8c0.3,1.5,0.6,3.1,0.8,4.6  c0.2,1.8,0.5,3.9-0.5,5.5c-0.7,1.1-2.1,2-3.3,1.4c-1.3-0.7-1.7-2.6-1.9-3.9c-1.1-6.2,0.6-12.8,3.9-18c3.2-5,8.2-9.1,14.1-10.3  c5-1,10.9-0.1,14.8,3.3c1.8,1.6,3,3.7,3.5,6.1c0.1,0.6,0.9,1,1.4,0.8c0.6-0.2,0.9-0.8,0.8-1.4c-1.1-6-6.5-9.8-12.2-11  c-3-0.6-6.2-0.6-9.2,0c-3.2,0.7-6.2,2.2-8.8,4.2c-5.6,4.3-9.5,10.7-10.7,17.7c-0.6,3.5-0.6,7.1,0.3,10.5c0.5,1.8,1.4,3.6,3.2,4.3  c1.7,0.7,3.6,0,5-1.2c3.1-2.9,2-7.8,1.3-11.4c-0.6-3.3-1.5-6.5-2.7-9.6c-2.4-5.8-6.3-11.5-12.7-13.2C95.1,4,87.9,8.2,83.9,14.2  C79,21.4,79.3,30.8,80.8,39c0.6,3.4,1.3,7.6,4.3,9.8c1.3,1,3,1.2,4.5,0.6c1.5-0.6,2.4-1.9,2.8-3.4c0.5-1.5,0.6-3.1,0.4-4.6  c-0.1-2.1-0.5-4.1-0.8-6.1c-0.6-4.3-1.5-8.5-2.9-12.6c-2.6-7.5-7.1-14.5-14-18.6C71.9,2.2,68.3,1,64.5,0.9  C61,0.8,57.5,1.8,54.4,3.5C48.1,7,43.7,13.4,41.6,20.1c-2.7,8.8-1.5,18.3,0.3,27.1c0.5,2.3,1,4.6,1.6,6.8c0.4,1.6,1.1,3.4,2.6,4.4  c1.5,1,3.3,0.7,4.6-0.3c1.2-1,2-2.7,2.3-4.2c0.5-1.9,0.5-3.9,0.5-5.9c0-2.2,0-4.4-0.2-6.6c-0.4-4.3-1.2-8.6-2.5-12.8  c-1.3-4.1-3-8.2-5.1-11.9c-1.9-3.3-4.2-6.6-7.5-8.7c-7-4.5-16-1.2-22.1,3.3c-5.4,4-9.5,9.5-12.1,15.7C1.5,33.2,0.5,40,1.3,46.5  C1.7,49.8,2.5,53,3.8,56c0.2,0.6,1.1,0.7,1.6,0.4C6,56,6.1,55.4,5.8,54.8L5.8,54.8z"></path></g></svg>