<svg xmlns="http://www.w3.org/2000/svg" x="0px" y="0px" viewBox="0 0 100 50" style="enable-background:new 0 0 100 50;" xml:space="preserve" fill="#96BDC4"><g>	<path d="M13.2,29.1H-0.1v3.3h13.4V29.1z"></path>	<path d="M15.1,22.4L15,24.5l13.3,0.1l0.1-2.1L15.1,22.4z"></path>	<path d="M18.6,12.6L5.3,12.7l0.1,3.5l13.4-0.1L18.6,12.6z"></path>	<path d="M43,13.2l-13.3,0.7l1.1,4l13.3-0.7L43,13.2z"></path>	<path d="M46.3,4.3L33,4.5l0.3,4l13.3-0.2L46.3,4.3z"></path>	<path d="M45.5,29.2l-13.3,0.3l0.5,4.1L46,33.4L45.5,29.2z"></path>	<path d="M54.1,21.2l-13.3,0.4l0.7,4l13.3-0.4L54.1,21.2z"></path>	<path d="M66.7,13.1l-13.3,0.5l0.8,3.8l13.3-0.5L66.7,13.1z"></path>	<path d="M85.1,3.8L71.7,3.9l0.4,5.7l13.3-0.2L85.1,3.8z"></path>	<path d="M70.1,25.7l-0.4,5.7L83,31.6l0.4-5.7L70.1,25.7z"></path>	<path d="M49.9,37.8l-0.8,4.5l13.3,0.4l0.8-4.5L49.9,37.8z"></path>	<path d="M25.4,38.1l-0.5,4.3l13.3,0.3l0.5-4.3L25.4,38.1z"></path>	<path d="M86.7,17l-1.2,3.1l13.2,0.9l1.2-3.1L86.7,17z"></path>	<path d="M80.6,41l-1.2,4.1l13.3,0.7l1.2-4.1L80.6,41z"></path></g></svg>