<svg xmlns="http://www.w3.org/2000/svg" x="0px" y="0px" viewBox="0 0 50 50" style="enable-background:new 0 0 50 50;" xml:space="preserve"><style type="text/css">	.wdt-custom-star-icon-class-1{fill:#F8E170;}	.wdt-custom-star-icon-class-2{fill:#333333;}</style><g>	<path class="wdt-custom-star-icon-class-1" d="M27.4,11.5l2.9,5.7c0.4,0.8,1.1,1.3,2,1.4l6.4,0.9c2.2,0.3,3.1,2.9,1.5,4.5l-4.6,4.4  c-0.6,0.6-0.9,1.5-0.8,2.3l1.1,6.2c0.4,2.1-1.9,3.8-3.9,2.8l-5.7-2.9c-0.8-0.4-1.7-0.4-2.5,0L18,39.7c-2,1-4.3-0.6-3.9-2.8l1.1-6.2  c0.1-0.8-0.1-1.7-0.8-2.3l-4.6-4.4c-1.6-1.5-0.7-4.2,1.5-4.5l6.4-0.9c0.9-0.1,1.6-0.7,2-1.4l2.9-5.7C23.6,9.5,26.4,9.5,27.4,11.5  L27.4,11.5z"></path>	<g>		<path class="wdt-custom-star-icon-class-2" d="M23.5,24.9c0.4,0,0.7-0.5,0.7-1.2s-0.3-1.2-0.7-1.2c-0.4,0-0.7,0.5-0.7,1.2   S23.1,24.9,23.5,24.9z"></path>		<path class="wdt-custom-star-icon-class-2" d="M26.6,24.9c0.4,0,0.7-0.5,0.7-1.2s-0.3-1.2-0.7-1.2s-0.7,0.5-0.7,1.2S26.2,24.9,26.6,24.9z"></path>		<path class="wdt-custom-star-icon-class-2" d="M21.4,26.7c-0.1,0-0.2,0.1-0.1,0.3c0.8,1.7,1.8,2.9,3,3.3c1.1,0.4,2.3,0,3.3-1.1   c0.6-0.6,1.1-1.4,1.5-2.4c0.1-0.2,0-0.3-0.1-0.3L21.4,26.7L21.4,26.7z"></path>	</g></g></svg>