<svg xmlns="http://www.w3.org/2000/svg" x="0px" y="0px" viewBox="0 0 50 50" style="enable-background:new 0 0 50 50;" xml:space="preserve" fill="#FFD59A"><g>	<path d="M40,44.3c-2.7-0.9-5.3-2.6-8.1-2.8c-4.2,0-8.5,9.2-11.3,4.1c-1.6-3.2,0.8-7.7-1-10.9c-1.8-2.8-4.9-3.9-7.1-6.2  c-1-1.3-0.8-3.2,0.6-4.1c2.8-1.3,6.1-1.1,8.5-3c3-2.6,1.8-7.7,4.4-10.3c3.6-3.4,5.5,4.7,8.1,7.3c2.8,2.6,6.9,0.4,10.5,1.1  c1.2,0.4,2.2,1.9,1.8,3.2c-1.2,3.6-5.1,5.8-5.3,9.4c-0.2,3,1.2,6,2.1,8.9C43.8,43,41.9,45,40,44.3L40,44.3z"></path>	<path d="M37,1.7c0.3-0.5,0.9-0.7,1.4-0.4c0.5,0.3,0.7,1,0.4,1.5c-1.2,1.8-2.3,3.6-3.3,5.5c-0.3,0.5-0.9,0.7-1.4,0.4  c-0.5-0.3-0.6-1-0.4-1.5C34.7,5.3,35.8,3.4,37,1.7z"></path>	<path d="M41.4,12c0.3-0.2,0.7-0.4,1-0.6c0.2-0.1,0.3-0.2,0.5-0.3c0,0,0,0,0,0c0,0,0,0,0,0c0.1-0.1,0.1-0.1,0.2-0.2  c0.3-0.3,0.6-0.5,0.8-0.8c0.1-0.1,0.2-0.3,0.4-0.4c0.1-0.1,0.1-0.2,0.2-0.2c0,0,0-0.1,0.1-0.1c0.2-0.2,0.3-0.4,0.6-0.5  c0.3-0.1,0.6,0,0.8,0.1c0.2,0.1,0.4,0.4,0.5,0.7c0.1,0.2,0,0.6-0.1,0.9c-1,1.5-2.3,2.8-3.9,3.6c-0.5,0.3-1.1,0.1-1.4-0.4  C40.8,13,41,12.2,41.4,12z"></path>	<path d="M3.8,39c0.4,0.4,1,0.4,1.4,0c0.1-0.1,0.2-0.2,0.3-0.2c0,0,0.1-0.1,0.1-0.1c0,0,0,0,0,0c0,0,0,0,0,0  c0,0,0,0,0,0c0.2-0.1,0.3-0.3,0.5-0.4c0.4-0.3,0.8-0.5,1.2-0.8c0.1-0.1,0.2-0.1,0.3-0.2c0,0,0,0,0.1,0c0,0,0.1,0,0.1,0  c0.2-0.1,0.4-0.2,0.6-0.3c0.4-0.2,0.9-0.3,1.4-0.4c0.5-0.1,0.9-0.8,0.7-1.4c-0.2-0.6-0.7-0.9-1.3-0.8c-2.1,0.4-4,1.5-5.5,3  C3.4,37.8,3.4,38.6,3.8,39L3.8,39z"></path>	<path d="M8.5,46.8c0.5-0.3,1-0.6,1.5-1c0.2-0.2,0.5-0.3,0.7-0.5c0.1-0.1,0.2-0.2,0.3-0.3c0.1,0,0.1-0.1,0.2-0.2  c0,0,0,0,0,0c0,0,0,0,0,0c0.5-0.4,0.9-0.8,1.3-1.2c0.2-0.2,0.4-0.4,0.6-0.6c0.1-0.1,0.1-0.2,0.2-0.3c0-0.2,0.1-0.3,0.1-0.5  c0.3-0.6,0.9-0.6,1.4-0.4c0.6,0.3,0.7,1.2,0.4,1.8c-0.2,0.3-0.5,0.6-0.7,0.9c-0.5,0.5-1,1-1.5,1.5c-1.1,1-2.3,1.9-3.6,2.6  C9,49,8.4,48.9,8.1,48.4C7.8,47.9,8,47.1,8.5,46.8L8.5,46.8z"></path></g></svg>