<svg xmlns="http://www.w3.org/2000/svg" x="0px" y="0px" viewBox="0 0 100 100" style="enable-background:new 0 0 100 100;" xml:space="preserve" fill="#FFCA6C"><g>	<g>		<path d="M68.7,48.2c-0.5-1.3-2.7-1.7-3.1,0c-0.9,4-1.3,7.7-4.2,11c-2.9,3.2-7.2,4.9-11.5,4.9c-4.2,0-8.3-1.4-11.4-4.1   c-3.1-2.6-6.2-6.9-5.5-11.1c0.6-4.3,4.1-7.8,7.8-9.9c3.9-2.2,10.3-4.2,14.9-3.1c4.3,1.1,6.7,5.6,6.4,9.7c-0.3,4.2-3.1,8.7-6.8,11   c-4.4,2.7-13.1-0.8-12.6-6.5c0.2-2.1,2.5-5,4.8-5.4c0.8-0.1,1,0,1.1,0.5c-2.3,0.2-4.6,2.4-3.9,5c1.1,3.9,5.4,5.8,9.1,3.8   c3.5-1.9,5.2-6.3,4.1-10.1c-1.1-3.6-5.2-5.9-8.9-5.3c-3.1,0.5-6.3,3.1-8.3,5.4c-4.8,5.7-0.1,12.5,5.7,15.2   c6.5,2.9,12-0.1,15.7-5.6c3.4-5.1,4-11.9-0.2-16.8c-4.7-5.5-13.1-4.3-19.2-2c-6,2.2-11.8,6.8-13.2,13.2   c-1.4,6.4,3.2,12.8,8.2,16.5c6.2,4.6,14.6,5.5,21.6,2.1C65.3,63.3,71.4,55.1,68.7,48.2L68.7,48.2z"></path>	</g>	<g class="wdt-custom-circle-path-animation">		<path d="M59,1.3c0-0.3-0.5-0.4-0.6-0.1c-0.9,3.3-1.8,6.7-2.7,10.1c-0.7,2.7-2.1,6.5-1.1,9.3c0.3,0.9,1.9,1.4,2.4,0.3   c1.3-2.7,1.1-6.5,1.5-9.5C59,8,59.4,4.6,59,1.3L59,1.3z"></path>		<path d="M46.4,80.4c-0.4-0.9-1.4-1.3-2.2-0.6c-1.3,1.1-1.1,2.1-1.3,3.7c-0.1,1.7-0.3,3.4-0.3,5.2   c0,3.3,0.2,6.9,1.4,10c0.1,0.3,0.6,0.3,0.7-0.1c0.3-3.2,0.1-6.3,0.5-9.5c0.2-1.6,0.5-3.2,0.9-4.8C46.5,82.7,47.1,82,46.4,80.4   L46.4,80.4z"></path>		<path d="M26.7,69.9c0-0.9-0.6-1.6-1.5-1.9c-1.3-0.4-2.3,0.3-3.5,0.9c-1.8,0.9-3.5,1.8-5.2,2.8c-2.7,1.6-5.8,3.5-7.7,6   C8.7,77.8,8.9,78,9,78c2.7-0.6,5.3-2.1,7.9-3.1c2.4-1,4.7-1.9,7.1-2.8c1.2,0.4,2.7-0.3,2.7-1.8C26.7,70.1,26.7,70,26.7,69.9   L26.7,69.9z"></path>		<path d="M19.9,44.4c-2-2.1-6.8-0.8-9.4-0.5c-2.9,0.3-7,0.1-9.3,1.9C0.9,46,1,46.4,1.3,46.5c3.4,0.3,6.8,0.4,10.2,0.6   c2.5,0.1,6.6,1,8.4-1C20.3,45.5,20.4,44.9,19.9,44.4L19.9,44.4z"></path>		<path d="M34.1,22.5c-2-1.8-3.8-3.8-5.7-5.7c-1.3-1.4-2.7-3.4-4.8-3.6c-0.1,0-0.1,0.1-0.1,0.1c0.2,2.1,1.6,4.3,2.5,6.2   c1.2,2.3,2.7,4.5,4.5,6.4C32.8,28.1,36.4,24.6,34.1,22.5z"></path>		<path d="M87.3,20.9c-0.1-0.1-0.2,0-0.2,0c-0.3,0.6-1.7,0.9-2.3,1.1c-1,0.5-2,1-3,1.6c-2.1,1.2-4.6,2.1-6.5,3.7   c-0.7,0.6-1.1,1.5-0.7,2.4c0.1,0.2,0.2,0.3,0.3,0.5c0.6,0.8,1.6,1,2.4,0.7C79.2,30.2,90.3,23.3,87.3,20.9z"></path>		<path d="M99,54.6c-1.3-2.1-4.4-1.9-6.6-2.3c-3-0.6-5.8-2.1-9-2.1c-3,0-2.9,4.2,0,4.5C86.3,55,89,56,91.9,56   c2.1,0,5.1,0,7-1.1C99,54.8,99,54.7,99,54.6L99,54.6z"></path>		<path d="M80.4,84c-1.4-0.5-2.5-3-3.3-4.1c-1-1.3-2-2.5-3-3.8c-1.6-2.1-3.4-4.7-6.1-5.5c-1.2-0.3-2.3,0.8-2,1.9   c0.9,3.4,5.2,5.9,7.8,7.9c1.7,1.3,4.2,4.2,6.5,3.8C80.5,84.3,80.5,84.1,80.4,84z"></path>	</g></g></svg>