<svg xmlns="http://www.w3.org/2000/svg" x="0px" y="0px" viewBox="0 0 50 50" style="enable-background:new 0 0 50 50;" xml:space="preserve"><style type="text/css">	.wdt-custom-sun-class-1{fill:#F8E170;}	.wdt-custom-sun-class-2{fill:#333333;}	.wdt-custom-sun-class-3{fill:#FEB048;}</style><g>	<path class="wdt-custom-sun-class-1" d="M16.6,21.6c-1,2.3-1,5.1,0.4,7.2c1.2,1.7,3,2.7,5,3.4c1.9,0.7,3.9,1.1,5.8,0.8  c3.1-0.6,5.7-3.2,6.3-6.3c0.6-3.1-0.6-6.4-3-8.5c-1.9-1.7-4.4-2.4-6.9-2.3c-0.8,0.1-1.8,0.3-2.4,0.6c-1,0.4-1.9,1-2.7,1.7  C18.1,19.1,17.2,20.3,16.6,21.6L16.6,21.6z"></path>	<g>		<path class="wdt-custom-sun-class-2" d="M23.9,23.5c0,0.7-0.4,1.4-0.8,1.4c-0.4,0-0.8-0.6-0.8-1.4c0-0.7,0.4-1.4,0.8-1.4   C23.6,22.1,23.9,22.7,23.9,23.5z"></path>		<path class="wdt-custom-sun-class-2" d="M28,23.5c0,0.7-0.4,1.4-0.8,1.4c-0.4,0-0.8-0.6-0.8-1.4c0-0.7,0.4-1.4,0.8-1.4   C27.7,22.1,28,22.7,28,23.5z"></path>		<path class="wdt-custom-sun-class-2" d="M20.3,26.1c0.9,0.9,2.1,1.5,3.4,1.7c1.3,0.2,2.6,0,3.8-0.6c0.7-0.3,1.2-0.7,1.7-1.3   c0.1-0.1-0.1-0.2-0.1-0.1c-0.9,0.9-2,1.5-3.2,1.8c-1.2,0.2-2.5,0.1-3.7-0.5c-0.6-0.3-1.2-0.7-1.7-1.2C20.4,25.9,20.2,26,20.3,26.1   L20.3,26.1z"></path>	</g>	<g>		<g>			<path class="wdt-custom-sun-class-3" d="M30.9,24.4c0,0.2-0.2,0.3-0.5,0.3s-0.5-0.1-0.5-0.3s0.2-0.3,0.5-0.3S30.9,24.3,30.9,24.4z"></path>			<path class="wdt-custom-sun-class-3" d="M32.6,24.4c0,0.2-0.2,0.3-0.5,0.3c-0.3,0-0.5-0.1-0.5-0.3s0.2-0.3,0.5-0.3    C32.4,24.1,32.6,24.3,32.6,24.4z"></path>			<path class="wdt-custom-sun-class-3" d="M31.7,25.4c0,0.1-0.2,0.3-0.5,0.3c-0.3,0-0.5-0.1-0.5-0.3s0.2-0.3,0.5-0.3    C31.4,25.1,31.7,25.2,31.7,25.4z"></path>		</g>		<g>			<path class="wdt-custom-sun-class-3" d="M18.7,24.5c0,0.2-0.2,0.3-0.5,0.3s-0.5-0.1-0.5-0.3c0-0.1,0.2-0.3,0.5-0.3    S18.7,24.4,18.7,24.5z"></path>			<path class="wdt-custom-sun-class-3" d="M20.4,24.5c0,0.2-0.2,0.3-0.5,0.3s-0.5-0.1-0.5-0.3c0-0.1,0.2-0.3,0.5-0.3    S20.4,24.4,20.4,24.5z"></path>			<path class="wdt-custom-sun-class-3" d="M19.5,25.5c0,0.2-0.2,0.3-0.5,0.3c-0.3,0-0.5-0.1-0.5-0.3c0-0.2,0.2-0.3,0.5-0.3    C19.2,25.2,19.5,25.3,19.5,25.5z"></path>		</g>	</g>	<g>		<path class="wdt-custom-sun-class-1" d="M24.4,3.8c0.1-0.3,0.3-0.7,0.6-0.9c0.3-0.2,0.7-0.4,1-0.2c0.4,0.2,0.5,0.8,0.5,1.2   c0.1,2.9,0,5.9-0.5,8.8c-0.1,0.5-0.3,2-1.1,1.8c-0.8-0.2-0.9-1.3-0.9-1.9c-0.2-1.9-0.4-3.8-0.2-5.6C23.8,5.8,24.1,4.8,24.4,3.8   L24.4,3.8z"></path>		<path class="wdt-custom-sun-class-1" d="M34.4,3.2c0.3-0.3,0.6-0.7,1.1-0.7c0.5,0,0.9,0.4,0.9,0.9c0.1,0.5,0,0.9-0.2,1.4   c-1.2,3.8-3.4,7.4-6.3,10.2c-0.2,0.2-0.8,0.6-1,0.2c-0.2-0.3,0.1-0.7,0.2-1c0.3-1,0.6-1.9,0.9-2.8c0.3-0.9,0.7-1.9,1.1-2.8   c0.4-0.9,0.8-1.8,1.3-2.6c0.5-0.8,1-1.7,1.7-2.4C34.2,3.4,34.3,3.3,34.4,3.2L34.4,3.2z"></path>		<path class="wdt-custom-sun-class-1" d="M41.9,11c0.4-0.1,0.7-0.2,1.1-0.1c0.4,0.1,0.7,0.4,0.7,0.7c0,0.5-0.3,0.8-0.7,1.1   c-2.3,1.8-4.8,3.4-7.5,4.7c-0.5,0.2-1.8,0.9-2.1,0.1c-0.3-0.8,0.6-1.5,1-1.9c1.4-1.3,2.8-2.5,4.5-3.5C39.9,11.7,40.9,11.3,41.9,11   L41.9,11z"></path>		<path class="wdt-custom-sun-class-1" d="M48.2,21.1c0.4,0,0.9,0.1,1.2,0.5c0.3,0.4,0.1,0.9-0.2,1.3c-0.3,0.3-0.8,0.5-1.2,0.7   c-3.8,1.3-8,1.6-12,0.9c-0.3-0.1-1-0.3-0.8-0.7c0.1-0.3,0.7-0.3,0.9-0.4c1-0.3,1.9-0.6,2.9-0.9c1-0.3,1.9-0.5,2.9-0.8   c1-0.2,1.9-0.4,2.9-0.5c1-0.1,2-0.1,3-0.1C47.9,21.1,48.1,21.1,48.2,21.1z"></path>		<path class="wdt-custom-sun-class-1" d="M44.2,35.4c0.2,0.3,0.4,0.6,0.4,1c0,0.4-0.1,0.8-0.5,0.9c-0.4,0.2-0.9-0.1-1.3-0.3   c-2.5-1.6-4.8-3.5-6.8-5.6c-0.4-0.4-1.4-1.4-0.8-2c0.6-0.5,1.6,0.1,2.1,0.4c1.7,0.9,3.3,1.9,4.7,3.2   C42.9,33.7,43.6,34.5,44.2,35.4z"></path>		<path class="wdt-custom-sun-class-1" d="M38.5,44.7c0.1,0.4,0.2,0.9-0.1,1.2c-0.3,0.4-0.9,0.4-1.3,0.2c-0.4-0.2-0.7-0.6-1-1   c-2.4-3.2-4-7-4.6-11c0-0.3,0-1,0.5-1c0.3,0,0.5,0.5,0.7,0.8c0.6,0.8,1.2,1.6,1.8,2.4c0.6,0.8,1.1,1.6,1.6,2.5   c0.5,0.8,1,1.7,1.4,2.6c0.4,0.9,0.7,1.8,1,2.8C38.4,44.5,38.4,44.6,38.5,44.7L38.5,44.7z"></path>		<path class="wdt-custom-sun-class-1" d="M7.1,39.1c-0.4,0.1-0.8,0.2-1.2,0.1c-0.4-0.1-0.8-0.4-0.8-0.8c0-0.5,0.4-0.9,0.8-1.2   c2.6-2,5.4-3.8,8.4-5.3c0.5-0.3,2-1,2.3-0.2c0.3,0.8-0.6,1.6-1.2,2.1c-1.6,1.4-3.2,2.8-5,3.9C9.3,38.3,8.2,38.8,7.1,39.1z"></path>		<path class="wdt-custom-sun-class-1" d="M1.8,28.1c-0.4,0-0.9-0.1-1.2-0.5c-0.3-0.4-0.1-0.9,0.2-1.3c0.3-0.3,0.8-0.5,1.2-0.7   c3.8-1.3,8-1.6,12-0.9c0.3,0.1,1,0.3,0.8,0.7c-0.1,0.3-0.7,0.3-0.9,0.4c-1,0.3-1.9,0.6-2.9,0.9c-1,0.3-1.9,0.5-2.9,0.8   c-1,0.2-1.9,0.4-2.9,0.5c-1,0.1-2,0.1-3,0.1C2.1,28.1,1.9,28.1,1.8,28.1z"></path>		<path class="wdt-custom-sun-class-1" d="M6.4,13.9c-0.2-0.3-0.4-0.6-0.4-1c0-0.4,0.1-0.8,0.5-0.9c0.4-0.2,0.9,0.1,1.3,0.3   c2.5,1.6,4.8,3.5,6.8,5.6c0.4,0.4,1.4,1.4,0.8,2c-0.6,0.5-1.6-0.1-2.1-0.4c-1.7-0.9-3.3-1.9-4.7-3.2C7.7,15.5,6.9,14.7,6.4,13.9   L6.4,13.9z"></path>		<path class="wdt-custom-sun-class-1" d="M12.1,4.5c-0.1-0.4-0.2-0.9,0.1-1.2C12.5,2.9,13,2.8,13.5,3c0.4,0.2,0.7,0.6,1,1   c2.4,3.2,4,7,4.6,11c0,0.3,0,1-0.5,1c-0.3,0-0.5-0.5-0.7-0.8c-0.6-0.8-1.2-1.6-1.8-2.4c-0.6-0.8-1.1-1.6-1.6-2.5   c-0.5-0.8-1-1.7-1.4-2.6c-0.4-0.9-0.7-1.8-1-2.8C12.1,4.7,12.1,4.6,12.1,4.5L12.1,4.5z"></path>		<path class="wdt-custom-sun-class-1" d="M27.9,46.3c-0.1,0.3-0.3,0.7-0.6,0.9c-0.3,0.2-0.7,0.4-1,0.2c-0.4-0.2-0.5-0.8-0.5-1.2   c-0.1-2.9,0-5.9,0.5-8.8c0.1-0.5,0.3-2,1.1-1.8c0.8,0.2,0.9,1.3,0.9,1.9c0.2,1.9,0.4,3.8,0.2,5.6C28.5,44.3,28.3,45.3,27.9,46.3   L27.9,46.3z"></path>		<path class="wdt-custom-sun-class-1" d="M16.8,46.6c-0.3,0.3-0.6,0.7-1.1,0.7c-0.5,0-0.8-0.4-0.9-0.9c-0.1-0.5,0-0.9,0.2-1.4   c1.2-3.8,3.4-7.4,6.3-10.1c0.2-0.2,0.8-0.6,1-0.2c0.2,0.3-0.1,0.7-0.2,1c-0.3,0.9-0.6,1.9-0.9,2.8c-0.3,0.9-0.7,1.9-1.1,2.8   c-0.4,0.9-0.8,1.8-1.3,2.6c-0.5,0.8-1.1,1.7-1.7,2.4C17,46.5,16.9,46.6,16.8,46.6L16.8,46.6z"></path>	</g></g></svg>