<svg xmlns="http://www.w3.org/2000/svg" x="0px" y="0px" viewBox="0 0 241 107" style="enable-background:new 0 0 241 107;" xml:space="preserve" fill="#FFD59A"><g>	<mask maskUnits="userSpaceOnUse" x="0.9" y="0.9" width="239.2" height="106">		<path d="M174.7,106.8l-0.1-1.1c1.2-0.1,2.4-0.3,3.6-0.7l0.3,1.1C177.3,106.4,176,106.7,174.7,106.8L174.7,106.8z    M170.9,106.9c-1.3-0.1-2.6-0.3-3.8-0.5l0.3-1.1c1.2,0.3,2.4,0.5,3.6,0.5L170.9,106.9L170.9,106.9z M182.1,104.8l-0.4-1   c1.1-0.5,2.2-1.1,3.2-1.7l0.6,1C184.4,103.8,183.3,104.3,182.1,104.8L182.1,104.8z M163.6,105.1L163.6,105.1   c-0.2-0.1-0.5-0.2-0.8-0.3c-0.6-0.2-1.6-0.6-2.7-1.1l0.5-1c1.1,0.5,2,0.8,2.7,1.1c0.3,0.1,0.6,0.2,0.8,0.3l0.1,0l-0.3,0.5   L163.6,105.1L163.6,105.1z M188.5,100.8l-0.7-0.8c0.9-0.8,1.8-1.7,2.5-2.6l0.9,0.7C190.4,99,189.5,99.9,188.5,100.8z M156.6,102   c-1.1-0.6-2.2-1.4-3.2-2.1l0.7-0.9c1,0.7,2,1.4,3.1,2L156.6,102z M150.6,97.4c-0.9-0.9-1.8-1.8-2.5-2.8l0.9-0.7   c0.8,0.9,1.6,1.9,2.5,2.7L150.6,97.4L150.6,97.4z M193.2,94.8l-1-0.5c0.5-1.1,0.9-2.3,1.1-3.4l1.1,0.2   C194.2,92.3,193.8,93.6,193.2,94.8z M100.4,94.8c-0.3,0-0.7,0-1.1,0l0-1.1c0.4,0,0.7,0,1.1,0c0.7,0,1.6-0.1,2.6-0.2l0.1,1.1   C102.1,94.7,101.2,94.8,100.4,94.8z M95.5,94.6c-1.2-0.1-2.4-0.3-3.7-0.5l0.2-1.1c1.3,0.2,2.5,0.3,3.7,0.4L95.5,94.6L95.5,94.6z    M106.8,94l-0.2-1.1c1.2-0.2,2.4-0.4,3.7-0.7l0.2,1.1C109.2,93.6,108,93.8,106.8,94z M145.9,91.5c-0.6-1.1-1.2-2.2-1.8-3.4l1-0.5   c0.5,1.1,1.1,2.2,1.7,3.2L145.9,91.5z M114.2,92.5l-0.3-1.1c1.2-0.3,2.4-0.6,3.6-0.9l0.3,1.1C116.6,91.9,115.4,92.2,114.2,92.5z    M88.1,93.5c-1.2-0.2-2.5-0.5-3.7-0.8l0.3-1.1c1.2,0.3,2.4,0.5,3.6,0.8L88.1,93.5z M193.4,87.3c-0.1-1.2-0.5-2.3-0.9-3.4l1-0.4   c0.5,1.2,0.9,2.5,1,3.7L193.4,87.3L193.4,87.3z M121.4,90.5l-0.3-1.1c1.2-0.4,2.4-0.8,3.5-1.2l0.4,1.1   C123.8,89.7,122.6,90.1,121.4,90.5L121.4,90.5z M80.8,91.8c-1.2-0.3-2.4-0.7-3.6-1.1l0.3-1.1c1.2,0.4,2.4,0.7,3.6,1.1L80.8,91.8   L80.8,91.8z M56.8,92.7c-0.9,0-1.7,0.1-2.6,0.1l0-1.1c1.2,0,2.5-0.1,3.7-0.1l0.1,1.1C57.5,92.7,57.2,92.7,56.8,92.7z M61.7,92.2   l-0.2-1.1c1.2-0.2,2.5-0.4,3.6-0.6l0.2,1.1C64.2,91.9,62.9,92.1,61.7,92.2L61.7,92.2z M50.4,92.7c-1-0.1-2.1-0.1-3.1-0.2   c-0.2,0-0.4,0-0.7-0.1l0.1-1.1c0.2,0,0.4,0,0.6,0.1c1,0.1,2,0.2,3,0.2L50.4,92.7z M128.5,88l-0.4-1c1.2-0.5,2.3-1,3.4-1.5l0.5,1   C130.9,87,129.7,87.5,128.5,88L128.5,88z M69,90.7l-0.3-1.1c0.9-0.3,1.9-0.6,2.8-0.9c-0.5-0.2-0.9-0.4-1.4-0.6l0.5-1   c1.1,0.5,2.2,1,3.4,1.4l-0.4,1c-0.4-0.1-0.8-0.3-1.1-0.4l0.1,0.4C71.5,89.9,70.3,90.3,69,90.7L69,90.7z M42.9,91.9   c-1.2-0.2-2.5-0.4-3.7-0.7l0.2-1.1c1.2,0.3,2.4,0.5,3.6,0.7L42.9,91.9z M35.6,90.3c-1.2-0.3-2.4-0.7-3.6-1.1l0.3-1.1   c1.2,0.4,2.4,0.7,3.5,1.1L35.6,90.3z M76.1,88l-0.5-1c1.1-0.5,2.2-1.1,3.2-1.8l0.6,1C78.3,86.8,77.2,87.4,76.1,88L76.1,88z    M142.8,84.6c-0.4-1.2-0.7-2.4-1-3.7l1.1-0.2c0.3,1.2,0.6,2.4,1,3.6L142.8,84.6z M135.3,84.8l-0.5-1c1.1-0.6,2.2-1.3,3.1-1.9   l0.6,0.9C137.6,83.5,136.5,84.2,135.3,84.8L135.3,84.8z M190.6,80.7c-0.5-0.7-1.1-1.4-1.8-2.1c-0.2-0.2-0.4-0.4-0.6-0.6l0.8-0.8   c0.2,0.2,0.4,0.4,0.7,0.7c0.7,0.7,1.3,1.5,1.9,2.2L190.6,80.7L190.6,80.7z M66.7,86.5c-1.2-0.6-2.3-1.2-3.3-1.9l0.6-0.9   c1,0.6,2.1,1.2,3.2,1.8L66.7,86.5z M28.4,87.9c-1.2-0.5-2.3-0.9-3.5-1.4l0.5-1c1.1,0.5,2.3,1,3.4,1.4L28.4,87.9L28.4,87.9z    M82.5,84l-0.7-0.9c1-0.8,1.9-1.6,2.8-2.4l0.8,0.8C84.5,82.3,83.5,83.2,82.5,84L82.5,84z M141.5,80.5l-0.8-0.8   c0.1-0.1,0.1-0.1,0.2-0.2c0.8-0.8,1.7-1.5,2.7-2.3l0.7,0.9c-0.9,0.7-1.8,1.5-2.6,2.2C141.7,80.3,141.6,80.4,141.5,80.5L141.5,80.5   z M21.6,84.8c-1.1-0.6-2.2-1.2-3.3-1.8l0.6-1c1.1,0.6,2.2,1.2,3.2,1.8L21.6,84.8L21.6,84.8z M60.3,82.4c-0.5-0.4-1.1-0.9-1.6-1.3   c-0.4-0.4-0.9-0.8-1.3-1.2l0.8-0.8c0.4,0.4,0.8,0.8,1.2,1.2c0.5,0.4,1,0.9,1.5,1.3L60.3,82.4L60.3,82.4z M185.5,75.6   c-1-0.7-2-1.4-3.1-2l0.5-1c1.1,0.6,2.2,1.3,3.2,2.1L185.5,75.6z M141.1,77.2c-0.1-0.7-0.2-1.5-0.2-2.2c0-0.1,0-0.2,0-0.3   c0-0.4,0-0.9,0-1.3l1.1,0.1c0,0.4,0,0.8,0,1.1c0,0.1,0,0.2,0,0.3c0.1,0.7,0.1,1.5,0.2,2.2L141.1,77.2L141.1,77.2z M147.4,76   l-0.6-1c1.1-0.6,2.2-1.2,3.3-1.8l0.5,1C149.5,74.8,148.4,75.4,147.4,76L147.4,76z M87.9,78.6L87,77.9c0.8-1,1.5-2,2.1-3l1,0.6   C89.4,76.6,88.7,77.6,87.9,78.6L87.9,78.6z M15.1,81.1c-1-0.7-2.1-1.4-3.1-2.1l0.7-0.9c1,0.7,2,1.4,3,2.1L15.1,81.1L15.1,81.1z    M179.1,72.1c-1.1-0.4-2.3-0.8-3.5-1.1l0.3-1.1c1.2,0.3,2.5,0.7,3.6,1.1L179.1,72.1L179.1,72.1z M154,72.8l-0.4-1   c1.2-0.4,2.4-0.9,3.6-1.2l0.3,1.1C156.3,72,155.1,72.4,154,72.8z M55.1,76.9c-0.7-1-1.4-2.2-1.9-3.3l1-0.5   c0.5,1.1,1.1,2.2,1.8,3.2L55.1,76.9z M172,70.3c-1.2-0.1-2.4-0.2-3.7-0.2l0-1.1c1.3,0,2.6,0.1,3.8,0.2L172,70.3L172,70.3z    M161.1,70.8l-0.2-1.1c1.2-0.2,2.5-0.4,3.7-0.5l0.1,1.1C163.5,70.4,162.3,70.6,161.1,70.8L161.1,70.8z M142.9,70.2l-1-0.5   c0.5-1.1,1.3-2.1,2.2-3.2l0.8,0.8C144.1,68.2,143.4,69.2,142.9,70.2z M9,76.6c-1-0.8-1.9-1.6-2.8-2.5l0.8-0.8   c0.9,0.8,1.8,1.6,2.8,2.4L9,76.6L9,76.6z M91.8,72.1l-1-0.4c0.5-1.1,0.8-2.3,1.1-3.5l1.1,0.3C92.7,69.7,92.3,70.9,91.8,72.1z    M51.8,70c-0.4-1.2-0.6-2.5-0.8-3.7l1.1-0.2c0.2,1.2,0.4,2.4,0.8,3.6L51.8,70z M147.6,64.8l-0.7-0.9c0.9-0.7,2-1.4,3.2-2.1l0.6,1   C149.6,63.5,148.5,64.2,147.6,64.8L147.6,64.8z M3.4,71.5c-1.7-1.7-2.5-2.8-2.5-2.9L1.8,68c0,0,0.8,1.1,2.4,2.8L3.4,71.5L3.4,71.5   z M93.5,64.7l-1.1-0.1c0.1-0.8,0.1-1.7,0-2.5c0-0.4,0-0.8-0.1-1.2l1.1-0.1c0,0.4,0.1,0.8,0.1,1.2C93.6,63,93.6,63.8,93.5,64.7z    M153.9,61.1l-0.5-1c1.1-0.5,2.2-1,3.4-1.6l0.4,1C156.1,60,155,60.5,153.9,61.1z M160.8,58.1l-0.4-1c1.1-0.4,2.3-0.9,3.5-1.3   l0.4,1.1C163,57.3,161.9,57.7,160.8,58.1L160.8,58.1z M51.9,62.5l-1.1,0c0-1.3,0.1-2.6,0.2-3.8l1.1,0.1   C51.9,60,51.9,61.3,51.9,62.5L51.9,62.5z M167.8,55.7l-0.3-1.1c1.1-0.4,2.3-0.7,3.6-1.1l0.3,1.1C170.1,54.9,168.9,55.3,167.8,55.7   L167.8,55.7z M174.9,53.5l-0.3-1.1c1.2-0.4,2.4-0.7,3.6-1l0.3,1.1C177.3,52.8,176.1,53.1,174.9,53.5z M91.7,57.4   c-0.3-1.2-0.8-2.3-1.4-3.3l1-0.6c0.6,1.1,1.1,2.3,1.5,3.6L91.7,57.4L91.7,57.4z M182.1,51.4l-0.3-1.1c1.2-0.3,2.4-0.7,3.6-1   l0.3,1.1C184.5,50.7,183.3,51.1,182.1,51.4z M189.3,49.4l-0.3-1.1c1.2-0.3,2.4-0.7,3.6-1l0.3,1.1C191.7,48.7,190.5,49,189.3,49.4z    M52.9,55.3l-1-0.4c0.5-1.2,1.2-2.3,2.1-3.3l0.8,0.8C53.9,53.3,53.3,54.3,52.9,55.3z M196.5,47.3l-0.3-1.1   c1.2-0.4,2.4-0.7,3.6-1.1l0.3,1.1C198.9,46.6,197.7,47,196.5,47.3L196.5,47.3z M88.1,51.2c-0.8-0.8-1.8-1.6-2.8-2.3l0.6-0.9   c1.1,0.7,2.1,1.5,3,2.4L88.1,51.2L88.1,51.2z M203.7,45.2l-0.3-1.1c1.2-0.4,2.4-0.8,3.5-1.2l0.4,1.1   C206.1,44.4,204.9,44.8,203.7,45.2z M210.8,42.8l-0.4-1.1c1.2-0.4,2.4-0.9,3.5-1.3l0.4,1C213.2,41.9,212,42.3,210.8,42.8z    M57.5,50.1l-0.6-0.9c1-0.7,2.1-1.3,3.4-1.8l0.5,1C59.5,48.8,58.4,49.4,57.5,50.1L57.5,50.1z M82.1,47.4c-1.1-0.4-2.3-0.8-3.5-1   l0.2-1.1c1.3,0.3,2.5,0.6,3.7,1.1L82.1,47.4z M217.7,40l-0.4-1c1.2-0.5,2.3-1,3.4-1.5l0.5,1C220.1,39,218.9,39.5,217.7,40z    M64.1,47.1L63.8,46c1.2-0.4,2.4-0.6,3.7-0.8l0.2,1.1C66.5,46.5,65.3,46.7,64.1,47.1z M75,45.9c-1.2-0.1-2.4-0.1-3.5,0l-0.1,0   l-0.1-1.1l0.1,0c1.2-0.1,2.5-0.1,3.7,0L75,45.9z M224.5,36.7l-0.6-1c1.1-0.6,2.2-1.3,3.1-1.9l0.6,0.9   C226.7,35.4,225.6,36,224.5,36.7L224.5,36.7z M230.7,32.4l-0.7-0.9c1-0.8,1.8-1.7,2.6-2.5l0.8,0.7   C232.7,30.7,231.8,31.6,230.7,32.4L230.7,32.4z M235.6,26.6l-1-0.5c0.1-0.2,0.2-0.3,0.3-0.5c0,0,0.6-1.1,1.3-2.8l1,0.4   c-0.7,1.8-1.3,2.9-1.3,2.9C235.8,26.3,235.7,26.4,235.6,26.6L235.6,26.6z M238.5,19.6l-1.1-0.3c0.4-1.2,0.7-2.4,0.9-3.6l1.1,0.2   C239.2,17.1,238.9,18.4,238.5,19.6L238.5,19.6z M240,12.2l-1.1-0.1c0.1-1.2,0.1-2.5,0.1-3.7l1.1-0.1   C240.1,9.6,240.1,10.9,240,12.2L240,12.2z M238.5,4.8c-0.2-1.2-0.6-2.4-1-3.5l1-0.4c0.5,1.2,0.8,2.4,1.1,3.7L238.5,4.8L238.5,4.8z   "></path>	</mask>	<g>		<path d="M174.7,106.8l-0.1-1.1c1.2-0.1,2.4-0.3,3.6-0.7l0.3,1.1C177.3,106.4,176,106.7,174.7,106.8L174.7,106.8z    M170.9,106.9c-1.3-0.1-2.6-0.3-3.8-0.5l0.3-1.1c1.2,0.3,2.4,0.5,3.6,0.5L170.9,106.9L170.9,106.9z M182.1,104.8l-0.4-1   c1.1-0.5,2.2-1.1,3.2-1.7l0.6,1C184.4,103.8,183.3,104.3,182.1,104.8L182.1,104.8z M163.6,105.1L163.6,105.1   c-0.2-0.1-0.5-0.2-0.8-0.3c-0.6-0.2-1.6-0.6-2.7-1.1l0.5-1c1.1,0.5,2,0.8,2.7,1.1c0.3,0.1,0.6,0.2,0.8,0.3l0.1,0l-0.3,0.5   L163.6,105.1L163.6,105.1z M188.5,100.8l-0.7-0.8c0.9-0.8,1.8-1.7,2.5-2.6l0.9,0.7C190.4,99,189.5,99.9,188.5,100.8z M156.6,102   c-1.1-0.6-2.2-1.4-3.2-2.1l0.7-0.9c1,0.7,2,1.4,3.1,2L156.6,102z M150.6,97.4c-0.9-0.9-1.8-1.8-2.5-2.8l0.9-0.7   c0.8,0.9,1.6,1.9,2.5,2.7L150.6,97.4L150.6,97.4z M193.2,94.8l-1-0.5c0.5-1.1,0.9-2.3,1.1-3.4l1.1,0.2   C194.2,92.3,193.8,93.6,193.2,94.8z M100.4,94.8c-0.3,0-0.7,0-1.1,0l0-1.1c0.4,0,0.7,0,1.1,0c0.7,0,1.6-0.1,2.6-0.2l0.1,1.1   C102.1,94.7,101.2,94.8,100.4,94.8z M95.5,94.6c-1.2-0.1-2.4-0.3-3.7-0.5l0.2-1.1c1.3,0.2,2.5,0.3,3.7,0.4L95.5,94.6L95.5,94.6z    M106.8,94l-0.2-1.1c1.2-0.2,2.4-0.4,3.7-0.7l0.2,1.1C109.2,93.6,108,93.8,106.8,94z M145.9,91.5c-0.6-1.1-1.2-2.2-1.8-3.4l1-0.5   c0.5,1.1,1.1,2.2,1.7,3.2L145.9,91.5z M114.2,92.5l-0.3-1.1c1.2-0.3,2.4-0.6,3.6-0.9l0.3,1.1C116.6,91.9,115.4,92.2,114.2,92.5z    M88.1,93.5c-1.2-0.2-2.5-0.5-3.7-0.8l0.3-1.1c1.2,0.3,2.4,0.5,3.6,0.8L88.1,93.5z M193.4,87.3c-0.1-1.2-0.5-2.3-0.9-3.4l1-0.4   c0.5,1.2,0.9,2.5,1,3.7L193.4,87.3L193.4,87.3z M121.4,90.5l-0.3-1.1c1.2-0.4,2.4-0.8,3.5-1.2l0.4,1.1   C123.8,89.7,122.6,90.1,121.4,90.5L121.4,90.5z M80.8,91.8c-1.2-0.3-2.4-0.7-3.6-1.1l0.3-1.1c1.2,0.4,2.4,0.7,3.6,1.1L80.8,91.8   L80.8,91.8z M56.8,92.7c-0.9,0-1.7,0.1-2.6,0.1l0-1.1c1.2,0,2.5-0.1,3.7-0.1l0.1,1.1C57.5,92.7,57.2,92.7,56.8,92.7z M61.7,92.2   l-0.2-1.1c1.2-0.2,2.5-0.4,3.6-0.6l0.2,1.1C64.2,91.9,62.9,92.1,61.7,92.2L61.7,92.2z M50.4,92.7c-1-0.1-2.1-0.1-3.1-0.2   c-0.2,0-0.4,0-0.7-0.1l0.1-1.1c0.2,0,0.4,0,0.6,0.1c1,0.1,2,0.2,3,0.2L50.4,92.7z M128.5,88l-0.4-1c1.2-0.5,2.3-1,3.4-1.5l0.5,1   C130.9,87,129.7,87.5,128.5,88L128.5,88z M69,90.7l-0.3-1.1c0.9-0.3,1.9-0.6,2.8-0.9c-0.5-0.2-0.9-0.4-1.4-0.6l0.5-1   c1.1,0.5,2.2,1,3.4,1.4l-0.4,1c-0.4-0.1-0.8-0.3-1.1-0.4l0.1,0.4C71.5,89.9,70.3,90.3,69,90.7L69,90.7z M42.9,91.9   c-1.2-0.2-2.5-0.4-3.7-0.7l0.2-1.1c1.2,0.3,2.4,0.5,3.6,0.7L42.9,91.9z M35.6,90.3c-1.2-0.3-2.4-0.7-3.6-1.1l0.3-1.1   c1.2,0.4,2.4,0.7,3.5,1.1L35.6,90.3z M76.1,88l-0.5-1c1.1-0.5,2.2-1.1,3.2-1.8l0.6,1C78.3,86.8,77.2,87.4,76.1,88L76.1,88z    M142.8,84.6c-0.4-1.2-0.7-2.4-1-3.7l1.1-0.2c0.3,1.2,0.6,2.4,1,3.6L142.8,84.6z M135.3,84.8l-0.5-1c1.1-0.6,2.2-1.3,3.1-1.9   l0.6,0.9C137.6,83.5,136.5,84.2,135.3,84.8L135.3,84.8z M190.6,80.7c-0.5-0.7-1.1-1.4-1.8-2.1c-0.2-0.2-0.4-0.4-0.6-0.6l0.8-0.8   c0.2,0.2,0.4,0.4,0.7,0.7c0.7,0.7,1.3,1.5,1.9,2.2L190.6,80.7L190.6,80.7z M66.7,86.5c-1.2-0.6-2.3-1.2-3.3-1.9l0.6-0.9   c1,0.6,2.1,1.2,3.2,1.8L66.7,86.5z M28.4,87.9c-1.2-0.5-2.3-0.9-3.5-1.4l0.5-1c1.1,0.5,2.3,1,3.4,1.4L28.4,87.9L28.4,87.9z    M82.5,84l-0.7-0.9c1-0.8,1.9-1.6,2.8-2.4l0.8,0.8C84.5,82.3,83.5,83.2,82.5,84L82.5,84z M141.5,80.5l-0.8-0.8   c0.1-0.1,0.1-0.1,0.2-0.2c0.8-0.8,1.7-1.5,2.7-2.3l0.7,0.9c-0.9,0.7-1.8,1.5-2.6,2.2C141.7,80.3,141.6,80.4,141.5,80.5L141.5,80.5   z M21.6,84.8c-1.1-0.6-2.2-1.2-3.3-1.8l0.6-1c1.1,0.6,2.2,1.2,3.2,1.8L21.6,84.8L21.6,84.8z M60.3,82.4c-0.5-0.4-1.1-0.9-1.6-1.3   c-0.4-0.4-0.9-0.8-1.3-1.2l0.8-0.8c0.4,0.4,0.8,0.8,1.2,1.2c0.5,0.4,1,0.9,1.5,1.3L60.3,82.4L60.3,82.4z M185.5,75.6   c-1-0.7-2-1.4-3.1-2l0.5-1c1.1,0.6,2.2,1.3,3.2,2.1L185.5,75.6z M141.1,77.2c-0.1-0.7-0.2-1.5-0.2-2.2c0-0.1,0-0.2,0-0.3   c0-0.4,0-0.9,0-1.3l1.1,0.1c0,0.4,0,0.8,0,1.1c0,0.1,0,0.2,0,0.3c0.1,0.7,0.1,1.5,0.2,2.2L141.1,77.2L141.1,77.2z M147.4,76   l-0.6-1c1.1-0.6,2.2-1.2,3.3-1.8l0.5,1C149.5,74.8,148.4,75.4,147.4,76L147.4,76z M87.9,78.6L87,77.9c0.8-1,1.5-2,2.1-3l1,0.6   C89.4,76.6,88.7,77.6,87.9,78.6L87.9,78.6z M15.1,81.1c-1-0.7-2.1-1.4-3.1-2.1l0.7-0.9c1,0.7,2,1.4,3,2.1L15.1,81.1L15.1,81.1z    M179.1,72.1c-1.1-0.4-2.3-0.8-3.5-1.1l0.3-1.1c1.2,0.3,2.5,0.7,3.6,1.1L179.1,72.1L179.1,72.1z M154,72.8l-0.4-1   c1.2-0.4,2.4-0.9,3.6-1.2l0.3,1.1C156.3,72,155.1,72.4,154,72.8z M55.1,76.9c-0.7-1-1.4-2.2-1.9-3.3l1-0.5   c0.5,1.1,1.1,2.2,1.8,3.2L55.1,76.9z M172,70.3c-1.2-0.1-2.4-0.2-3.7-0.2l0-1.1c1.3,0,2.6,0.1,3.8,0.2L172,70.3L172,70.3z    M161.1,70.8l-0.2-1.1c1.2-0.2,2.5-0.4,3.7-0.5l0.1,1.1C163.5,70.4,162.3,70.6,161.1,70.8L161.1,70.8z M142.9,70.2l-1-0.5   c0.5-1.1,1.3-2.1,2.2-3.2l0.8,0.8C144.1,68.2,143.4,69.2,142.9,70.2z M9,76.6c-1-0.8-1.9-1.6-2.8-2.5l0.8-0.8   c0.9,0.8,1.8,1.6,2.8,2.4L9,76.6L9,76.6z M91.8,72.1l-1-0.4c0.5-1.1,0.8-2.3,1.1-3.5l1.1,0.3C92.7,69.7,92.3,70.9,91.8,72.1z    M51.8,70c-0.4-1.2-0.6-2.5-0.8-3.7l1.1-0.2c0.2,1.2,0.4,2.4,0.8,3.6L51.8,70z M147.6,64.8l-0.7-0.9c0.9-0.7,2-1.4,3.2-2.1l0.6,1   C149.6,63.5,148.5,64.2,147.6,64.8L147.6,64.8z M3.4,71.5c-1.7-1.7-2.5-2.8-2.5-2.9L1.8,68c0,0,0.8,1.1,2.4,2.8L3.4,71.5L3.4,71.5   z M93.5,64.7l-1.1-0.1c0.1-0.8,0.1-1.7,0-2.5c0-0.4,0-0.8-0.1-1.2l1.1-0.1c0,0.4,0.1,0.8,0.1,1.2C93.6,63,93.6,63.8,93.5,64.7z    M153.9,61.1l-0.5-1c1.1-0.5,2.2-1,3.4-1.6l0.4,1C156.1,60,155,60.5,153.9,61.1z M160.8,58.1l-0.4-1c1.1-0.4,2.3-0.9,3.5-1.3   l0.4,1.1C163,57.3,161.9,57.7,160.8,58.1L160.8,58.1z M51.9,62.5l-1.1,0c0-1.3,0.1-2.6,0.2-3.8l1.1,0.1   C51.9,60,51.9,61.3,51.9,62.5L51.9,62.5z M167.8,55.7l-0.3-1.1c1.1-0.4,2.3-0.7,3.6-1.1l0.3,1.1C170.1,54.9,168.9,55.3,167.8,55.7   L167.8,55.7z M174.9,53.5l-0.3-1.1c1.2-0.4,2.4-0.7,3.6-1l0.3,1.1C177.3,52.8,176.1,53.1,174.9,53.5z M91.7,57.4   c-0.3-1.2-0.8-2.3-1.4-3.3l1-0.6c0.6,1.1,1.1,2.3,1.5,3.6L91.7,57.4L91.7,57.4z M182.1,51.4l-0.3-1.1c1.2-0.3,2.4-0.7,3.6-1   l0.3,1.1C184.5,50.7,183.3,51.1,182.1,51.4z M189.3,49.4l-0.3-1.1c1.2-0.3,2.4-0.7,3.6-1l0.3,1.1C191.7,48.7,190.5,49,189.3,49.4z    M52.9,55.3l-1-0.4c0.5-1.2,1.2-2.3,2.1-3.3l0.8,0.8C53.9,53.3,53.3,54.3,52.9,55.3z M196.5,47.3l-0.3-1.1   c1.2-0.4,2.4-0.7,3.6-1.1l0.3,1.1C198.9,46.6,197.7,47,196.5,47.3L196.5,47.3z M88.1,51.2c-0.8-0.8-1.8-1.6-2.8-2.3l0.6-0.9   c1.1,0.7,2.1,1.5,3,2.4L88.1,51.2L88.1,51.2z M203.7,45.2l-0.3-1.1c1.2-0.4,2.4-0.8,3.5-1.2l0.4,1.1   C206.1,44.4,204.9,44.8,203.7,45.2z M210.8,42.8l-0.4-1.1c1.2-0.4,2.4-0.9,3.5-1.3l0.4,1C213.2,41.9,212,42.3,210.8,42.8z    M57.5,50.1l-0.6-0.9c1-0.7,2.1-1.3,3.4-1.8l0.5,1C59.5,48.8,58.4,49.4,57.5,50.1L57.5,50.1z M82.1,47.4c-1.1-0.4-2.3-0.8-3.5-1   l0.2-1.1c1.3,0.3,2.5,0.6,3.7,1.1L82.1,47.4z M217.7,40l-0.4-1c1.2-0.5,2.3-1,3.4-1.5l0.5,1C220.1,39,218.9,39.5,217.7,40z    M64.1,47.1L63.8,46c1.2-0.4,2.4-0.6,3.7-0.8l0.2,1.1C66.5,46.5,65.3,46.7,64.1,47.1z M75,45.9c-1.2-0.1-2.4-0.1-3.5,0l-0.1,0   l-0.1-1.1l0.1,0c1.2-0.1,2.5-0.1,3.7,0L75,45.9z M224.5,36.7l-0.6-1c1.1-0.6,2.2-1.3,3.1-1.9l0.6,0.9   C226.7,35.4,225.6,36,224.5,36.7L224.5,36.7z M230.7,32.4l-0.7-0.9c1-0.8,1.8-1.7,2.6-2.5l0.8,0.7   C232.7,30.7,231.8,31.6,230.7,32.4L230.7,32.4z M235.6,26.6l-1-0.5c0.1-0.2,0.2-0.3,0.3-0.5c0,0,0.6-1.1,1.3-2.8l1,0.4   c-0.7,1.8-1.3,2.9-1.3,2.9C235.8,26.3,235.7,26.4,235.6,26.6L235.6,26.6z M238.5,19.6l-1.1-0.3c0.4-1.2,0.7-2.4,0.9-3.6l1.1,0.2   C239.2,17.1,238.9,18.4,238.5,19.6L238.5,19.6z M240,12.2l-1.1-0.1c0.1-1.2,0.1-2.5,0.1-3.7l1.1-0.1   C240.1,9.6,240.1,10.9,240,12.2L240,12.2z M238.5,4.8c-0.2-1.2-0.6-2.4-1-3.5l1-0.4c0.5,1.2,0.8,2.4,1.1,3.7L238.5,4.8L238.5,4.8z   "></path>	</g></g></svg>