<svg xmlns="http://www.w3.org/2000/svg" x="0px" y="0px" viewBox="0 0 200 230" style="enable-background:new 0 0 200 230;" xml:space="preserve" fill="#fff"><g>	<path d="M0,0v228.8c1,0.3,2,0.6,3,0.8c7.1,1.4,14.8-0.8,20.2-5.4c6.2-5.3,7.5-12.6,8.6-20.2c2.7-18.9,17.8-25.7,31.5-36.7  c15.6-12.6,25.9-34.4,19.3-54.1c-2.9-8.8-9.9-15.3-15.5-22.5c-5.8-7.4-9.6-16-10.7-25.4C55,53,60.1,44.9,71.8,41.1  c13.3-4.4,26.6-8.8,39.9-13.1c13-4.3,26.1-9.2,39.6-11.8c6.7-1.3,13.5-2.2,20.3-2.7c4.4-0.3,8.8-0.5,13.1-1.3  c4.9-0.9,9.6-2.6,13-6.2c1.5-1.5,2.2-3.7,2.2-5.9h-72.8L0,0z"></path>	<path d="M66.7,68.9c-0.1,7.9,3,15.6,8.7,21.3c0.9,0.9-0.5,2.3-1.4,1.4c-6-6-9.3-14.3-9.2-22.7C64.8,67.6,66.7,67.6,66.7,68.9  L66.7,68.9z"></path>	<path d="M63.3,171.7c8-3.8,14.6-10.2,18.6-18c0.6-1.1,2.3-0.2,1.8,0.9c-4.1,8.1-11,14.7-19.3,18.7  C63.2,173.9,62.1,172.3,63.3,171.7L63.3,171.7z"></path></g></svg>