<svg xmlns="http://www.w3.org/2000/svg" x="0px" y="0px" viewBox="0 0 100 100" style="enable-background:new 0 0 100 100;" xml:space="preserve"><style type="text/css">	.wdt-custom-turtle-icon-class-1{fill:#F06985;}	.wdt-custom-turtle-icon-class-2{fill:#DC7445;}	.wdt-custom-turtle-icon-class-3{fill:#B86239;}	.wdt-custom-turtle-icon-class-4{fill:#48B39A;}	.wdt-custom-turtle-icon-class-5{fill:#2B2C2B;}</style><g>	<g>		<g>			<path class="wdt-custom-turtle-icon-class-1" d="M86.9,35.8c0.8-0.5,1.1-1.6,0.6-2.4c-0.5-0.8-1.5-1.1-2.4-0.6c-0.8,0.5-1.1,1.6-0.6,2.4    C85.1,36.1,86.1,36.3,86.9,35.8z"></path>			<g>				<path class="wdt-custom-turtle-icon-class-2" d="M79.2,54.7c0,0-2.1,0.6-3-0.1c-0.9-0.6-1.7-1.9-2-3.6c-0.2-1.6,1-3.5,2.4-3.9c0,0,0.1,0.4,0.4,0.9     c-0.3-0.8-0.6-1.6-0.9-2.4c-0.1,0.1-1.1,1.4-2.9,1.4c-1.8,0-4-2.1-5.6-4.9c-1.7-2.8-2.4-7.7-0.8-9.3c-1.1-0.6-2.2-1-3.4-1.3     c0,0.4,0.6,4.9-0.5,6.6c-1.1,1.7-8.8,3.9-11.1,2.4c-2.4-1.5-3.7-5.1-3.7-5.1c0,0,0,0,0,0c-0.9,0.8-1.7,1.8-2.3,2.9     c3.8,1,6.3,4.7,6.3,6.7c0,2,0.1,7.1-1.4,9.4c-1.4,2.2-5.8,3.6-6.2,3.7c0.1,0.5,0.2,0.9,0.3,1.4c0.2-0.1,3.5-1.9,4.7-1.4     c1.3,0.5,2,2.7,0.6,4.5c-1.4,1.6-3.2,2.5-3.5,2.6c0.3,0.7,0.4,1.1,0.4,1.1s0.5-0.1,1.4-0.3c0.5-0.1,1.3-0.3,2.1-0.5     c0.9-0.2,1.9-0.5,3.1-0.9c0.7-0.2,1.4-0.4,2.2-0.7c1.9-0.6,4-1.2,6.4-2c2.7-0.9,5.2-1.7,7.4-2.5c0.9-0.3,1.7-0.6,2.5-0.9     c1.2-0.4,2.2-0.8,3.1-1.2c0.9-0.4,1.7-0.7,2.3-0.9c1.2-0.5,1.9-0.8,1.9-0.8S79.4,55.2,79.2,54.7L79.2,54.7z M56.8,61.1     c-1.2,0.9-3.7,0.1-4.2-1.6c-0.6-1.6,0.8-4.5,1.8-4.8c1.4-0.4,3.3,0.6,3.8,1.5C58.6,57.1,58,60.2,56.8,61.1L56.8,61.1z M56,52     c-1.3-2-2.8-5.1,1.6-7.8c4.5-2.7,6.4-3.2,8.7,0.6c1.1,1.7,2.6,4,1.7,5.3c-1,1.3-5.3,4-7.3,4.8C58.8,55.8,57.3,54.1,56,52L56,52z      M73.4,55.6c-0.3,1.4-3.6,1.4-4.1,1c-0.5-0.5-1.1-2.6-1.2-3.7c-0.1-1.1,3-2.8,4.2-2.2C73.3,51.2,73.7,54.2,73.4,55.6L73.4,55.6z     "></path>			</g>			<g>				<path class="wdt-custom-turtle-icon-class-3" d="M74.2,51c0.2,1.6,1,2.9,2,3.6c0.9,0.6,3,0.1,3,0.1c0-0.2-0.1-0.5-0.2-0.9c-0.4-1.4-1.3-3.8-1.9-5.3     c-0.1-0.1-0.1-0.3-0.2-0.4c-0.2-0.6-0.4-0.9-0.4-0.9C75.3,47.5,74,49.4,74.2,51z"></path>				<path class="wdt-custom-turtle-icon-class-3" d="M68,52.8c0.1,1.1,0.7,3.2,1.2,3.7c0.5,0.5,3.8,0.4,4.1-1c0.3-1.4-0.1-4.4-1.2-4.9     C71,50.1,67.9,51.8,68,52.8L68,52.8z"></path>				<path class="wdt-custom-turtle-icon-class-3" d="M67.6,42.2c1.7,2.8,3.8,4.9,5.6,4.9c1.8,0,2.8-1.3,2.9-1.4c0,0,0,0,0,0s-1.2-4.3-3.9-8.3     c-2-2.9-5.4-4.5-5.4-4.5c0,0,0,0,0,0C65.2,34.5,65.9,39.4,67.6,42.2L67.6,42.2z"></path>				<path class="wdt-custom-turtle-icon-class-3" d="M66.4,44.8c-2.3-3.8-4.2-3.3-8.7-0.6C53.2,46.9,54.7,50,56,52c1.3,2,2.7,3.8,4.7,2.9c2-0.9,6.3-3.6,7.3-4.8     C69,48.8,67.4,46.5,66.4,44.8L66.4,44.8z"></path>				<path class="wdt-custom-turtle-icon-class-3" d="M54.4,54.7c-1,0.3-2.4,3.2-1.8,4.8c0.6,1.6,3.1,2.4,4.2,1.6c1.2-0.9,1.8-4,1.3-4.9     C57.7,55.3,55.8,54.3,54.4,54.7L54.4,54.7z"></path>				<path class="wdt-custom-turtle-icon-class-3" d="M49.4,58.1c-1.2-0.5-4.5,1.3-4.7,1.4c0,0,0,0,0,0c0,0.3,0.3,1.4,0.7,2.5c0.3,0.8,0.5,1.6,0.7,2.2     c0.2,0.6,0.3,0.9,0.3,0.9s0,0,0,0c0.2-0.1,2.1-1,3.5-2.6C51.5,60.8,50.7,58.5,49.4,58.1L49.4,58.1z"></path>				<path class="wdt-custom-turtle-icon-class-3" d="M50.6,54.4c1.5-2.3,1.4-7.4,1.4-9.4c0-2-2.5-5.7-6.3-6.7c0,0,0,0,0,0c0,0-1,1.2-1.8,4.9c0,0.1,0,0.2,0,0.3     c0,0.1,0,0.2-0.1,0.4c0,0.1,0,0.2,0,0.3c-0.1,0.7-0.2,1.4-0.3,2.2c-0.6,6.3,0.8,11.8,0.8,11.8s0,0,0,0     C44.8,58,49.2,56.6,50.6,54.4L50.6,54.4z"></path>				<path class="wdt-custom-turtle-icon-class-3" d="M51.8,40.6c2.4,1.5,10.1-0.7,11.1-2.4c1-1.6,0.5-6.2,0.5-6.6c0,0,0,0,0,0s-3.7-1.3-8.2,0.1     c-4.5,1.3-6.8,3.4-7.1,3.9c0,0,0,0,0,0C48.1,35.5,49.4,39.1,51.8,40.6L51.8,40.6z"></path>			</g>			<g>				<path class="wdt-custom-turtle-icon-class-4" d="M76,63c1,2.4,5,0.4,4.5-1.7c-0.4-1.6-2.1-4-2.8-5c-0.6,0.2-1.4,0.6-2.3,0.9C75.2,58.5,75.2,61.2,76,63z"></path>				<path class="wdt-custom-turtle-icon-class-4" d="M69.5,64.8c1.4,2.4,5.1,1.3,4.8-1.1c-0.2-1.8-1.5-4.2-2.3-5.3c-0.8,0.3-1.6,0.6-2.5,0.9     C69.2,60.6,68.6,63.1,69.5,64.8L69.5,64.8z"></path>				<path class="wdt-custom-turtle-icon-class-4" d="M54.3,70c1.3,2.2,5.3,0.8,4.6-1.5c-0.5-1.6-2.1-3.6-3.1-4.7c-0.8,0.2-1.6,0.5-2.2,0.7     C53.5,65.9,53.5,68.5,54.3,70z"></path>				<path class="wdt-custom-turtle-icon-class-4" d="M47.8,72.1c1.3,2.4,5.1,0.2,4.7-1.9c-0.3-1.5-1.4-3.6-2-4.8c-0.9,0.2-1.6,0.4-2.1,0.5     C47.7,67.4,46.9,70.4,47.8,72.1L47.8,72.1z"></path>				<path class="wdt-custom-turtle-icon-class-4" d="M79,53.8c10.5-2.1,17.8-12,15.9-19.6c-2-7.8-8.4-8.8-11.9-5.4c-3.5,3.4-3.1,10.7-3.6,14.9     c-0.3,2.6-1.4,4.1-2.2,4.9C77.7,50,78.6,52.3,79,53.8z M93.5,42.8c-0.6,0.1-1.2,0.2-1.8,0.1c-1.1-0.2-2-0.9-2.7-1.7     c-0.8-1-1.3-2.1-1.7-3.3l0,0c0-0.1-0.1-0.2-0.1-0.3c0-0.2,0-0.4,0-0.5c0,0,0.1,0.1,0.2,0.2c0.1,0.2,0.2,0.4,0.2,0.6     c0.2,0.6,0.5,1.2,0.8,1.8c0.6,1.1,1.5,2.2,2.6,2.6c0.3,0.2,0.7,0.3,1.1,0.3c0.4,0.1,0.8,0.1,1.2,0c0.1,0,0.3,0,0.3,0.1     C93.7,42.7,93.6,42.8,93.5,42.8L93.5,42.8z M87.1,31c0-0.1,0-0.3,0-0.4c0,0,0.1,0.1,0.2,0.2c0.1,0.1,0.2,0.3,0.2,0.4     c0.2,0.5,0.5,0.9,0.9,1.2c0.4,0.3,0.8,0.4,1.3,0.2c0.2-0.1,0.4-0.2,0.5-0.4c0.1-0.2,0.2-0.4,0.2-0.6c0.1-0.6,0-1.2-0.1-1.8     c0-0.1,0-0.2,0-0.3c0,0,0.1,0.1,0.2,0.1c0.2,0.4,0.3,0.9,0.3,1.4c0,0.4,0,0.9-0.3,1.3c-0.1,0.2-0.3,0.4-0.5,0.5     c-0.1,0.1-0.2,0.1-0.3,0.1c-0.1,0-0.2,0-0.3,0.1c-0.1,0-0.3,0-0.4,0c-0.1,0-0.3-0.1-0.4-0.1c-0.2-0.1-0.5-0.3-0.7-0.4     c-0.4-0.4-0.6-0.8-0.8-1.3l0,0C87.2,31.1,87.1,31,87.1,31L87.1,31z M85.5,32.6c0.9-0.3,1.9,0.2,2.2,1.2c0.3,0.9-0.2,1.9-1.1,2.2     c-0.9,0.3-1.9-0.2-2.2-1.2C84.1,33.9,84.6,32.9,85.5,32.6z"></path>				<path class="wdt-custom-turtle-icon-class-4" d="M24.6,49.1c-0.8-2.1-2.4-3.7-4.1-4.9c-0.6,0.5-1.6,0.9-2.4,0.7c-1.3-0.2-1.5-1.7-1.3-2.8     c-1.3-0.6-2.3-0.9-2.3-0.9c-8.7,3.6-9.7,11.3-9.7,11.3c2.7-0.1,6.8-3.6,6.8-3.6c-2.2,4.7,1.1,8.4,1.1,8.4     c2.8-3.1,2.5-7.7,2.5-7.7c1.9,4.2,6,6.3,6,6.3c0.9-5.1-2.1-9.2-2.1-9.2C22.1,49.3,24.6,49.1,24.6,49.1L24.6,49.1z"></path>			</g>			<g>				<path class="wdt-custom-turtle-icon-class-5" d="M87.2,31.2c0.2,0.5,0.4,0.9,0.8,1.3c0.2,0.2,0.4,0.3,0.7,0.4c0.1,0,0.3,0.1,0.4,0.1c0.1,0,0.3,0,0.4,0     c0.1,0,0.2,0,0.3-0.1c0.1,0,0.2-0.1,0.3-0.1c0.2-0.1,0.4-0.3,0.5-0.5c0.2-0.4,0.3-0.9,0.3-1.3c0-0.5-0.2-1-0.3-1.4     c0-0.1-0.1-0.2-0.2-0.1c0,0-0.1,0.2,0,0.3c0.1,0.6,0.2,1.3,0.1,1.8c0,0.2-0.1,0.4-0.2,0.6c-0.1,0.2-0.3,0.3-0.5,0.4     c-0.4,0.1-0.9,0.1-1.3-0.2c-0.4-0.3-0.7-0.7-0.9-1.2c-0.1-0.2-0.2-0.3-0.2-0.4c-0.1-0.1-0.1-0.2-0.2-0.2c0,0.1,0,0.2,0,0.4     C87.1,31,87.2,31.1,87.2,31.2L87.2,31.2L87.2,31.2z"></path>				<path class="wdt-custom-turtle-icon-class-5" d="M93.4,42.6c-0.4,0.1-0.8,0.1-1.2,0c-0.4,0-0.7-0.1-1.1-0.3c-1.1-0.5-2-1.5-2.6-2.6     c-0.3-0.6-0.6-1.2-0.8-1.8c-0.1-0.2-0.2-0.4-0.2-0.6c-0.1-0.1-0.2-0.3-0.2-0.2c0,0.1,0,0.3,0,0.5c0,0.1,0,0.2,0.1,0.3l0,0     c0.4,1.2,0.9,2.3,1.7,3.3c0.7,0.8,1.6,1.5,2.7,1.7c0.6,0.1,1.2,0.1,1.8-0.1c0.1,0,0.2-0.1,0.2-0.2     C93.7,42.6,93.5,42.5,93.4,42.6L93.4,42.6z"></path>				<path class="wdt-custom-turtle-icon-class-5" d="M18.1,44.9c0.8,0.1,1.7-0.2,2.4-0.7c0.5-0.4,0.7-0.9,0.7-1.5c-0.1-1.4-1-2.8-2.3-2.5     c-0.7,0.1-1.8,0.8-2.1,1.9c0,0,0,0,0,0.1C16.6,43.2,16.8,44.8,18.1,44.9L18.1,44.9z"></path>				<path class="wdt-custom-turtle-icon-class-5" d="M27.4,36.8c-1.7-2.8-4.5-0.6-4.5,0.5c0,1.1,0.3,2.9,2.1,2.8C26.8,39.9,28.2,38.1,27.4,36.8z"></path>				<path class="wdt-custom-turtle-icon-class-5" d="M24.1,45.4c0.7,1.1,2.1,0.8,3.3,0.3c1.2-0.5,2-2.1,0.9-3.2C26.8,41,23.3,44.3,24.1,45.4z"></path>			</g>		</g>	</g></g></svg>